<svg id="illustrations" xmlns="http://www.w3.org/2000/svg" viewBox="0 0 106 106"><defs><style>.cls-1{fill:#758586;}.cls-2{fill:#859596;}.cls-3{fill:#b5c5c6;}.cls-4{fill:#c5d5d6;}.cls-5{fill:#f7b23f;}.cls-6{fill:#c52e25;}.cls-7{fill:#d53d33;}.cls-8{fill:#657576;}.cls-9{fill:#d5e5e6;}.cls-10{fill:#fff;}</style></defs><title>Cohetes</title><path class="cls-1" d="M45.07,77a2.64,2.64,0,0,1-3.74,0L29,64.67a2.64,2.64,0,0,1,0-3.74l8.5-5.5a2.65,2.65,0,0,1,3.74,0l9.34,9.34a2.66,2.66,0,0,1,0,3.75Z"/><rect class="cls-2" x="32.94" y="61.35" width="14.69" height="8.47" transform="translate(-34.57 47.69) rotate(-45)"/><path class="cls-3" d="M54.93,71.38a3.18,3.18,0,0,1-4.5,0l-16-16a3.18,3.18,0,0,1,0-4.5h0a3.18,3.18,0,0,1,4.5,0l16,16a3.18,3.18,0,0,1,0,4.5Z"/><path class="cls-4" d="M47.58,41.07l-11,11a.65.65,0,0,1-.91,0,8.34,8.34,0,0,0-11.68,0,.59.59,0,0,1-.32.17.63.63,0,0,1-.59-.17h0a.64.64,0,0,1,0-.91L34,40.27a9.73,9.73,0,0,1,13.57-.12h0a.65.65,0,0,1,0,.92Z"/><path class="cls-3" d="M47.3,41.35,36.57,52.07a.65.65,0,0,1-.91,0,8.34,8.34,0,0,0-11.68,0,.59.59,0,0,1-.32.17L34.13,41.82A9.73,9.73,0,0,1,47.3,41.35Z"/><path class="cls-4" d="M64.29,57.79l-11,11a.65.65,0,0,0,0,.91,8.34,8.34,0,0,1,0,11.68.57.57,0,0,0-.17.32.63.63,0,0,0,.17.59h0a.65.65,0,0,0,.91,0L65.1,71.36a9.73,9.73,0,0,0,.13-13.57h0a.67.67,0,0,0-.45-.19A.66.66,0,0,0,64.29,57.79Z"/><path class="cls-3" d="M64,58.07,53.29,68.79a.65.65,0,0,0,0,.91,8.34,8.34,0,0,1,0,11.68.57.57,0,0,0-.17.32L63.54,71.24A9.73,9.73,0,0,0,64,58.07Z"/><rect class="cls-5" x="74.73" y="23.2" width="14.46" height="1.69" transform="translate(7 64.99) rotate(-45)"/><circle class="cls-6" cx="87.78" cy="18.22" r="1.81" transform="translate(12.82 67.39) rotate(-44.99)"/><path class="cls-6" d="M68.14,58.22,55,71.4,34.43,50.88,47.61,37.69C53.46,31.85,61,28.72,67.39,27a57.86,57.86,0,0,1,13.34-1.94h0a58,58,0,0,1-1.94,13.35C77.11,44.86,74,52.38,68.14,58.22Z"/><path class="cls-7" d="M62.77,52.85,49.59,66,39.8,56.25,53,43.06A81.05,81.05,0,0,1,69.5,30.52a74.75,74.75,0,0,1,11.23-5.42h0a74.62,74.62,0,0,1-5.43,11.23A80.67,80.67,0,0,1,62.77,52.85Z"/><path class="cls-8" d="M60.38,45.45a8.4,8.4,0,1,0,0,11.88A8.41,8.41,0,0,0,60.38,45.45ZM50.33,55.51a5.82,5.82,0,1,1,8.22,0A5.82,5.82,0,0,1,50.33,55.51Z"/><circle class="cls-9" cx="54.44" cy="51.4" r="6.46" transform="translate(-20.4 53.54) rotate(-45)"/><circle class="cls-10" cx="57.11" cy="51.05" r="2.14" transform="translate(-19.37 55.33) rotate(-45)"/><path class="cls-8" d="M70.1,35.73a5.31,5.31,0,1,0,0,7.52A5.32,5.32,0,0,0,70.1,35.73Zm-6.36,6.36a3.68,3.68,0,1,1,5.2,0A3.68,3.68,0,0,1,63.74,42.09Z"/><circle class="cls-9" cx="66.34" cy="39.49" r="4.09" transform="translate(-8.49 58.48) rotate(-45)"/><circle class="cls-10" cx="68.03" cy="39.27" r="1.35" transform="translate(-7.84 59.61) rotate(-45)"/></svg>