<svg id="illustrations" xmlns="http://www.w3.org/2000/svg" viewBox="0 0 106 106"><defs><style>.cls-1{fill:#c5d5d6;}.cls-2{fill:#b5c5c6;}.cls-3{fill:#c52e25;}.cls-4{fill:#d53d33;}.cls-5{fill:#556566;}.cls-6{fill:#d5e5e6;}.cls-7{fill:#fff;}</style></defs><title>Cohetes</title><path class="cls-1" d="M49.67,42l-8.95,8.95a.53.53,0,0,1-.74,0,6.78,6.78,0,0,0-9.5,0,.47.47,0,0,1-.26.13.51.51,0,0,1-.48-.14h0a.53.53,0,0,1,0-.74l8.89-8.89a7.91,7.91,0,0,1,11-.1h0a.54.54,0,0,1,.15.37A.54.54,0,0,1,49.67,42Z"/><path class="cls-2" d="M49.45,42.2l-8.72,8.72a.53.53,0,0,1-.74,0,6.78,6.78,0,0,0-9.5,0,.47.47,0,0,1-.26.13l8.51-8.51A7.91,7.91,0,0,1,49.45,42.2Z"/><path class="cls-1" d="M64,56.33l-8.95,8.95a.53.53,0,0,0,0,.74,6.79,6.79,0,0,1,0,9.5.47.47,0,0,0-.13.26.51.51,0,0,0,.14.48h0a.53.53,0,0,0,.74,0l8.89-8.89a7.91,7.91,0,0,0,.1-11h0a.54.54,0,0,0-.37-.15A.53.53,0,0,0,64,56.33Z"/><path class="cls-2" d="M63.8,56.56l-8.72,8.72a.53.53,0,0,0,0,.74,6.79,6.79,0,0,1,0,9.5.47.47,0,0,0-.13.26l8.51-8.51A7.91,7.91,0,0,0,63.8,56.56Z"/><path class="cls-3" d="M66.06,56.47c-11.21,11.2-22.8,19-30.1,20.71-2.82.68-5,.45-6.27-.82C25.12,71.8,34,55.51,49.56,40,64.37,25.17,84,20.53,85.81,20.13l.13,0S81.59,40.94,66.06,56.47Z"/><path class="cls-2" d="M28.89,68c6.19-6.21,10-12.45,8.47-14s-7.75,2.28-14,8.47Z"/><path class="cls-1" d="M27.4,66.48c6.2-6.2,10.65-11.78,10-12.47S31.1,57.78,24.89,64Z"/><path class="cls-4" d="M66.06,56.47c-11.21,11.2-22.8,19-30.1,20.71-1.14-7.67,7.47-22.79,21.61-36.93,9.89-9.89,20.27-17.08,28.25-20.12l.13,0S81.59,40.94,66.06,56.47Z"/><path class="cls-2" d="M33,80.3c8.19-8.21,13.21-16.47,11.21-18.47S33.94,64.84,25.73,73Z"/><path class="cls-1" d="M31,78.33c8.2-8.21,14.1-15.58,13.18-16.5s-8.29,5-16.5,13.18Z"/><path class="cls-2" d="M43.48,82.56c6.19-6.21,10-12.45,8.47-14s-7.75,2.28-14,8.47Z"/><path class="cls-1" d="M42,81.07c6.2-6.2,10.65-11.78,10-12.47s-6.27,3.77-12.47,10Z"/><path class="cls-5" d="M47.66,57.72a4.72,4.72,0,1,1,6.67,0A4.72,4.72,0,0,1,47.66,57.72Zm5.65-5.65a3.27,3.27,0,1,0,0,4.62A3.27,3.27,0,0,0,53.31,52.07Z"/><circle class="cls-6" cx="51" cy="54.38" r="3.63" transform="translate(-23.52 51.99) rotate(-45)"/><circle class="cls-7" cx="52.5" cy="54.18" r="1.2" transform="translate(-22.94 52.98) rotate(-44.99)"/><path class="cls-5" d="M57.34,48A4.72,4.72,0,1,1,64,48,4.72,4.72,0,0,1,57.34,48ZM63,42.39A3.27,3.27,0,1,0,63,47,3.27,3.27,0,0,0,63,42.39Z"/><circle class="cls-6" cx="60.68" cy="44.7" r="3.63" transform="translate(-13.84 56.01) rotate(-45.01)"/><circle class="cls-7" cx="62.18" cy="44.51" r="1.2" transform="translate(-13.26 57.01) rotate(-45.01)"/><path class="cls-5" d="M66.68,38.7a4.72,4.72,0,1,1,6.67,0A4.72,4.72,0,0,1,66.68,38.7Zm5.65-5.65a3.27,3.27,0,1,0,0,4.62A3.27,3.27,0,0,0,72.33,33.05Z"/><circle class="cls-6" cx="70.02" cy="35.37" r="3.63" transform="translate(-4.5 59.87) rotate(-45)"/><circle class="cls-7" cx="71.52" cy="35.17" r="1.2" transform="translate(-3.93 60.86) rotate(-44.99)"/></svg>