<svg id="illustrations" xmlns="http://www.w3.org/2000/svg" viewBox="0 0 106 106"><defs><style>.cls-1{fill:#f3aa43;}.cls-2{fill:#ef893a;}.cls-3{fill:#34a3c2;}.cls-4{fill:#42cdf5;}.cls-5{fill:#3ec1e6;}.cls-6{fill:#f8be49;}.cls-7{fill:#d5e5e6;}.cls-8{fill:#c5d5d6;}.cls-9{fill:#556566;}.cls-10{fill:#fff;}.cls-11{fill:#455556;}.cls-12{fill:#657576;}</style></defs><title>Cohetes</title><path class="cls-1" d="M47.45,44.61c-12.27,10-26,3.32-26,3.32L19.59,72.46S59.72,34.65,47.45,44.61Z"/><path class="cls-2" d="M47.37,45.92c-12.27,10-26,3.32-26,3.32L19.51,73.77S59.64,36,47.37,45.92Z"/><path class="cls-1" d="M61.62,58.78c-10,12.27-3.32,26-3.32,26L33.76,86.63S71.57,46.51,61.62,58.78Z"/><path class="cls-2" d="M60.31,58.86c-10,12.27-3.32,26-3.32,26L32.45,86.71S70.26,46.59,60.31,58.86Z"/><path class="cls-3" d="M55.95,42l1.4-1.38.44-.42,1-.93.51-.48.9-.84.5-.46.92-.83.47-.42.95-.83.43-.37,1-.84.37-.31,1-.88.29-.24,1.13-.92.2-.16,1.21-1,.08-.07c3.18-2.5,6.19-4.69,8.86-6.52a21.46,21.46,0,0,1-1.77-2.56A75.85,75.85,0,0,0,52.16,37.24C36.63,52.77,27.73,69.06,32.28,73.62a4.25,4.25,0,0,0,2.6,1.14,15.88,15.88,0,0,1,1.05-4.88C38.53,62.58,45.83,52.15,55.95,42Z"/><path class="cls-4" d="M84.28,30a21.89,21.89,0,0,1-2.65-1.84A155,155,0,0,1,63.79,49.87C53.67,60,43.23,67.28,35.93,69.89a15.88,15.88,0,0,0-1.05,4.88c6.55.76,20.44-7.69,33.78-21A75.82,75.82,0,0,0,84.28,30Z"/><path class="cls-5" d="M79.55,26.35a24.42,24.42,0,0,1-1.93-2.17c-2.67,1.83-5.69,4-8.86,6.52l-.08.07-1.21,1-.2.16-1.13.92-.29.24-1,.88-.37.31-1,.84-.43.37-.95.83-.47.42-.92.83-.5.46-.9.84-.51.48-1,.93-.44.42L55.95,42c-10.12,10.12-17.41,20.55-20,27.86,7.3-2.61,17.74-9.9,27.85-20A155,155,0,0,0,81.63,28.21h0A24.4,24.4,0,0,1,79.55,26.35Z"/><path class="cls-2" d="M88.37,17.45l.17-.09a74.76,74.76,0,0,0-12.68,4.25,21.46,21.46,0,0,0,1.77,2.56C83.32,20.27,87.48,17.94,88.37,17.45Z"/><path class="cls-6" d="M81.63,28.21A21.89,21.89,0,0,0,84.28,30a74.56,74.56,0,0,0,4.26-12.68h0l-.17.09C87.88,18.34,85.54,22.5,81.63,28.21Z"/><path class="cls-1" d="M77.62,24.18a24.66,24.66,0,0,0,4,4h0c3.91-5.71,6.25-9.87,6.74-10.76C87.48,17.94,83.32,20.27,77.62,24.18Z"/><path class="cls-7" d="M67.26,31.89l.2-.16Z"/><path class="cls-7" d="M65.85,33l.29-.24Z"/><path class="cls-7" d="M64.43,34.24l.37-.31Z"/><path class="cls-7" d="M60.17,38l.5-.46Z"/><path class="cls-7" d="M58.76,39.3l.51-.48Z"/><path class="cls-7" d="M57.35,40.65l.44-.42Z"/><path class="cls-7" d="M63,35.45l.43-.37Z"/><path class="cls-7" d="M61.59,36.7l.47-.42Z"/><path class="cls-7" d="M68.67,30.77l.08-.07Z"/><path class="cls-8" d="M60.67,37.53l.92-.83Z"/><path class="cls-8" d="M62.06,36.29l.95-.83Z"/><path class="cls-8" d="M57.79,40.23l1-.93Z"/><path class="cls-8" d="M59.27,38.82l.9-.84Z"/><path class="cls-8" d="M67.46,31.73l1.21-1Z"/><path class="cls-8" d="M55.95,42l1.4-1.38Z"/><path class="cls-8" d="M77.62,24.18c-2.67,1.83-5.69,4-8.86,6.52,3.18-2.5,6.19-4.68,8.86-6.52Z"/><path class="cls-8" d="M66.13,32.81l1.13-.92Z"/><path class="cls-8" d="M64.8,33.93l1-.88Z"/><path class="cls-8" d="M63.44,35.08l1-.84Z"/><path class="cls-7" d="M88.37,17.45c-.89.49-5,2.82-10.75,6.72h0C83.32,20.27,87.48,17.94,88.37,17.45Z"/><circle class="cls-7" cx="56.46" cy="49.63" r="5.01" transform="translate(-18.56 54.46) rotate(-45)"/><path class="cls-9" d="M52.27,53.82a5.93,5.93,0,1,1,8.38,0A5.93,5.93,0,0,1,52.27,53.82Zm7.09-7.09a4.1,4.1,0,1,0,0,5.8A4.11,4.11,0,0,0,59.36,46.73Z"/><circle class="cls-10" cx="57.99" cy="49.74" r="2.01" transform="translate(-18.19 55.57) rotate(-45)"/><circle class="cls-7" cx="66.8" cy="39.29" r="5.01" transform="translate(-8.22 58.75) rotate(-45)"/><path class="cls-9" d="M62.61,43.48a5.92,5.92,0,1,1,8.38,0A5.93,5.93,0,0,1,62.61,43.48Zm7.09-7.09a4.1,4.1,0,1,0,0,5.8A4.11,4.11,0,0,0,69.7,36.39Z"/><circle class="cls-10" cx="68.33" cy="39.4" r="2.01" transform="translate(-7.85 59.86) rotate(-45)"/><circle class="cls-7" cx="75.48" cy="30.62" r="3.58" transform="translate(0.46 62.34) rotate(-45)"/><path class="cls-9" d="M72.49,33.61a4.23,4.23,0,1,1,6,0A4.23,4.23,0,0,1,72.49,33.61Zm5.06-5.06a2.93,2.93,0,1,0,0,4.14A2.93,2.93,0,0,0,77.55,28.54Z"/><circle class="cls-10" cx="76.57" cy="30.69" r="1.43" transform="translate(0.73 63.14) rotate(-45)"/><rect class="cls-11" x="31.23" y="64.95" width="6.32" height="13.11" rx="2.34" ry="2.34" transform="translate(-40.48 45.23) rotate(-44.98)"/><rect class="cls-12" x="32.17" y="67.22" width="6.32" height="10.46" rx="2.34" ry="2.34" transform="translate(-40.87 46.17) rotate(-44.98)"/><rect class="cls-9" x="31.33" y="67.57" width="6.32" height="8.08" rx="2.34" ry="2.34" transform="translate(-40.53 45.36) rotate(-45)"/><polygon class="cls-1" points="46.01 64.34 22.96 82.93 41.56 59.89 49.3 56.6 46.01 64.34"/><polygon class="cls-2" points="49.3 56.6 22.96 82.93 41.56 59.89 49.3 56.6"/></svg>