<?xml version="1.0" standalone="no"?>
<!DOCTYPE svg PUBLIC "-//W3C//DTD SVG 20010904//EN"
 "http://www.w3.org/TR/2001/REC-SVG-20010904/DTD/svg10.dtd">
<svg version="1.0" xmlns="http://www.w3.org/2000/svg"
 width="1247.000000pt" height="1280.000000pt" viewBox="0 0 1247.000000 1280.000000"
 preserveAspectRatio="xMidYMid meet">
<metadata>
Created by potrace 1.15, written by Peter Selinger 2001-2017
</metadata>
<g transform="translate(0.000000,1280.000000) scale(0.100000,-0.100000)"
fill="#000000" stroke="none">
<path d="M2170 12781 c-89 -24 -128 -42 -209 -95 -204 -132 -415 -420 -647
-886 -562 -1127 -1099 -3018 -1258 -4430 -41 -363 -49 -498 -50 -860 -1 -358
3 -429 40 -770 161 -1464 741 -3536 1319 -4715 141 -288 274 -513 379 -640
227 -278 380 -371 628 -382 l118 -6 77 60 c168 130 227 171 463 328 498 330
823 529 3230 1977 1423 856 1406 846 1935 1170 2230 1364 3432 2178 3938 2668
378 365 432 632 189 932 -350 435 -1873 1334 -5517 3258 -831 439 -987 521
-1240 655 -137 73 -457 242 -710 375 -1095 578 -1841 987 -2134 1172 -52 33
-138 93 -191 134 l-97 74 -99 -1 c-62 0 -123 -7 -164 -18z"/>
</g>
</svg>
