<svg id="illustrations" xmlns="http://www.w3.org/2000/svg" viewBox="0 0 106 106"><defs><style>.cls-1{fill:#b5c5c6;}.cls-2{fill:#c5d5d6;}.cls-3{fill:#e54d42;}.cls-4{fill:#f55d51;}.cls-5{fill:#d5e5e6;}.cls-6{fill:#556566;}.cls-7{fill:#fff;}</style></defs><title>Cohetes</title><path class="cls-1" d="M66.27,59.65,50.44,75.47,30.23,55.26,46.06,39.44a60.14,60.14,0,0,1,22-13.51,71.37,71.37,0,0,1,15.38-3.8l.09,0h.07a70.16,70.16,0,0,1-3.81,15.49A60.17,60.17,0,0,1,66.27,59.65Z"/><path class="cls-2" d="M59.84,53.22,44,69l-7.44-7.44L52.4,45.78A148.73,148.73,0,0,1,70.16,30.71a133.09,133.09,0,0,1,13.29-8.59l.11-.06,0,0a130.43,130.43,0,0,1-8.63,13.37A148.66,148.66,0,0,1,59.84,53.22Z"/><path class="cls-3" d="M79.79,37.59a15.57,15.57,0,0,1-4.88-2.12,16.23,16.23,0,0,1-4.75-4.77,15.56,15.56,0,0,1-2.09-4.78,71.37,71.37,0,0,1,15.38-3.8l.11-.06,0,0h.07A70.16,70.16,0,0,1,79.79,37.59Z"/><path class="cls-4" d="M74.91,35.47a16.23,16.23,0,0,1-4.75-4.77,133.09,133.09,0,0,1,13.29-8.59l.11-.06,0,0A130.43,130.43,0,0,1,74.91,35.47Z"/><circle class="cls-5" cx="62.85" cy="43.07" r="7.07" transform="translate(-12.05 57.06) rotate(-45)"/><path class="cls-6" d="M56.95,49a8.35,8.35,0,1,1,11.81,0A8.36,8.36,0,0,1,56.95,49Zm10-10a5.78,5.78,0,1,0,0,8.18A5.79,5.79,0,0,0,66.94,39Z"/><circle class="cls-7" cx="65.01" cy="43.22" r="2.83" transform="translate(-11.52 58.63) rotate(-45)"/><path class="cls-3" d="M53.26,79c7-7,11.22-14,9.52-15.7s-8.72,2.56-15.7,9.52Z"/><path class="cls-4" d="M51.58,77.28c7-7,12-13.24,11.2-14s-7,4.24-14,11.2Z"/><path class="cls-3" d="M39.21,74.62C48.38,65.44,54,56.19,51.75,54S40.27,57.32,31.08,66.49Z"/><path class="cls-4" d="M37,72.41C46.17,63.23,52.77,55,51.75,54S42.47,59.53,33.29,68.7Z"/><path class="cls-3" d="M33,58.69c7-7,11.22-14,9.52-15.7s-8.72,2.56-15.7,9.52Z"/><path class="cls-4" d="M31.3,57c7-7,12-13.24,11.2-14s-7,4.24-14,11.2Z"/></svg>