<svg xmlns="http://www.w3.org/2000/svg" viewBox="0 0 106 106"><defs><style>.cls-1{isolation:isolate;}.cls-2{fill:#b51f18;}.cls-3{fill:#95a5a6;}.cls-4{fill:#b5c5c6;}.cls-5{fill:#a5b5b6;}.cls-6{fill:#a5100e;}.cls-7{fill:#657576;}.cls-8{fill:#c52e25;}.cls-9{fill:#e54d42;}.cls-10{fill:#d53d33;}.cls-11{fill:#d5e5e6;}.cls-12{fill:#556566;}.cls-13{fill:#fff;}.cls-14{fill:#850309;}.cls-15{fill:#e47e30;mix-blend-mode:multiply;}</style></defs><title>Cohetes</title><g class="cls-1"><g id="illustrations"><path class="cls-2" d="M53.37,35.72c-12.27,10-26,3.32-26,3.32L25.52,63.58S65.64,25.77,53.37,35.72Z"/><path class="cls-3" d="M49.36,69.52l-1.62,1.62a3.27,3.27,0,0,1-4.63,0l-8.33-8.33a3.27,3.27,0,0,1,0-4.63l1.62-1.62a3.28,3.28,0,0,1,4.63,0l8.33,8.33A3.27,3.27,0,0,1,49.36,69.52Z"/><rect class="cls-4" x="38.96" y="57.85" width="8.84" height="14.62" rx="3.27" ry="3.27" transform="translate(-33.37 49.76) rotate(-45)"/><path class="cls-5" d="M41.06,58.34h2.29a3.28,3.28,0,0,1,3.28,3.28v4.75a3.27,3.27,0,0,1-3.27,3.27H41.06a3.27,3.27,0,0,1-3.27-3.27V61.61A3.27,3.27,0,0,1,41.06,58.34Z" transform="translate(-32.88 48.59) rotate(-45)"/><path class="cls-6" d="M53.3,37c-12.27,10-26,3.31-26,3.31L25.44,64.89S65.56,27.08,53.3,37Z"/><path class="cls-2" d="M70.46,52.81c-10,12.27-3.32,26-3.32,26L42.61,80.67S80.42,40.54,70.46,52.81Z"/><path class="cls-6" d="M69.15,52.89c-10,12.27-3.32,26-3.32,26L41.29,80.74S79.1,40.62,69.15,52.89Z"/><path class="cls-7" d="M53.76,70.37a2.07,2.07,0,0,1-2.93,0L35.7,55.25a2.07,2.07,0,0,1,0-2.93h0a2.07,2.07,0,0,1,2.93,0L53.76,67.44a2.07,2.07,0,0,1,0,2.93Z"/><path class="cls-8" d="M68.13,56,54,70.14,35.93,52.09,50.07,37.95A54,54,0,0,1,70.2,25.71c1.57-.55,3.06-1,4.44-1.41.85-.24,1.67-.45,2.44-.63a53.5,53.5,0,0,1,6.52-1.21h0a51.53,51.53,0,0,1-1.19,6.46c-.19.81-.41,1.67-.67,2.57-.37,1.34-.82,2.78-1.36,4.29A54.09,54.09,0,0,1,68.13,56Z"/><path class="cls-9" d="M68.13,56,54,70.14l-13-13L55.16,43A113.68,113.68,0,0,1,72.47,29c1.21-.8,2.36-1.54,3.43-2.2l1.8-1.08c3.47-2.06,5.73-3.15,5.9-3.23h0a51.53,51.53,0,0,1-1.19,6.46c-.19.81-.41,1.67-.67,2.57-.37,1.34-.82,2.78-1.36,4.29A54.09,54.09,0,0,1,68.13,56Z"/><path class="cls-10" d="M63,50.91,48.89,65.05,41,57.18,55.16,43A113.68,113.68,0,0,1,72.47,29c1.21-.8,2.36-1.54,3.43-2.2l1.8-1.08c3.47-2.06,5.73-3.15,5.9-3.23h0c-.08.17-1.16,2.42-3.21,5.88l-1.1,1.82q-1,1.59-2.18,3.4A114.06,114.06,0,0,1,63,50.91Z"/><circle class="cls-11" cx="62.48" cy="43.6" r="7.21" transform="translate(-12.53 56.95) rotate(-45)"/><path class="cls-12" d="M56.45,49.62a8.52,8.52,0,1,1,12,0A8.53,8.53,0,0,1,56.45,49.62ZM66.65,39.43a5.9,5.9,0,1,0,0,8.34A5.91,5.91,0,0,0,66.65,39.43Z"/><circle class="cls-13" cx="64.68" cy="43.75" r="2.88" transform="translate(-11.99 58.56) rotate(-45.01)"/><polygon class="cls-6" points="49.17 61.36 30.82 75.26 44.71 56.91 51.21 54.86 49.17 61.36"/><polygon class="cls-14" points="51.21 54.86 30.82 75.26 44.71 56.91 51.21 54.86"/><path class="cls-15" d="M80.41,35.8a24.46,24.46,0,0,1-3.27-2.22,27.85,27.85,0,0,1-2.57-2.28A28.28,28.28,0,0,1,72.48,29a25.88,25.88,0,0,1-2.27-3.26c1.57-.55,3.06-1,4.44-1.41.85-.24,1.67-.45,2.44-.63a53.53,53.53,0,0,1,6.52-1.21h0a51.55,51.55,0,0,1-1.19,6.46c-.19.81-.41,1.67-.67,2.57C81.39,32.85,80.94,34.29,80.41,35.8Z"/></g></g></svg>