<svg id="illustrations" xmlns="http://www.w3.org/2000/svg" viewBox="0 0 106 106"><defs><style>.cls-1{fill:#c5d5d6;}.cls-2{fill:#d5e5e6;}.cls-3{fill:#b5c5c6;}.cls-4{fill:#c52e25;}.cls-5{fill:#657576;}.cls-6{fill:#fff;}.cls-7{fill:#a5b5b6;}.cls-8{fill:#d53d33;}</style></defs><title>Cohetes</title><path class="cls-1" d="M62.67,59.78c-.82.82-1.63,1.62-2.45,2.4l-.5.48c-1.91,1.79-3.81,3.48-5.7,5l-.73.61c-2.58,2.12-5.12,4-7.54,5.64l-1,.67c-8.6,5.61-15.68,7.8-18.44,5s-.66-9.59,4.73-18c.2-.31.41-.63.63-1,1.64-2.49,3.57-5.09,5.75-7.75l.58-.71c1.63-2,3.4-4,5.29-6l.48-.5q1.17-1.24,2.41-2.48c1-1,2.07-2,3.13-2.93l.5-.43a69.22,69.22,0,0,1,6.58-5l.62-.41a81.47,81.47,0,0,1,10.55-5.85l.64-.3h0L69,28a79,79,0,0,1,13.14-4.53l.38-.09-.09.39a79.14,79.14,0,0,1-4.62,13.33h0l-.38.83-.43.92A80.52,80.52,0,0,1,71.41,49c-.13.21-.27.41-.42.62a69,69,0,0,1-5,6.56l-.43.5C64.67,57.71,63.69,58.76,62.67,59.78Z"/><ellipse class="cls-2" cx="54.16" cy="51.79" rx="39.42" ry="5.59" transform="translate(-20.76 53.47) rotate(-45)"/><path class="cls-3" d="M26.06,79.9C23.34,77.18,36.35,61.23,50,47.6a146.85,146.85,0,0,1,31.91-24,.34.34,0,0,1,.44.44A146.8,146.8,0,0,1,58.35,56C44.72,69.6,28.78,82.62,26.06,79.9ZM81.22,24.73A148.2,148.2,0,0,0,50.44,48.07C34.15,64.36,24.76,77.67,26.52,79.43S41.6,71.8,57.89,55.51A148.18,148.18,0,0,0,81.22,24.73Z"/><rect class="cls-3" x="75.35" y="23.27" width="13.29" height="1.55" transform="translate(7.03 65.05) rotate(-45.02)"/><circle class="cls-4" cx="87.35" cy="18.69" r="1.66" transform="translate(12.37 67.24) rotate(-45)"/><path class="cls-5" d="M36.52,69.44a3.62,3.62,0,1,1,5.12,0A3.62,3.62,0,0,1,36.52,69.44Zm4.33-4.33a2.51,2.51,0,1,0,0,3.55A2.51,2.51,0,0,0,40.85,65.1Z"/><circle class="cls-2" cx="39.08" cy="66.88" r="2.79" transform="translate(-35.84 47.21) rotate(-44.99)"/><circle class="cls-6" cx="40.23" cy="66.72" r="0.92" transform="translate(-35.4 47.99) rotate(-45)"/><path class="cls-5" d="M44.12,61.84a3.62,3.62,0,1,1,5.12,0A3.62,3.62,0,0,1,44.12,61.84Zm4.33-4.33a2.51,2.51,0,1,0,0,3.55A2.51,2.51,0,0,0,48.45,57.5Z"/><circle class="cls-2" cx="46.68" cy="59.28" r="2.79" transform="translate(-28.24 50.36) rotate(-44.99)"/><circle class="cls-6" cx="47.83" cy="59.13" r="0.92" transform="translate(-27.8 51.14) rotate(-45)"/><path class="cls-5" d="M51.71,54.24a3.62,3.62,0,1,1,5.12,0A3.63,3.63,0,0,1,51.71,54.24ZM56,49.91a2.51,2.51,0,1,0,0,3.55A2.51,2.51,0,0,0,56,49.91Z"/><circle class="cls-2" cx="54.28" cy="51.68" r="2.79" transform="translate(-20.65 53.51) rotate(-44.99)"/><circle class="cls-6" cx="55.43" cy="51.53" r="0.92" transform="translate(-20.2 54.25) rotate(-44.98)"/><path class="cls-5" d="M59.31,46.64a3.62,3.62,0,1,1,5.12,0A3.63,3.63,0,0,1,59.31,46.64Zm4.34-4.34a2.51,2.51,0,1,0,0,3.55A2.51,2.51,0,0,0,63.65,42.31Z"/><circle class="cls-2" cx="61.87" cy="44.08" r="2.79" transform="translate(-13.04 56.67) rotate(-45.01)"/><circle class="cls-6" cx="63.03" cy="43.93" r="0.92" transform="translate(-12.61 57.41) rotate(-44.98)"/><path class="cls-5" d="M66.91,39A3.62,3.62,0,1,1,72,39,3.63,3.63,0,0,1,66.91,39Zm4.33-4.34a2.51,2.51,0,1,0,0,3.55A2.51,2.51,0,0,0,71.25,34.71Z"/><circle class="cls-2" cx="69.47" cy="36.48" r="2.79" transform="translate(-5.44 59.82) rotate(-45.01)"/><circle class="cls-6" cx="70.62" cy="36.33" r="0.92" transform="translate(-5.01 60.55) rotate(-44.98)"/><path class="cls-3" d="M65.6,56.65,49.3,40.36l.5-.43L66,56.15Z"/><path class="cls-3" d="M50.38,55.53a29.33,29.33,0,0,1-6.62-9.77l-.48.5A29.94,29.94,0,0,0,49.91,56a29.9,29.9,0,0,0,9.79,6.66l.5-.48A29.36,29.36,0,0,1,50.38,55.53ZM71,49.59c.14-.21.28-.41.42-.62A32.33,32.33,0,0,0,57,34.53l-.62.41A31.82,31.82,0,0,1,71,49.59Z"/><path class="cls-3" d="M35.09,70.56c-2.42-2.42-3.52-5.85-3.44-9.83-.22.32-.43.64-.63,1A13.31,13.31,0,0,0,34.63,71c2.5,2.5,6,3.66,10.1,3.61l1-.67C41.42,74.22,37.67,73.14,35.09,70.56ZM82.55,23.41l-.38.09c.1.1.2.2.29.31Z"/><path class="cls-7" d="M32.51,82.87a2.08,2.08,0,0,1-1.18.59A2.1,2.1,0,0,1,29.71,83a14.41,14.41,0,0,1-3.44-2.67,13.88,13.88,0,0,1-2.69-3.5,2.11,2.11,0,0,1,1.73-3.31,2.18,2.18,0,0,1,.52.06,2.52,2.52,0,0,0,.37,1.07,15.5,15.5,0,0,0,2.54,3.2c1.76,1.76,3.54,2.94,4.3,2.91A2.11,2.11,0,0,1,32.51,82.87Z"/><path class="cls-3" d="M32.51,82.87a2.08,2.08,0,0,1-1.18.59,16.31,16.31,0,0,1-2.92-2.38,13.8,13.8,0,0,1-2.68-3.5A2.1,2.1,0,0,1,26,74.9a1.66,1.66,0,0,1,.24-.2,15.5,15.5,0,0,0,2.54,3.2c1.76,1.76,3.54,2.94,4.3,2.91A2.11,2.11,0,0,1,32.51,82.87Z"/><path class="cls-4" d="M28.73,80.82l0,0c-.77.78-3,1.82-3.75,1.07l-.08-.1c-.62-.83.31-3,1-3.72l3.6-3.75,0,0a2,2,0,0,1,2.74,0l.06.07a2,2,0,0,1,0,2.7Z"/><path class="cls-8" d="M28.73,80.82l0,0c-.77.78-3,1.82-3.75,1.07l-.08-.1,7.46-7.46a2,2,0,0,1,0,2.7Z"/><path class="cls-4" d="M22.57,76.49a1.06,1.06,0,0,1-.54-.1,1,1,0,0,1-.26-.19c-.89-.89-.59-3.55,0-4.66l2.83-5.77a2.42,2.42,0,0,1,3.24-1.1,2.46,2.46,0,0,1,.64.46,2.14,2.14,0,0,1,.37.48,2.39,2.39,0,0,1,.09,2.3l-2.84,5.77C25.55,74.72,23.81,76.43,22.57,76.49Z"/><path class="cls-8" d="M22.57,76.49a1,1,0,0,1-.39-.19l-.07-.07c-.92-.92,0-3.72.84-4.73l4-5a2.41,2.41,0,0,1,1.81-.89,2.39,2.39,0,0,1,.09,2.3l-2.84,5.77C25.55,74.72,23.81,76.43,22.57,76.49Z"/><path class="cls-4" d="M29.6,83.52a1.07,1.07,0,0,0,.1.54,1,1,0,0,0,.19.27c.89.89,3.55.59,4.66,0l5.77-2.84A2.42,2.42,0,0,0,41,77.66a2.17,2.17,0,0,0-.48-.37,2.4,2.4,0,0,0-2.3-.09L32.41,80C31.38,80.54,29.67,82.29,29.6,83.52Z"/><path class="cls-8" d="M29.6,83.52a1,1,0,0,0,.19.39l.07.07c.92.92,3.72,0,4.73-.84l5-4a2.42,2.42,0,0,0,.89-1.81,2.4,2.4,0,0,0-2.3-.09L32.41,80C31.38,80.54,29.67,82.29,29.6,83.52Z"/><path class="cls-8" d="M77.46,38a16.16,16.16,0,0,0-3.79-6,16.22,16.22,0,0,0-5.47-3.59L69,28a79,79,0,0,1,13.14-4.53l.38-.09a.43.43,0,0,0,0,.08l-.07.31a79.14,79.14,0,0,1-4.62,13.33h0Z"/><path class="cls-4" d="M82.53,23.49a88.25,88.25,0,0,0-10.62,7,15.94,15.94,0,0,0-3.71-2.07L69,28a79,79,0,0,1,13.14-4.53l.38-.09A.43.43,0,0,0,82.53,23.49Z"/><path class="cls-3" d="M42.77,62.88A16.76,16.76,0,0,1,38,52.26L37.4,53A17.07,17.07,0,0,0,53.28,68.32l.73-.61A16.88,16.88,0,0,1,42.77,62.88ZM77.84,37.13h0a16.87,16.87,0,0,0-3.71-5.62A16.69,16.69,0,0,0,69,28l-.82.37A16.1,16.1,0,0,1,77.46,38Z"/><path class="cls-8" d="M43,52.56l-11.6,11.6a.68.68,0,0,1-1,0,8.79,8.79,0,0,0-12.31,0,.6.6,0,0,1-.34.17.66.66,0,0,1-.62-.18h0a.68.68,0,0,1,0-1L28.71,51.72A10.26,10.26,0,0,1,43,51.59h0a.7.7,0,0,1,.2.48A.68.68,0,0,1,43,52.56Z"/><path class="cls-4" d="M42.72,52.86l-11.3,11.3a.68.68,0,0,1-1,0,8.79,8.79,0,0,0-12.31,0,.6.6,0,0,1-.34.17l11-11A10.25,10.25,0,0,1,42.72,52.86Z"/><path class="cls-8" d="M53.39,62.94,41.8,74.54a.69.69,0,0,0,0,1,8.79,8.79,0,0,1,0,12.31.6.6,0,0,0-.17.34.66.66,0,0,0,.18.63h0a.68.68,0,0,0,1,0L54.24,77.25A10.25,10.25,0,0,0,54.37,63h0a.71.71,0,0,0-.48-.2A.68.68,0,0,0,53.39,62.94Z"/><path class="cls-4" d="M53.1,63.24,41.8,74.54a.69.69,0,0,0,0,1,8.79,8.79,0,0,1,0,12.31.6.6,0,0,0-.17.34l11-11A10.25,10.25,0,0,0,53.1,63.24Z"/></svg>