<svg xmlns="http://www.w3.org/2000/svg" viewBox="0 0 106 106"><defs><style>.cls-1{isolation:isolate;}.cls-2{fill:#d53d33;}.cls-3{fill:#e54d42;}.cls-4{fill:#b5c5c6;}.cls-5{fill:#d5e5e6;}.cls-6{fill:#c52e25;}.cls-7{fill:#fff;}.cls-8{mix-blend-mode:multiply;}</style></defs><title>Cohetes</title><g class="cls-1"><g id="illustrations"><path class="cls-2" d="M45.47,74.94,31.05,60.52c1.59-1.59,3.18-3.12,4.76-4.57,3.23-3,6.4-5.67,9.45-8h0c.77-.61,1.55-1.19,2.31-1.75a78.61,78.61,0,0,1,8.22-5.4c.93-.52,1.83-1,2.68-1.39,4.42-2.1,7.72-2.6,9.23-1.09s1,4.81-1.09,9.23c-.4.85-.87,1.74-1.38,2.66a80.06,80.06,0,0,1-5.4,8.24c-.56.76-1.15,1.53-1.75,2.31-2.36,3-5.06,6.22-8,9.45C48.59,71.75,47.06,73.35,45.47,74.94Z"/><path class="cls-3" d="M41.55,71,35,64.44c1.59-1.59,3.16-3.13,4.71-4.62,2.11-2,4.16-4,6.14-5.79l1.35-1.22,1.41-1.27C52.4,48.12,55.89,45.22,58.8,43c.53-.41,1-.79,1.53-1.15s1-.74,1.5-1.06c3.16-2.17,5.26-3.12,5.88-2.5S67.37,41,65.2,44.16c-.32.47-.67,1-1.05,1.49L63,47.19,62,48.41c-1.28,1.63-2.75,3.4-4.37,5.31-1,1.18-2.1,2.41-3.23,3.69l-1.27,1.41L52,60.16c-1.82,2-3.75,4-5.79,6.14C44.69,67.85,43.14,69.43,41.55,71Z"/><path class="cls-4" d="M70.18,59.67,54.86,75,31,51.13,46.32,35.81c12.59-12.59,31.92-14.36,37.16-14.6h0c.85,0,1.32,0,1.32,0h0s0,0,0,0,0,.1,0,.18h0a66.62,66.62,0,0,1-1.55,12.35C81.54,41.73,77.88,52,70.18,59.67Z"/><circle class="cls-5" cx="55.98" cy="50.01" r="9.24" transform="translate(-18.96 54.23) rotate(-45)"/><path class="cls-6" d="M66.61,47.52a11,11,0,0,0-2.91-5.23,10.66,10.66,0,0,0-1.88-1.5,10.77,10.77,0,0,0-3.35-1.41,10.9,10.9,0,0,0-13.21,8.53h0A11.08,11.08,0,0,0,45.82,54a10.92,10.92,0,0,0,20.79-6.51Zm-16,7.84A7.56,7.56,0,0,1,58.8,43a7.54,7.54,0,0,1,4.2,4.2,7.56,7.56,0,0,1-12.36,8.17Z"/><circle class="cls-7" cx="58.81" cy="50.2" r="3.7" transform="translate(-18.27 56.29) rotate(-45)"/><circle class="cls-5" cx="71.89" cy="34.1" r="5.01" transform="translate(-3.06 60.82) rotate(-45)"/><path class="cls-6" d="M76.07,29.92a5.92,5.92,0,1,0,0,8.36A5.92,5.92,0,0,0,76.07,29.92ZM69,37a4.1,4.1,0,1,1,5.8,0A4.1,4.1,0,0,1,69,37Z"/><circle class="cls-7" cx="73.42" cy="34.21" r="2" transform="translate(-2.68 61.93) rotate(-45)"/><path class="cls-2" d="M33.63,56.25,25.88,48.5c8.76-8.75,17.58-14.1,19.71-12S42.88,46.66,34.87,55C34.46,55.42,34.06,55.83,33.63,56.25Z"/><path class="cls-3" d="M31.53,54.15,28,50.6c8.76-8.75,16.64-15,17.61-14.07s-4.73,8.12-12.83,16.36C32.36,53.31,31.95,53.73,31.53,54.15Z"/><path class="cls-2" d="M57.49,80.11c8.75-8.77,14.1-17.58,12-19.72s-11,3.22-19.72,12Z"/><path class="cls-3" d="M55.38,78c8.75-8.76,15-16.64,14.07-17.61S60.6,65.71,51.84,74.46Z"/><path class="cls-6" d="M84.84,21.17h0l-.07,0a91.36,91.36,0,0,0-10,5.07,30.25,30.25,0,0,1-2.53-3.54,69.69,69.69,0,0,1,11.31-1.54h0l1.31,0h0Z"/><path class="cls-3" d="M83.28,33.77c.15-.68.28-1.33.4-2,0-.22.09-.44.12-.66.11-.57.2-1.12.28-1.66.06-.38.12-.75.16-1.12.26-1.83.41-3.4.49-4.6,0-.12,0-.25,0-.37.07-1,.09-1.76.09-2.06a90.34,90.34,0,0,1-5.06,10A29.79,29.79,0,0,0,83.28,33.77Z"/><path class="cls-2" d="M74.71,26.29A34,34,0,0,0,77,28.83a34.93,34.93,0,0,0,2.79,2.5,90.34,90.34,0,0,0,5.06-10c0-.06,0-.09,0-.12h-.12A90.65,90.65,0,0,0,74.71,26.29Z"/><g class="cls-8"><path class="cls-5" d="M84.83,21.16,38.26,67.73l-7.21-7.21c1.59-1.59,3.18-3.12,4.76-4.57l-.95-1c-.4.42-.81.84-1.23,1.26L25.88,48.5c8.76-8.75,17.58-14.1,19.71-12l.73-.73c12.59-12.59,31.92-14.36,37.16-14.6h0C84.35,21.16,84.83,21.16,84.83,21.16Z"/></g></g></g></svg>