<svg id="illustrations" xmlns="http://www.w3.org/2000/svg" viewBox="0 0 106 106"><defs><style>.cls-1{fill:#d53d33;}.cls-2{fill:#c52e25;}.cls-3{fill:#ef893a;}.cls-4{fill:#f3aa43;}.cls-5{fill:#d5e5e6;}.cls-6{fill:#fff;}.cls-7{fill:#95a5a6;}.cls-8{fill:#b5c5c6;}.cls-9{fill:#a5b5b6;}</style></defs><title>Cohetes</title><path class="cls-1" d="M47.75,47.29l-11.6,11.6a.69.69,0,0,1-1,0,8.79,8.79,0,0,0-12.31,0,.6.6,0,0,1-.34.17.66.66,0,0,1-.62-.18h0a.68.68,0,0,1,0-1L33.45,46.44a10.25,10.25,0,0,1,14.3-.13h0a.7.7,0,0,1,.2.48A.68.68,0,0,1,47.75,47.29Z"/><path class="cls-2" d="M47.46,47.58l-11.3,11.3a.69.69,0,0,1-1,0,8.79,8.79,0,0,0-12.31,0,.6.6,0,0,1-.34.17l11-11A10.25,10.25,0,0,1,47.46,47.58Z"/><path class="cls-1" d="M58.13,57.66l-11.6,11.6a.68.68,0,0,0,0,1,8.79,8.79,0,0,1,0,12.31.61.61,0,0,0-.17.34.66.66,0,0,0,.18.63h0a.68.68,0,0,0,1,0L59,72a10.25,10.25,0,0,0,.13-14.3h0a.7.7,0,0,0-.48-.2A.69.69,0,0,0,58.13,57.66Z"/><path class="cls-2" d="M57.84,58l-11.3,11.3a.68.68,0,0,0,0,1,8.79,8.79,0,0,1,0,12.31.61.61,0,0,0-.17.34l11-11A10.25,10.25,0,0,0,57.84,58Z"/><path class="cls-3" d="M67.55,54.89c-11.21,11.2-22.8,19-30.1,20.7-2.82.68-5,.45-6.27-.82-4.56-4.56,4.35-20.85,19.88-36.38,9.21-9.21,20.3-14.5,27.8-17.26a69.41,69.41,0,0,1,8.45-2.59l.13,0a67.07,67.07,0,0,1-2.64,8.65C82,34.65,76.75,45.7,67.55,54.89Z"/><path class="cls-4" d="M67.55,54.89c-11.21,11.2-22.8,19-30.1,20.7-1.14-7.67,7.47-22.79,21.61-36.93A106.94,106.94,0,0,1,79.31,22.51a51.4,51.4,0,0,1,8-4l.13,0a67.07,67.07,0,0,1-2.64,8.65C82,34.65,76.75,45.7,67.55,54.89Z"/><path class="cls-2" d="M42,64a3.62,3.62,0,1,1,5.12,0A3.63,3.63,0,0,1,42,64Zm4.33-4.33a2.51,2.51,0,1,0,0,3.55A2.51,2.51,0,0,0,46.3,59.65Z"/><circle class="cls-5" cx="44.53" cy="61.42" r="2.79" transform="translate(-30.39 49.48) rotate(-45)"/><circle class="cls-6" cx="45.68" cy="61.27" r="0.92" transform="translate(-29.94 50.25) rotate(-45)"/><path class="cls-2" d="M72.37,33.58a3.62,3.62,0,1,1,5.12,0A3.63,3.63,0,0,1,72.37,33.58Zm4.33-4.33a2.51,2.51,0,1,0,0,3.55A2.51,2.51,0,0,0,76.7,29.25Z"/><circle class="cls-5" cx="74.93" cy="31.02" r="2.79" transform="translate(0.01 62.07) rotate(-45)"/><circle class="cls-6" cx="76.08" cy="30.87" r="0.92" transform="translate(0.46 62.86) rotate(-45.02)"/><path class="cls-2" d="M48.41,57.54a4.72,4.72,0,1,1,6.67,0A4.72,4.72,0,0,1,48.41,57.54Zm5.65-5.65a3.27,3.27,0,1,0,0,4.62A3.27,3.27,0,0,0,54.06,51.89Z"/><circle class="cls-5" cx="51.75" cy="54.2" r="3.63" transform="translate(-23.17 52.47) rotate(-45)"/><circle class="cls-6" cx="53.24" cy="54.01" r="1.2" transform="translate(-22.59 53.44) rotate(-44.98)"/><path class="cls-2" d="M56.4,49.55a4.72,4.72,0,1,1,6.67,0A4.72,4.72,0,0,1,56.4,49.55ZM62,43.91a3.27,3.27,0,1,0,0,4.62A3.27,3.27,0,0,0,62,43.91Z"/><circle class="cls-5" cx="59.73" cy="46.22" r="3.63" transform="translate(-15.18 55.77) rotate(-45)"/><circle class="cls-6" cx="61.23" cy="46.02" r="1.2" transform="translate(-14.61 56.76) rotate(-44.98)"/><path class="cls-2" d="M64.39,41.56a4.72,4.72,0,1,1,6.67,0A4.72,4.72,0,0,1,64.39,41.56ZM70,35.92a3.27,3.27,0,1,0,0,4.62A3.27,3.27,0,0,0,70,35.92Z"/><circle class="cls-5" cx="67.72" cy="38.23" r="3.63" transform="translate(-7.2 59.08) rotate(-45)"/><circle class="cls-6" cx="69.22" cy="38.03" r="1.2" transform="translate(-6.61 60.11) rotate(-45.02)"/><rect class="cls-7" x="29.96" y="62.4" width="8.84" height="18.33" rx="3.27" ry="3.27" transform="translate(-40.54 45.27) rotate(-45)"/><path class="cls-8" d="M34.55,65.57h2.29a3.27,3.27,0,0,1,3.27,3.27v8.07a3.27,3.27,0,0,1-3.27,3.27H34.55a3.27,3.27,0,0,1-3.27-3.27V68.85A3.28,3.28,0,0,1,34.55,65.57Z" transform="translate(-41.08 46.59) rotate(-45)"/><rect class="cls-9" x="30.1" y="66.06" width="8.84" height="11.3" rx="3.27" ry="3.27" transform="translate(-40.59 45.42) rotate(-45)"/><path class="cls-1" d="M84.8,27.16A8.13,8.13,0,0,1,81,25a8.31,8.31,0,0,1-1.72-2.5l-.05-.14a7.34,7.34,0,0,1-.4-1.24,69.41,69.41,0,0,1,8.45-2.59l.13,0h0A67.79,67.79,0,0,1,84.8,27.16Z"/><path class="cls-2" d="M87.44,18.52h0a40.93,40.93,0,0,0-8.18,3.84,7.34,7.34,0,0,1-.4-1.24,69.41,69.41,0,0,1,8.45-2.59l.13,0Z"/></svg>