<svg id="illustrations" xmlns="http://www.w3.org/2000/svg" viewBox="0 0 106 106"><defs><style>.cls-1{fill:#3ec1e6;}.cls-2{fill:#34a3c2;}.cls-3{fill:#556566;}.cls-4{fill:#f3aa43;}.cls-5{fill:#f8be49;}.cls-6{fill:#f7b23f;}.cls-7{fill:#42cdf5;}.cls-8{fill:#d5e5e6;}.cls-9{fill:#fff;}.cls-10{fill:#657576;}.cls-11{fill:#95a5a6;}.cls-12{fill:#859596;}</style></defs><title>Cohetes</title><path class="cls-1" d="M54.88,31.88c-9.44,7.66-20,2.55-20,2.55L33.46,53.3S64.32,24.22,54.88,31.88Z"/><path class="cls-2" d="M54.83,32.89c-9.44,7.66-20,2.55-20,2.55L33.4,54.31S64.26,25.23,54.83,32.89Z"/><path class="cls-1" d="M74.24,51.23c-7.66,9.44-2.55,20-2.55,20L52.81,72.65S81.89,41.79,74.24,51.23Z"/><path class="cls-2" d="M73.23,51.29c-7.66,9.44-2.55,20-2.55,20L51.81,72.71S80.88,41.85,73.23,51.29Z"/><path class="cls-3" d="M57.91,68.79a2.61,2.61,0,0,1-3.69,0L37.39,52a2.61,2.61,0,0,1,0-3.69h0a2.61,2.61,0,0,1,3.69,0L57.91,65.1a2.61,2.61,0,0,1,0,3.69Z"/><path class="cls-4" d="M74.73,27.13a26.18,26.18,0,0,1-2.18-3c-6.86,1.49-15.62,4.64-22.23,11.24L37.14,48.51,43,54.38,56.2,41.2A90.55,90.55,0,0,1,74.73,27.13Z"/><path class="cls-5" d="M71.94,54.71l.47-.53c.36-.41.71-.83,1-1.26l.44-.57c.17-.22.33-.44.49-.66l.44-.62.43-.63.42-.64.42-.68.36-.61.21-.35.34-.6c.45-.8.86-1.62,1.24-2.43l.25-.56c.12-.24.23-.49.33-.73s.17-.39.25-.59q.43-1,.8-2l.41-1.15.25-.75c.07-.21.14-.43.21-.65.2-.64.39-1.27.56-1.9.11-.38.2-.76.3-1.13.18-.71.34-1.4.49-2.08a26.21,26.21,0,0,1-3-2.1A90.55,90.55,0,0,1,65,50L51.83,63.2,57.66,69,70.85,55.85C71.22,55.48,71.59,55.09,71.94,54.71Z"/><path class="cls-6" d="M79.1,31.46a30,30,0,0,1-2.4-2.15c-.71-.71-1.37-1.44-2-2.18A90.55,90.55,0,0,0,56.2,41.2L43,54.38l8.82,8.82L65,50A90.55,90.55,0,0,0,79.1,31.46Z"/><path class="cls-2" d="M83.35,22.76l.09,0a55.92,55.92,0,0,0-10.89,1.35,26.18,26.18,0,0,0,2.18,3A77.57,77.57,0,0,1,83.35,22.76Z"/><path class="cls-7" d="M82.1,33.57c.13-.58.24-1.14.34-1.7,0-.19.08-.38.1-.57.09-.49.17-1,.24-1.43s.1-.65.14-1c.22-1.58.35-2.92.42-4,0-.11,0-.21,0-.32.06-.9.08-1.52.08-1.78a77.7,77.7,0,0,1-4.35,8.6A26.21,26.21,0,0,0,82.1,33.57Z"/><path class="cls-8" d="M83.45,22.76v0s0,0,0,0h0l-.09,0Z"/><path class="cls-8" d="M83.49,22.78h0s0,.05,0,.1Z"/><path class="cls-1" d="M74.73,27.13c.61.74,1.26,1.47,2,2.18a30,30,0,0,0,2.4,2.15,77.7,77.7,0,0,0,4.35-8.6s0-.08,0-.1h-.1A77.57,77.57,0,0,0,74.73,27.13Z"/><path class="cls-3" d="M63.92,42.43a6.76,6.76,0,1,1,9.56,0A6.77,6.77,0,0,1,63.92,42.43ZM72,34.34A4.68,4.68,0,1,0,72,41,4.69,4.69,0,0,0,72,34.34Z"/><circle class="cls-8" cx="68.7" cy="37.65" r="5.2" transform="translate(-6.5 59.61) rotate(-45)"/><circle class="cls-9" cx="70.85" cy="37.37" r="1.72" transform="translate(-5.67 61.04) rotate(-45)"/><path class="cls-10" d="M51.64,69.58a2.39,2.39,0,0,1-3.38,0L36.7,58a2.39,2.39,0,1,1,3.38-3.38L51.64,66.2A2.39,2.39,0,0,1,51.64,69.58Z"/><path class="cls-11" d="M51.64,69.58a2.39,2.39,0,0,1-3.38,0l-7.94-7.94a2.39,2.39,0,1,1,3.38-3.38l7.94,7.94A2.39,2.39,0,0,1,51.64,69.58Z"/><path class="cls-12" d="M48,66a2.39,2.39,0,0,1-3.38,0l-4.32-4.32a2.39,2.39,0,1,1,3.38-3.38L48,62.58A2.39,2.39,0,0,1,48,66Z"/><polygon class="cls-1" points="58.41 53.17 36.55 69.34 52.72 47.48 60.61 45.29 58.41 53.17"/><polygon class="cls-2" points="60.61 45.29 36.55 69.34 52.72 47.48 60.61 45.29"/></svg>