<svg id="illustrations" xmlns="http://www.w3.org/2000/svg" viewBox="0 0 106 106"><defs><style>.cls-1{fill:#f8be49;}.cls-2{fill:#f3aa43;}.cls-3{fill:#b5c5c6;}.cls-4{fill:#c5d5d6;}.cls-5{fill:#657576;}.cls-6{fill:#d5e5e6;}.cls-7{fill:#fff;}.cls-8{fill:#c52e25;}.cls-9{fill:#d53d33;}</style></defs><title>Cohetes</title><path class="cls-1" d="M51.18,68.89h0l3.39-.25,2.67-.2,3.83-.29L62.78,68h0a15.81,15.81,0,0,0,1.05-1.95,5.44,5.44,0,0,0,.43-1.42c-.06-.31-.11-.64-.15-1a13.9,13.9,0,0,1,3-10.73c1.78-2.19.89-1.46-1.17.58C61.53,57.93,51.57,68.48,51.18,68.89Z"/><path class="cls-2" d="M50.42,68.95l.76-.06,3.39-.25,2.67-.2,3.83-.29L62.79,68a15.81,15.81,0,0,0,1.05-1.95c-.09-.35-.19-.74-.28-1.17s-.15-.81-.2-1.26c0-.12,0-.24,0-.36A13.79,13.79,0,0,1,66,53.51c.13-.18.27-.36.41-.53C72.1,45.93,50.42,68.95,50.42,68.95Z"/><path class="cls-3" d="M52.7,70.42l4.46,4.46A41.21,41.21,0,0,0,62.78,68h0a15.81,15.81,0,0,0,1.05-1.95,5.44,5.44,0,0,0,.43-1.42,1.37,1.37,0,0,0-.15-1l-.07-.09,0,0,0,0a1,1,0,0,0-.67-.24c-1.62-.08-5.06,2-8.75,5.36h0C53.94,69.2,53.32,69.79,52.7,70.42Z"/><path class="cls-4" d="M53.91,71.63c5-5,9.56-8.65,10.12-8.09S61,68.63,55.94,73.66Z"/><path class="cls-1" d="M36.61,54.32h0v-.13l.24-3.25.2-2.67.29-3.83.13-1.72h0a15.62,15.62,0,0,1,1.95-1.05,5.52,5.52,0,0,1,1.42-.43l1,.15A13.89,13.89,0,0,0,52,38.76l.54-.41c2.19-1.78,1.46-.9-.58,1.17C47.58,44,37,53.93,36.61,54.32Z"/><path class="cls-2" d="M36.55,55.08l.06-.76v-.13l.24-3.25.2-2.67.29-3.83.13-1.72a15.62,15.62,0,0,1,1.95-1.05c.35.1.74.19,1.17.28h0c.39.08.81.15,1.26.2l.36,0a13.89,13.89,0,0,0,7.87-1.47A14.14,14.14,0,0,0,52,39.52c.18-.13.36-.27.54-.41C59.57,33.39,36.55,55.08,36.55,55.08Z"/><path class="cls-2" d="M78.08,42.81,43.16,77.74l-1.44-.31-2.38-.51-3-.65-2.73-.57-2.5-.54-.31-.07-.47-2.21-.59-2.76L29,67.05l-.51-2.4-.42-2L63,27.77l.59-.57a39.67,39.67,0,0,1,4.76-3.87,47.24,47.24,0,0,1,8-4.42c1.24-.53,2.44-1,3.59-1.4a52.38,52.38,0,0,1,11-2.64s0,.15-.05.43a53.61,53.61,0,0,1-2.58,10.52C88,27,87.48,28.2,86.93,29.45a46.86,46.86,0,0,1-4.41,8,39.55,39.55,0,0,1-3.86,4.76Z"/><path class="cls-3" d="M35.08,52.81l-4.45-4.45a41.08,41.08,0,0,1,6.84-5.63h0a15.62,15.62,0,0,1,1.95-1.05,5.52,5.52,0,0,1,1.42-.43,1.38,1.38,0,0,1,1,.15l.08.07,0,0,0,0a1,1,0,0,1,.25.67c.08,1.62-2,5.07-5.36,8.76h0C36.29,51.56,35.7,52.19,35.08,52.81Z"/><path class="cls-4" d="M33.87,51.6l-2-2c2-2,3.89-3.75,5.5-5.12h0a31.12,31.12,0,0,1,3.25-2.49h0c.67-.42,1.13-.61,1.31-.49l0,0,0,0c.07.11,0,.33-.11.64a33.14,33.14,0,0,1-4.8,6.12h0C36.08,49.33,35,50.45,33.87,51.6Z"/><path class="cls-5" d="M55.87,50.36l-.19-.19A8.61,8.61,0,0,0,43.51,62.34l.19.18A8.61,8.61,0,0,0,55.87,50.36Zm-10.3,10.3-.19-.19A6,6,0,0,1,53.81,52l.19.2a6,6,0,0,1-8.43,8.42Z"/><circle class="cls-6" cx="49.59" cy="56.26" r="6.62" transform="translate(-25.25 51.54) rotate(-44.99)"/><circle class="cls-7" cx="52.33" cy="55.9" r="2.19" transform="translate(-24.2 53.38) rotate(-45)"/><path class="cls-5" d="M69.27,37a6.67,6.67,0,1,0,0,9.43A6.68,6.68,0,0,0,69.27,37Zm-8,8a4.62,4.62,0,1,1,6.54,0A4.63,4.63,0,0,1,61.29,44.94Z"/><circle class="cls-6" cx="64.55" cy="41.68" r="5.13" transform="translate(-10.56 57.86) rotate(-45.01)"/><circle class="cls-7" cx="66.68" cy="41.4" r="1.7" transform="translate(-9.74 59.29) rotate(-45.01)"/><path class="cls-8" d="M78.66,42.22A35.1,35.1,0,0,1,70.2,36L70,35.84a35.14,35.14,0,0,1-6.38-8.65,39.67,39.67,0,0,1,4.76-3.87,47.24,47.24,0,0,1,8-4.42c1.24-.53,2.44-1,3.59-1.4a52.38,52.38,0,0,1,11-2.64s0,.15-.05.43a53.61,53.61,0,0,1-2.58,10.52C88,27,87.48,28.2,86.93,29.45a46.86,46.86,0,0,1-4.41,8A39.55,39.55,0,0,1,78.66,42.22Z"/><path class="cls-9" d="M82.52,37.46A25.69,25.69,0,0,1,74.26,32l-.19-.19a25.65,25.65,0,0,1-5.68-8.45,47.24,47.24,0,0,1,8-4.42c1.24-.53,2.44-1,3.59-1.4a52.38,52.38,0,0,1,11-2.64s0,.15-.05.43a53.61,53.61,0,0,1-2.58,10.52C88,27,87.48,28.2,86.93,29.45A46.86,46.86,0,0,1,82.52,37.46Z"/><path class="cls-8" d="M86.93,29.45a26.2,26.2,0,0,1-5.82-4.34l-.19-.19a26.12,26.12,0,0,1-4.52-6c1.24-.53,2.44-1,3.59-1.4a52.38,52.38,0,0,1,11-2.64s0,.15-.05.43a53.61,53.61,0,0,1-2.58,10.52C88,27,87.48,28.2,86.93,29.45Z"/><path class="cls-9" d="M50,70.9l-6.84,6.84-1.44-.31-2.38-.51-3-.65-2.73-.57-2.5-.54-.31-.07-.47-2.21-.59-2.76L29,67.05l-.51-2.4-.42-2L35,55.85a42.77,42.77,0,0,0,6.62,8.42l.19.19A42.17,42.17,0,0,0,50,70.9Z"/><path class="cls-3" d="M24.21,72.46l-5.72-5.72C24.86,60.38,31.26,56.46,33,57.84l.08.07c1.13,1.13-.57,4.78-4,9.14A62.53,62.53,0,0,1,24.21,72.46Z"/><path class="cls-4" d="M22.66,70.9,20,68.29C26.28,62.06,31.92,57.52,33,57.86l.09.05c.47.47-1.37,3.14-4.51,6.74C26.88,66.54,24.88,68.69,22.66,70.9Z"/><path class="cls-3" d="M28.49,85.3l-7.57-7.57a78.17,78.17,0,0,1,8.77-7.61c5-3.66,9-5.39,10.43-4.11l0,0,0,0c1.25,1.37-.39,5.31-3.92,10.17A77.47,77.47,0,0,1,28.49,85.3Z"/><path class="cls-4" d="M26.44,83.25,23,79.79c2.56-2.56,5-4.91,7.3-6.9,5.14-4.58,9-7.38,9.84-6.87l0,0,0,0c.49.78-2.2,4.58-6.65,9.6C31.51,78,29.09,80.59,26.44,83.25Z"/><path class="cls-3" d="M39.41,87.66c6.45-6.47,10.4-13,8.83-14.55s-8.08,2.37-14.55,8.83Z"/><path class="cls-4" d="M37.86,86.1c6.46-6.46,11.1-12.27,10.38-13s-6.53,3.93-13,10.38Z"/></svg>