<svg id="illustrations" xmlns="http://www.w3.org/2000/svg" viewBox="0 0 106 106"><defs><style>.cls-1{fill:#95a5a6;}.cls-2{fill:#b5c5c6;}.cls-3{fill:#a5b5b6;}.cls-4{fill:#d53d33;}.cls-5{fill:#c52e25;}.cls-6{fill:#657576;}.cls-7{fill:#d5e5e6;}.cls-8{fill:#fff;}.cls-9{fill:#f7b23f;}.cls-10{fill:#f3aa43;}</style></defs><title>Cohetes</title><rect class="cls-1" x="26.16" y="68.7" width="7.37" height="15.28" rx="2.73" ry="2.73" transform="translate(-45.23 43.45) rotate(-44.99)"/><rect class="cls-2" x="27.25" y="71.34" width="7.37" height="12.18" rx="2.73" ry="2.73" transform="translate(-45.68 44.54) rotate(-44.99)"/><rect class="cls-3" x="26.28" y="71.74" width="7.36" height="9.42" rx="2.73" ry="2.73" transform="translate(-45.28 43.58) rotate(-45)"/><path class="cls-4" d="M76.43,44.35,41.51,79.28l0,0a3.3,3.3,0,0,1-4.27-.33L26.82,68.54a3.3,3.3,0,0,1-.33-4.27l0,0L61.39,29.31l.45-.44c11.09-10.71,27-12.41,27.49-12.46h0c0,.5-1.74,16.33-12.39,27.42Z"/><path class="cls-5" d="M72,39.4,36.8,74.57h0c-1.18,1-2.4,1.54-2.84,1.11l-3.88-3.88c-.44-.44.06-1.65,1.11-2.84h0L66.34,33.76a109.12,109.12,0,0,1,23-17.36h0A109.51,109.51,0,0,1,72,39.4Z"/><path class="cls-6" d="M38.46,67.27a3.58,3.58,0,1,1,5.06,0A3.58,3.58,0,0,1,38.46,67.27ZM42.75,63a2.48,2.48,0,1,0,0,3.51A2.48,2.48,0,0,0,42.75,63Z"/><circle class="cls-7" cx="41" cy="64.74" r="2.76" transform="translate(-33.77 47.96) rotate(-45.01)"/><circle class="cls-8" cx="42.13" cy="64.59" r="0.91" transform="translate(-33.33 48.69) rotate(-44.99)"/><path class="cls-6" d="M45.89,59.85a3.58,3.58,0,1,1,5.06,0A3.59,3.59,0,0,1,45.89,59.85Zm4.29-4.29a2.48,2.48,0,1,0,0,3.51A2.48,2.48,0,0,0,50.17,55.56Z"/><circle class="cls-7" cx="48.42" cy="57.31" r="2.75" transform="translate(-26.34 51.02) rotate(-44.99)"/><circle class="cls-8" cx="49.56" cy="57.16" r="0.91" transform="translate(-25.9 51.77) rotate(-44.99)"/><path class="cls-6" d="M53.31,52.42a3.58,3.58,0,1,1,5.06,0A3.58,3.58,0,0,1,53.31,52.42Zm4.29-4.28a2.48,2.48,0,1,0,0,3.51A2.48,2.48,0,0,0,57.6,48.14Z"/><circle class="cls-7" cx="55.85" cy="49.89" r="2.75" transform="translate(-18.92 54.11) rotate(-45.01)"/><circle class="cls-8" cx="56.98" cy="49.74" r="0.91" transform="translate(-18.48 54.88) rotate(-45.01)"/><path class="cls-6" d="M60.74,45a3.58,3.58,0,1,1,5.06,0A3.58,3.58,0,0,1,60.74,45ZM65,40.71a2.48,2.48,0,1,0,0,3.51A2.48,2.48,0,0,0,65,40.71Z"/><circle class="cls-7" cx="63.27" cy="42.46" r="2.75" transform="translate(-11.5 57.17) rotate(-44.99)"/><circle class="cls-8" cx="64.41" cy="42.31" r="0.91" transform="translate(-11.06 57.91) rotate(-44.98)"/><path class="cls-3" d="M45.08,50.64,33.89,61.83a.66.66,0,0,1-.92,0,8.49,8.49,0,0,0-11.88,0,.58.58,0,0,1-.33.17.64.64,0,0,1-.6-.17h0a.66.66,0,0,1,0-.93L31.28,49.82a9.89,9.89,0,0,1,13.79-.13h0a.67.67,0,0,1,.19.46A.66.66,0,0,1,45.08,50.64Z"/><path class="cls-1" d="M44.8,50.93,33.89,61.83a.66.66,0,0,1-.92,0,8.49,8.49,0,0,0-11.88,0,.58.58,0,0,1-.33.17L31.4,51.41A9.89,9.89,0,0,1,44.8,50.93Z"/><path class="cls-3" d="M55.1,60.65,43.91,71.84a.66.66,0,0,0,0,.92,8.49,8.49,0,0,1,0,11.88.58.58,0,0,0-.17.33.64.64,0,0,0,.17.6h0a.66.66,0,0,0,.93,0L55.91,74.46A9.89,9.89,0,0,0,56,60.66h0a.68.68,0,0,0-.46-.19A.66.66,0,0,0,55.1,60.65Z"/><path class="cls-1" d="M54.81,60.94,43.91,71.84a.66.66,0,0,0,0,.92,8.49,8.49,0,0,1,0,11.88.58.58,0,0,0-.17.33L54.33,74.33A9.89,9.89,0,0,0,54.81,60.94Z"/><path class="cls-3" d="M59.6,35.37l-7.08,7.08a.42.42,0,0,1-.58,0,5.37,5.37,0,0,0-7.51,0,.37.37,0,0,1-.21.11.4.4,0,0,1-.38-.11h0a.41.41,0,0,1,0-.59l7-7a6.26,6.26,0,0,1,8.72-.08h0a.42.42,0,0,1,0,.59Z"/><path class="cls-1" d="M59.42,35.55l-6.9,6.9a.42.42,0,0,1-.58,0,5.37,5.37,0,0,0-7.51,0,.37.37,0,0,1-.21.11l6.73-6.73A6.26,6.26,0,0,1,59.42,35.55Z"/><path class="cls-3" d="M70.22,46l-7.08,7.08a.42.42,0,0,0,0,.58,5.37,5.37,0,0,1,0,7.51.37.37,0,0,0-.11.21.4.4,0,0,0,.11.38h0a.41.41,0,0,0,.59,0l7-7A6.26,6.26,0,0,0,70.82,46h0a.42.42,0,0,0-.29-.12A.42.42,0,0,0,70.22,46Z"/><path class="cls-1" d="M70,46.17l-6.9,6.9a.42.42,0,0,0,0,.58,5.37,5.37,0,0,1,0,7.51.37.37,0,0,0-.11.21l6.73-6.73A6.26,6.26,0,0,0,70,46.17Z"/><path class="cls-9" d="M76.95,43.83a13.53,13.53,0,0,1-2.54-2L63.61,31a13.8,13.8,0,0,1-1.77-2.17c11.09-10.71,27-12.41,27.49-12.46h0C89.29,16.91,87.59,32.74,76.95,43.83Z"/><path class="cls-10" d="M72.36,39.24a2.34,2.34,0,0,1-1.15-.61L67,34.42a2.3,2.3,0,0,1-.57-1,105.09,105.09,0,0,1,22.9-17h0A105.07,105.07,0,0,1,72.36,39.24Z"/></svg>