<svg xmlns="http://www.w3.org/2000/svg" viewBox="0 0 106 106"><defs><style>.cls-1{isolation:isolate;}.cls-2{fill:#a5b5b6;}.cls-3{fill:#95a5a6;}.cls-4{fill:#f7b23f;}.cls-5{fill:#c52e25;}.cls-6{fill:#758586;}.cls-7{fill:#859596;}.cls-8{fill:#068db3;}.cls-9{fill:#3ec1e6;}.cls-10{fill:#42cdf5;}.cls-11,.cls-12{fill:#34a3c2;}.cls-11{mix-blend-mode:multiply;}.cls-13{fill:#079dc7;}.cls-14{fill:#556566;}.cls-15{fill:#d5e5e6;}.cls-16{fill:#fff;}.cls-17{fill:#c5d5d6;}</style></defs><title>Cohetes</title><g class="cls-1"><g id="illustrations"><path class="cls-2" d="M46,50.09l-16,16a1,1,0,0,1-1.33,0,12.13,12.13,0,0,0-17,.05.83.83,0,0,1-.47.24.91.91,0,0,1-.86-.25h0a.94.94,0,0,1,0-1.33l15.89-15.9A14.15,14.15,0,0,1,46,48.74h0a1,1,0,0,1,.27.66A1,1,0,0,1,46,50.09Z"/><path class="cls-3" d="M45.63,50.5,30,66.09a1,1,0,0,1-1.33,0,12.13,12.13,0,0,0-17,.05.83.83,0,0,1-.47.24L26.48,51.18A14.15,14.15,0,0,1,45.63,50.5Z"/><path class="cls-2" d="M55.17,60.7l-16,16a1,1,0,0,0,0,1.32,12.13,12.13,0,0,1-.05,17,.81.81,0,0,0-.24.46.9.9,0,0,0,.25.86h0a.94.94,0,0,0,1.33,0l15.89-15.9a14.14,14.14,0,0,0,.18-19.72v0a1,1,0,0,0-.66-.27A.94.94,0,0,0,55.17,60.7Z"/><path class="cls-3" d="M54.77,61.11,39.17,76.7a1,1,0,0,0,0,1.32,12.13,12.13,0,0,1-.05,17,.81.81,0,0,0-.24.46L54.08,80.26A14.15,14.15,0,0,0,54.77,61.11Z"/><rect class="cls-4" x="82.29" y="15.89" width="14" height="1.64" transform="translate(14.38 68.1) rotate(-45.05)"/><circle class="cls-5" cx="94.93" cy="11.07" r="1.75" transform="translate(19.97 70.35) rotate(-44.99)"/><path class="cls-6" d="M30.31,87.47a1.94,1.94,0,0,1-2.74,0l-9-9a1.94,1.94,0,0,1,0-2.74l6.23-4a1.94,1.94,0,0,1,2.74,0l6.85,6.85a1.91,1.91,0,0,1,.54,1.07,1.93,1.93,0,0,1-.54,1.68Z"/><rect class="cls-7" x="21.43" y="75.99" width="10.76" height="6.21" transform="translate(-48.08 42.12) rotate(-45)"/><path class="cls-8" d="M39.85,81.19a2.73,2.73,0,0,1-3.86,0L24.81,70a2.73,2.73,0,0,1,0-3.86l.45-.45a2.73,2.73,0,0,1,3.86,0L40.3,76.89a2.73,2.73,0,0,1,0,3.86Z"/><path class="cls-9" d="M66,34.48l.39-.37.95-.89.38-.35L69,31.75l.33-.29.94-.82.44-.38.94-.79.3-.25,1.26-1,.14-.11C75,26.73,76.56,25.52,78,24.44l.2-.14a14.5,14.5,0,0,1-1.83-3.4c-1,.38-2.14.81-3.24,1.29A42.94,42.94,0,0,0,60,31L25.06,65.9l4.76,4.76L64.74,35.73Z"/><path class="cls-9" d="M73.31,28.06l-.14.11Z"/><path class="cls-9" d="M66.4,34.11l-.39.37Z"/><path class="cls-9" d="M67.73,32.87l-.38.35Z"/><path class="cls-9" d="M83.61,33.28c.58-1.3,1.09-2.57,1.53-3.79a14.58,14.58,0,0,1-3.41-1.77A111.25,111.25,0,0,1,70.27,41.26L35.34,76.19l4.76,4.76L75,46A42.63,42.63,0,0,0,83.61,33.28Z"/><path class="cls-9" d="M78,24.44l.2-.14h0Z"/><path class="cls-9" d="M71.91,29.21l-.3.25Z"/><path class="cls-9" d="M69.28,31.46l-.33.29Z"/><path class="cls-9" d="M70.67,30.25l-.44.38Z"/><path class="cls-10" d="M67.35,33.22l-.95.89Z"/><path class="cls-10" d="M71.61,29.46l-.94.79Z"/><path class="cls-10" d="M69,31.75l-1.23,1.12Z"/><path class="cls-10" d="M66,34.48l-1.28,1.25Z"/><path class="cls-10" d="M70.22,30.64l-.94.82Z"/><path class="cls-10" d="M75.88,26.06c.75-.57,1.47-1.1,2.17-1.61-1.49,1.08-3.08,2.29-4.74,3.62Q74.62,27,75.88,26.06Z"/><path class="cls-10" d="M73.16,28.18l-1.26,1Z"/><path class="cls-10" d="M81.72,27.72a14.76,14.76,0,0,1-2-1.64,15,15,0,0,1-1.51-1.78l-.2.14c-.7.51-1.42,1-2.17,1.61s-1.7,1.3-2.57,2l-.14.11-1.26,1-.3.25-.94.79-.44.38-.94.82-.33.29-1.23,1.12-.38.35-.95.89-.39.37-1.28,1.25L29.81,70.66l5.53,5.53L70.27,41.26A111.25,111.25,0,0,0,81.72,27.72Z"/><path class="cls-9" d="M78.52,24.1l.36-.26.57-.4.3-.21.59-.41.12-.09q1.08-.74,2-1.37l.2-.13.51-.33.23-.15.46-.3.22-.13.44-.28.17-.11.44-.27.08,0,1.28-.77.08,0,.29-.17.1-.06.24-.13.08,0,.2-.11,0,0,.16-.09h0l.18-.1a52.2,52.2,0,0,0-11.5,2.83,14.5,14.5,0,0,0,1.83,3.4Z"/><path class="cls-8" d="M78.52,24.1l.36-.26.57-.4.3-.21.59-.41.12-.09q1.08-.74,2-1.37l.2-.13.51-.33.23-.15.46-.3.22-.13.44-.28.17-.11.44-.27.08,0,1.28-.77.08,0,.29-.17.1-.06.24-.13.08,0,.2-.11,0,0,.16-.09h0l.18-.1a52.2,52.2,0,0,0-11.5,2.83,14.5,14.5,0,0,0,1.83,3.4Z"/><path class="cls-9" d="M78.24,24.3h0l.28-.2Z"/><path class="cls-11" d="M78.24,24.3h0l.28-.2Z"/><path class="cls-9" d="M80.47,22.73q1.08-.74,2-1.37Q81.55,22,80.47,22.73Z"/><path class="cls-11" d="M80.47,22.73q1.08-.74,2-1.37Q81.55,22,80.47,22.73Z"/><path class="cls-9" d="M79.76,23.23l.59-.41Z"/><path class="cls-11" d="M79.76,23.23l.59-.41Z"/><path class="cls-9" d="M78.88,23.84l.57-.4Z"/><path class="cls-11" d="M78.88,23.84l.57-.4Z"/><path class="cls-9" d="M82.71,21.23l.51-.33Z"/><path class="cls-11" d="M82.71,21.23l.51-.33Z"/><path class="cls-9" d="M83.45,20.76l.46-.3Z"/><path class="cls-11" d="M83.45,20.76l.46-.3Z"/><path class="cls-9" d="M87.57,18.27l.16-.09Z"/><path class="cls-11" d="M87.57,18.27l.16-.09Z"/><path class="cls-9" d="M85.13,29.49a52.59,52.59,0,0,0,2.8-11.41,97,97,0,0,1-6.21,9.64A14.58,14.58,0,0,0,85.13,29.49Z"/><path class="cls-12" d="M85.13,29.49a52.59,52.59,0,0,0,2.8-11.41,97,97,0,0,1-6.21,9.64A14.58,14.58,0,0,0,85.13,29.49Z"/><path class="cls-9" d="M87.92,18.07l-.18.1Z"/><path class="cls-11" d="M87.92,18.07l-.18.1Z"/><path class="cls-9" d="M87.32,18.41l.2-.11Z"/><path class="cls-11" d="M87.32,18.41l.2-.11Z"/><path class="cls-9" d="M85.26,19.62l1.28-.77Z"/><path class="cls-11" d="M85.26,19.62l1.28-.77Z"/><path class="cls-9" d="M84.74,19.94l.44-.27Z"/><path class="cls-11" d="M84.74,19.94l.44-.27Z"/><path class="cls-9" d="M87,18.59l.24-.13Z"/><path class="cls-11" d="M87,18.59l.24-.13Z"/><path class="cls-9" d="M84.13,20.33l.44-.28Z"/><path class="cls-11" d="M84.13,20.33l.44-.28Z"/><path class="cls-9" d="M86.61,18.81l.29-.17Z"/><path class="cls-11" d="M86.61,18.81l.29-.17Z"/><path class="cls-10" d="M79.46,23.44l.3-.21Z"/><path class="cls-11" d="M79.46,23.44l.3-.21Z"/><path class="cls-10" d="M87.24,18.45l.08,0Z"/><path class="cls-11" d="M87.24,18.45l.08,0Z"/><path class="cls-10" d="M86.9,18.65l.1-.06Z"/><path class="cls-11" d="M86.9,18.65l.1-.06Z"/><path class="cls-10" d="M86.54,18.86l.08,0Z"/><path class="cls-11" d="M86.54,18.86l.08,0Z"/><path class="cls-10" d="M78.52,24.1l.36-.26Z"/><path class="cls-11" d="M78.52,24.1l.36-.26Z"/><path class="cls-10" d="M87.52,18.3l0,0Z"/><path class="cls-11" d="M87.52,18.3l0,0Z"/><path class="cls-10" d="M85.18,19.67l.08,0Z"/><path class="cls-11" d="M85.18,19.67l.08,0Z"/><path class="cls-10" d="M87.72,18.18h0Z"/><path class="cls-11" d="M87.72,18.18h0Z"/><path class="cls-10" d="M80.35,22.82l.12-.09Z"/><path class="cls-11" d="M80.35,22.82l.12-.09Z"/><path class="cls-10" d="M82.51,21.36l.2-.13Z"/><path class="cls-11" d="M82.51,21.36l.2-.13Z"/><path class="cls-10" d="M84.57,20l.17-.11Z"/><path class="cls-11" d="M84.57,20l.17-.11Z"/><path class="cls-10" d="M83.22,20.9l.23-.15Z"/><path class="cls-11" d="M83.22,20.9l.23-.15Z"/><path class="cls-10" d="M83.91,20.46l.22-.13Z"/><path class="cls-11" d="M83.91,20.46l.22-.13Z"/><path class="cls-10" d="M87.72,18.18l-.16.09,0,0-.2.11-.08,0-.24.13-.1.06-.29.17-.08,0-1.28.77-.08,0-.44.27-.17.11-.44.28-.22.13-.46.3-.23.15-.51.33-.2.13q-1,.63-2,1.37l-.12.09-.59.41-.3.21-.57.4-.36.26-.28.2a15,15,0,0,0,1.51,1.78,14.76,14.76,0,0,0,2,1.64,97,97,0,0,0,6.21-9.64h0l-.18.1Z"/><path class="cls-13" d="M87.72,18.18l-.16.09,0,0-.2.11-.08,0-.24.13-.1.06-.29.17-.08,0-1.28.77-.08,0-.44.27-.17.11-.44.28-.22.13-.46.3-.23.15-.51.33-.2.13q-1,.63-2,1.37l-.12.09-.59.41-.3.21-.57.4-.36.26-.28.2a15,15,0,0,0,1.51,1.78,14.76,14.76,0,0,0,2,1.64,97,97,0,0,0,6.21-9.64h0l-.18.1Z"/><path class="cls-14" d="M53.69,52.31a3.86,3.86,0,1,1,5.46,0A3.87,3.87,0,0,1,53.69,52.31Zm4.62-4.62a2.68,2.68,0,1,0,0,3.78A2.68,2.68,0,0,0,58.31,47.69Z"/><circle class="cls-15" cx="56.42" cy="49.58" r="2.97" transform="translate(-18.53 54.43) rotate(-45.01)"/><circle class="cls-16" cx="57.65" cy="49.42" r="0.98" transform="translate(-18.07 55.18) rotate(-44.96)"/><path class="cls-14" d="M60.26,45.74a3.86,3.86,0,1,1,5.46,0A3.87,3.87,0,0,1,60.26,45.74Zm4.62-4.62a2.67,2.67,0,1,0,0,3.78A2.68,2.68,0,0,0,64.88,41.12Z"/><circle class="cls-15" cx="62.99" cy="43.01" r="2.97" transform="translate(-11.97 57.13) rotate(-44.99)"/><circle class="cls-16" cx="64.22" cy="42.85" r="0.98" transform="translate(-11.49 57.96) rotate(-45)"/><path class="cls-14" d="M66.82,39.18a3.86,3.86,0,1,1,5.46,0A3.87,3.87,0,0,1,66.82,39.18Zm4.62-4.62a2.68,2.68,0,1,0,0,3.78A2.68,2.68,0,0,0,71.44,34.56Z"/><circle class="cls-15" cx="69.55" cy="36.45" r="2.97" transform="translate(-5.4 59.87) rotate(-45.01)"/><circle class="cls-16" cx="70.78" cy="36.29" r="0.98" transform="translate(-4.95 60.62) rotate(-44.96)"/><path class="cls-14" d="M73.64,32.36a3.86,3.86,0,1,1,5.46,0A3.87,3.87,0,0,1,73.64,32.36Zm4.62-4.62a2.68,2.68,0,1,0,0,3.78A2.68,2.68,0,0,0,78.26,27.74Z"/><circle class="cls-15" cx="76.37" cy="29.63" r="2.97" transform="translate(1.42 62.69) rotate(-45.01)"/><circle class="cls-16" cx="77.6" cy="29.47" r="0.98" transform="translate(1.91 63.56) rotate(-45.04)"/><path class="cls-2" d="M28.63,79.26c-1.14,1.14-1.84,2.3-3,1.16h0c-1.14-1.14,0-1.84,1.16-3l20.7-23a2.92,2.92,0,0,1,4.14,0h0a2.92,2.92,0,0,1,0,4.13Z"/><path class="cls-17" d="M27,80.57a1.1,1.1,0,0,1-1.56,0h0a1.1,1.1,0,0,1,0-1.56L50.05,54.4a1.1,1.1,0,0,1,1.56,0h0a1.1,1.1,0,0,1,0,1.56Z"/></g></g></svg>