<svg id="illustrations" xmlns="http://www.w3.org/2000/svg" viewBox="0 0 106 106"><defs><style>.cls-1{fill:#f3aa43;}.cls-2{fill:#f19b2c;}.cls-3{fill:#34a3c2;}.cls-4{fill:#42cdf5;}.cls-5{fill:#3ec1e6;}.cls-6{fill:#556566;}.cls-7{fill:#d5e5e6;}.cls-8{fill:#fff;}</style></defs><title>Cohetes</title><path class="cls-1" d="M48.4,43.06l-12,12a.71.71,0,0,1-1,0,9.12,9.12,0,0,0-12.77,0,.63.63,0,0,1-.35.18.69.69,0,0,1-.65-.19h0a.71.71,0,0,1,0-1L33.56,42.18A10.64,10.64,0,0,1,48.39,42h0a.73.73,0,0,1,.2.5A.71.71,0,0,1,48.4,43.06Z"/><path class="cls-2" d="M48.09,43.37,36.37,55.09a.71.71,0,0,1-1,0,9.12,9.12,0,0,0-12.77,0,.63.63,0,0,1-.35.18L33.69,43.88A10.64,10.64,0,0,1,48.09,43.37Z"/><path class="cls-3" d="M37.79,61.36c-1.76,1.46-3.59,3.12-5.42,5l7.14,7.14c1.83-1.83,3.49-3.66,5-5.42Z"/><path class="cls-4" d="M39.6,63.17c-1.68,1.54-3.47,3.25-5.3,5.08l3.26,3.25c1.83-1.83,3.54-3.61,5.08-5.29Z"/><path class="cls-3" d="M32.76,56.33c-1.15,1-2.35,2-3.54,3.23l4.66,4.66c1.19-1.19,2.28-2.39,3.23-3.54Z"/><path class="cls-4" d="M33.94,57.51c-1.1,1-2.26,2.12-3.46,3.32L32.61,63c1.19-1.2,2.31-2.36,3.32-3.46Z"/><path class="cls-3" d="M45.14,68.7c-1.15,1-2.35,2-3.54,3.23l4.66,4.66c1.19-1.2,2.28-2.39,3.23-3.54Z"/><path class="cls-4" d="M46.32,69.89c-1.1,1-2.26,2.12-3.46,3.32L45,75.33c1.19-1.19,2.31-2.36,3.32-3.46Z"/><path class="cls-3" d="M67.81,57.58,52.48,72.91l0,0a2.79,2.79,0,0,1-3.77-.14L33.07,57.13a2.79,2.79,0,0,1-.14-3.77l0,0L48.23,38c12.94-12.94,31.32-16.12,35.5-16.69l.87-.11S82.49,42.9,67.81,57.58Z"/><path class="cls-1" d="M63.12,57.79l-12,12a.71.71,0,0,0,0,1,9.12,9.12,0,0,1,0,12.77.63.63,0,0,0-.18.35.69.69,0,0,0,.19.65h0a.7.7,0,0,0,1,0L64,72.63a10.64,10.64,0,0,0,.14-14.83h0a.73.73,0,0,0-.5-.21A.72.72,0,0,0,63.12,57.79Z"/><path class="cls-2" d="M62.82,58.09,51.1,69.82a.71.71,0,0,0,0,1,9.12,9.12,0,0,1,0,12.77.63.63,0,0,0-.18.35L62.3,72.49A10.64,10.64,0,0,0,62.82,58.09Z"/><path class="cls-5" d="M67.81,57.58,52.48,72.91l0,0a2.79,2.79,0,0,1-3.77-.14l-2.32-2.32C48,61.71,55,50,65.7,39.35l18-18,.87-.11S82.49,42.9,67.81,57.58Z"/><path class="cls-6" d="M46.63,59.19a8,8,0,1,1,11.38,0A8.05,8.05,0,0,1,46.63,59.19Zm9.63-9.63a5.57,5.57,0,1,0,0,7.88A5.58,5.58,0,0,0,56.25,49.56Z"/><circle class="cls-7" cx="52.32" cy="53.5" r="6.19" transform="translate(-22.51 52.67) rotate(-45)"/><circle class="cls-8" cx="54.87" cy="53.16" r="2.05" transform="translate(-21.52 54.38) rotate(-45.01)"/><path class="cls-6" d="M59.79,46a8,8,0,1,1,11.37,0A8.05,8.05,0,0,1,59.79,46Zm9.63-9.63a5.57,5.57,0,1,0,0,7.88A5.58,5.58,0,0,0,69.42,36.4Z"/><circle class="cls-7" cx="65.48" cy="40.33" r="6.19" transform="translate(-9.34 58.11) rotate(-45)"/><circle class="cls-8" cx="68.04" cy="40" r="2.05" transform="translate(-8.36 59.81) rotate(-44.99)"/></svg>