<svg id="illustrations" xmlns="http://www.w3.org/2000/svg" viewBox="0 0 106 106"><defs><style>.cls-1{fill:#b5c5c6;}.cls-2{fill:#a5b5b6;}.cls-3{fill:#859596;}.cls-4{fill:#657576;}.cls-5{fill:#d5e5e6;}.cls-6{fill:#fff;}.cls-7{fill:#c52e25;}.cls-8{fill:#d53d33;}</style></defs><title>Cohetes</title><path class="cls-1" d="M59.27,61.12c-7.41,9.14-2.47,19.37-2.47,19.37L38.53,81.86S66.69,52,59.27,61.12Z"/><path class="cls-2" d="M58.3,61.18c-7.41,9.14-2.47,19.36-2.47,19.36L37.55,81.92S65.71,52,58.3,61.18Z"/><path class="cls-1" d="M32,59.88,27.37,64.3l-.17.16-2.43,2.3-.67.63,0,0,.16-2.07,0-.46,1.19-15.75S35,53.73,43.83,47.42q.5-.35,1-.75c2.84-2.3,1.92-1.17-.72,1.48C41.21,51.07,36.27,55.82,32,59.88Z"/><path class="cls-3" d="M44.77,47.64c-9.14,7.42-19.37,2.47-19.37,2.47L24,68.39S53.9,40.23,44.77,47.64Z"/><path class="cls-1" d="M77.13,44.21,42.2,79.14l-15-15L62.08,29.17a41.61,41.61,0,0,1,10.74-7.63,55.17,55.17,0,0,1,17-5.25l.24,0a54.48,54.48,0,0,1-5.31,17.27A41.46,41.46,0,0,1,77.13,44.21Z"/><path class="cls-4" d="M50.52,55.57a5.71,5.71,0,1,0,0,8.07A5.71,5.71,0,0,0,50.52,55.57ZM43.68,62.4a4,4,0,1,1,5.59,0A4,4,0,0,1,43.68,62.4Z"/><circle class="cls-5" cx="46.48" cy="59.6" r="4.39" transform="translate(-28.53 50.32) rotate(-45)"/><circle class="cls-6" cx="48.29" cy="59.36" r="1.45" transform="translate(-27.83 51.54) rotate(-45)"/><path class="cls-4" d="M61.76,44.32a5.71,5.71,0,1,0,0,8.07A5.72,5.72,0,0,0,61.76,44.32Zm-6.83,6.83a4,4,0,1,1,5.59,0A4,4,0,0,1,54.93,51.15Z"/><circle class="cls-5" cx="57.73" cy="48.36" r="4.39" transform="translate(-17.29 54.98) rotate(-45)"/><circle class="cls-6" cx="59.54" cy="48.12" r="1.45" transform="translate(-16.59 56.19) rotate(-44.99)"/><path class="cls-4" d="M73,33.08a5.71,5.71,0,1,0,0,8.07A5.71,5.71,0,0,0,73,33.08ZM66.18,39.9a3.95,3.95,0,1,1,5.58,0A4,4,0,0,1,66.18,39.9Z"/><circle class="cls-5" cx="68.97" cy="37.11" r="4.39" transform="translate(-6.04 59.65) rotate(-45.01)"/><circle class="cls-6" cx="70.78" cy="36.87" r="1.45" transform="translate(-5.34 60.86) rotate(-45.01)"/><path class="cls-3" d="M40.58,81.1a2.5,2.5,0,0,1-3.53,0L24.5,68.55a2.5,2.5,0,0,1,0-3.53h0A2.5,2.5,0,0,1,28,65L40.58,77.57a2.5,2.5,0,0,1,0,3.53Z"/><path class="cls-7" d="M27.06,71.1a4.9,4.9,0,0,1-2.64,1.46,1.26,1.26,0,0,1-.65-.12l-.06,0a.91.91,0,0,1-.24-.18h0c-1.06-1.06-.71-4.24-.06-5.55l.87-1.77,0,0,2.5-5.09A2.89,2.89,0,0,1,31.43,59a2.55,2.55,0,0,1,.36.45l.07.12a3.2,3.2,0,0,1,.16.3,2.92,2.92,0,0,1,0,2.44L30.16,66l-.36.73,0,0L29,68.3l-.44.91A7.25,7.25,0,0,1,27.06,71.1Z"/><path class="cls-8" d="M24.42,72.56a1.21,1.21,0,0,1-.47-.23l-.08-.08c-1.09-1.1,0-4.44,1-5.65l4.83-6a2.89,2.89,0,0,1,2.16-1.07A2.86,2.86,0,0,1,32,62.32l-3.39,6.89C28,70.44,25.9,72.48,24.42,72.56Z"/><path class="cls-7" d="M32.82,80.95a1.29,1.29,0,0,0,.12.65,1.27,1.27,0,0,0,.23.31c1.06,1.06,4.24.71,5.56.06l6.89-3.39a2.9,2.9,0,0,0,.76-4.64,2.64,2.64,0,0,0-.57-.44,2.85,2.85,0,0,0-2.75-.11l-6.89,3.38C34.93,77.39,32.89,79.47,32.82,80.95Z"/><path class="cls-8" d="M32.82,80.95a1.19,1.19,0,0,0,.23.47l.08.08c1.1,1.1,4.44,0,5.65-1l6-4.83a2.88,2.88,0,0,0,1.07-2.16,2.85,2.85,0,0,0-2.75-.11l-6.89,3.38C34.93,77.39,32.89,79.47,32.82,80.95Z"/><path class="cls-7" d="M31.77,77.72l0,0c-.92.92-3.55,2.17-4.47,1.28a.73.73,0,0,1-.1-.11c-.74-1,.37-3.54,1.23-4.44L32.69,70l0,0a2.34,2.34,0,0,1,3.28,0l.07.08a2.33,2.33,0,0,1,0,3.23Z"/><path class="cls-8" d="M31.77,77.72l0,0c-.92.92-3.55,2.17-4.47,1.28a.73.73,0,0,1-.1-.11L36.07,70a2.33,2.33,0,0,1,0,3.23Z"/><path class="cls-8" d="M84.73,33.53a21.65,21.65,0,0,1-7.08-4.77l-.16-.17a21.62,21.62,0,0,1-4.66-7.06,55.17,55.17,0,0,1,17-5.25l.24,0A54.48,54.48,0,0,1,84.73,33.53Z"/></svg>