<svg id="illustrations" xmlns="http://www.w3.org/2000/svg" viewBox="0 0 106 106"><defs><style>.cls-1{fill:#ef893a;}.cls-2{fill:#f3aa43;}.cls-3{fill:#d5e5e6;}.cls-4{fill:#c52e25;}.cls-5{fill:#fff;}.cls-6{fill:#b5c5c6;}.cls-7{fill:#d53d33;}</style></defs><title>Cohetes</title><path class="cls-1" d="M61.12,62.93,47,77.07,28.92,59,43.06,44.88c7.58-7.58,17.18-11.52,24.17-13.53q1.6-.47,3-.8a52.62,52.62,0,0,1,6.37-1.16,57.55,57.55,0,0,1-2,9.38C72.64,45.75,68.7,55.36,61.12,62.93Z"/><path class="cls-2" d="M61.12,62.93,47,77.07l-4-4c-4.9-6.66-.32-20.32,10.8-31.44a50,50,0,0,1,13.81-9.94c.9-.43,1.79-.8,2.67-1.13a52.62,52.62,0,0,1,6.37-1.16,57.55,57.55,0,0,1-2,9.38C72.64,45.75,68.7,55.36,61.12,62.93Z"/><circle class="cls-3" cx="49.86" cy="56.14" r="6.31" transform="translate(-25.09 51.7) rotate(-45)"/><path class="cls-4" d="M44.59,61.41a7.46,7.46,0,1,1,10.55,0A7.47,7.47,0,0,1,44.59,61.41Zm8.93-8.93a5.17,5.17,0,1,0,0,7.31A5.17,5.17,0,0,0,53.52,52.49Z"/><circle class="cls-5" cx="51.79" cy="56.27" r="2.53" transform="translate(-24.62 53.1) rotate(-45)"/><circle class="cls-3" cx="62.52" cy="43.48" r="5.01" transform="translate(-12.43 56.94) rotate(-45)"/><path class="cls-4" d="M58.33,47.67a5.93,5.93,0,1,1,8.38,0A5.93,5.93,0,0,1,58.33,47.67Zm7.09-7.09a4.1,4.1,0,1,0,0,5.8A4.11,4.11,0,0,0,65.42,40.58Z"/><circle class="cls-5" cx="64.05" cy="43.59" r="2.01" transform="translate(-12.06 58.05) rotate(-44.99)"/><rect class="cls-6" x="69.05" y="29.52" width="13.29" height="1.55" transform="translate(0.75 62.42) rotate(-45.01)"/><circle class="cls-4" cx="81.05" cy="24.95" r="1.66" transform="translate(6.09 64.61) rotate(-44.99)"/><path class="cls-4" d="M74.65,38.76l-7.42-7.42q1.6-.47,3-.8a52.62,52.62,0,0,1,6.37-1.16A57.55,57.55,0,0,1,74.65,38.76Z"/><path class="cls-6" d="M44.72,74.88a2.21,2.21,0,0,1-3.12,0l-11.1-11.1a2.21,2.21,0,0,1,0-3.12h0a2.21,2.21,0,0,1,3.12,0l11.1,11.1a2.21,2.21,0,0,1,0,3.12Z"/><path class="cls-4" d="M27.74,66.37a1.67,1.67,0,0,1-.85-.15,1.65,1.65,0,0,1-.41-.3c-1.38-1.38-.92-5.54-.07-7.26l4.42-9a3.78,3.78,0,0,1,6.06-1,3.4,3.4,0,0,1,.57.75A3.74,3.74,0,0,1,37.6,53l-4.42,9C32.39,63.6,29.67,66.26,27.74,66.37Z"/><path class="cls-7" d="M27.74,66.37a1.57,1.57,0,0,1-.61-.3L27,66c-1.43-1.43,0-5.8,1.31-7.38l6.31-7.79a3.76,3.76,0,0,1,2.82-1.39A3.74,3.74,0,0,1,37.6,53l-4.42,9C32.39,63.6,29.67,66.26,27.74,66.37Z"/><path class="cls-4" d="M38.7,77.33a1.67,1.67,0,0,0,.15.85,1.64,1.64,0,0,0,.3.41c1.38,1.38,5.54.92,7.26.07l9-4.42a3.78,3.78,0,0,0,1-6.06,3.42,3.42,0,0,0-.75-.57,3.74,3.74,0,0,0-3.59-.14l-9,4.42C41.47,72.68,38.81,75.4,38.7,77.33Z"/><path class="cls-7" d="M38.7,77.33a1.57,1.57,0,0,0,.3.61l.1.11c1.43,1.43,5.8,0,7.38-1.31l7.79-6.31a3.76,3.76,0,0,0,1.39-2.82,3.74,3.74,0,0,0-3.59-.14l-9,4.42C41.47,72.68,38.81,75.4,38.7,77.33Z"/><path class="cls-4" d="M37.34,73.11l0,0c-1.21,1.21-4.63,2.83-5.84,1.67a1,1,0,0,1-.13-.15c-1-1.3.48-4.63,1.61-5.8L38.54,63l0,0a3.06,3.06,0,0,1,4.28,0L43,63a3,3,0,0,1,0,4.21Z"/><path class="cls-7" d="M37.34,73.11l0,0c-1.21,1.21-4.63,2.83-5.84,1.67a1,1,0,0,1-.13-.15L43,63a3,3,0,0,1,0,4.21Z"/></svg>