<svg id="illustrations" xmlns="http://www.w3.org/2000/svg" viewBox="0 0 106 106"><defs><style>.cls-1{fill:#d53d33;}.cls-2{fill:#c52e25;}.cls-3{fill:#3ec1e6;}.cls-4{fill:#42cdf5;}.cls-5{fill:#b5c5c6;}.cls-6{fill:#d5e5e6;}.cls-7{fill:#fff;}</style></defs><title>Cohetes</title><path class="cls-1" d="M59,36.58,47.25,38.84a.5.5,0,0,1-.58-.38,6.4,6.4,0,0,0-7.44-5,.45.45,0,0,1-.28,0,.49.49,0,0,1-.3-.36h0a.5.5,0,0,1,.4-.58L50.7,30.23A7.46,7.46,0,0,1,59.37,36h0a.5.5,0,0,1-.4.58Z"/><path class="cls-2" d="M58.68,36.64l-11.43,2.2a.5.5,0,0,1-.58-.38,6.4,6.4,0,0,0-7.44-5,.45.45,0,0,1-.28,0l11.15-2.15A7.47,7.47,0,0,1,58.68,36.64Z"/><path class="cls-1" d="M69.11,46.71,66.85,58.44a.5.5,0,0,0,.38.58,6.4,6.4,0,0,1,5,7.43.46.46,0,0,0,0,.28.49.49,0,0,0,.36.3h0a.49.49,0,0,0,.58-.4L75.46,55a7.47,7.47,0,0,0-5.76-8.67h0a.5.5,0,0,0-.58.4Z"/><path class="cls-2" d="M69.05,47l-2.2,11.43a.5.5,0,0,0,.38.58,6.4,6.4,0,0,1,5,7.43.46.46,0,0,0,0,.28l2.15-11.15A7.46,7.46,0,0,0,69.05,47Z"/><path class="cls-3" d="M66.72,59.61,53.54,72.79,33,52.27,46.2,39.09C52,33.24,59.58,30.11,66,28.42a57.76,57.76,0,0,1,13.34-1.94h0a58,58,0,0,1-1.94,13.35C75.69,46.25,72.56,53.77,66.72,59.61Z"/><path class="cls-4" d="M61.35,54.24,48.17,67.42l-9.78-9.78L51.57,44.46A81.06,81.06,0,0,1,68.08,31.91a74.57,74.57,0,0,1,11.23-5.42h0A74.73,74.73,0,0,1,73.9,37.73,80.68,80.68,0,0,1,61.35,54.24Z"/><path class="cls-5" d="M52.8,70A2.69,2.69,0,0,1,49,70L35.45,56.42a2.69,2.69,0,0,1,0-3.81h0a2.7,2.7,0,0,1,3.81,0L52.8,66.15a2.69,2.69,0,0,1,0,3.81Z"/><path class="cls-2" d="M32.1,59.59A1.88,1.88,0,0,1,30.57,59c-1.69-1.69-1.12-6.76-.09-8.85l5.39-11A4.61,4.61,0,0,1,43.25,38a4.13,4.13,0,0,1,.7.91,4.55,4.55,0,0,1,.18,4.37l-5.39,11C37.76,56.22,34.45,59.46,32.1,59.59Z"/><path class="cls-1" d="M32.1,59.59a1.92,1.92,0,0,1-.74-.36l-.14-.12c-1.74-1.74,0-7.07,1.6-9l7.69-9.49A4.58,4.58,0,0,1,44,38.91a4.55,4.55,0,0,1,.18,4.37l-5.39,11C37.76,56.22,34.45,59.46,32.1,59.59Z"/><path class="cls-2" d="M45.47,73A1.87,1.87,0,0,0,46,74.49c1.69,1.69,6.76,1.12,8.85.09l11-5.39A4.61,4.61,0,0,0,67,61.8a4.16,4.16,0,0,0-.91-.69,4.55,4.55,0,0,0-4.37-.18l-11,5.39C48.84,67.29,45.59,70.6,45.47,73Z"/><path class="cls-1" d="M45.47,73a1.9,1.9,0,0,0,.36.75l.12.13c1.74,1.74,7.07,0,9-1.6l9.49-7.69a4.58,4.58,0,0,0,1.7-3.44,4.55,4.55,0,0,0-4.37-.18l-11,5.39C48.84,67.29,45.59,70.6,45.47,73Z"/><path class="cls-2" d="M43.8,67.8l-.06.06c-1.47,1.47-5.65,3.45-7.12,2a1.27,1.27,0,0,1-.16-.18c-1.17-1.58.59-5.64,2-7.07l6.84-7.13.05-.05a3.73,3.73,0,0,1,5.21-.06l.12.13a3.72,3.72,0,0,1,0,5.14Z"/><path class="cls-1" d="M43.8,67.8l-.06.06c-1.47,1.47-5.65,3.45-7.12,2a1.27,1.27,0,0,1-.16-.18L50.65,55.53a3.72,3.72,0,0,1,0,5.14Z"/><path class="cls-2" d="M54.52,51.29a8.9,8.9,0,1,1,12.59,0A8.91,8.91,0,0,1,54.52,51.29ZM65.17,40.64a6.16,6.16,0,1,0,0,8.71A6.17,6.17,0,0,0,65.17,40.64Z"/><circle class="cls-6" cx="60.81" cy="45" r="6.85" transform="translate(-14.01 56.18) rotate(-45)"/><circle class="cls-7" cx="63.64" cy="44.62" r="2.26" transform="translate(-12.91 58.07) rotate(-45)"/><path class="cls-1" d="M77.38,39.85a22.69,22.69,0,0,1-3.48-2.12,25.77,25.77,0,0,1-3.11-2.66,26.59,26.59,0,0,1-2.7-3.16A22.49,22.49,0,0,1,66,28.42a57.76,57.76,0,0,1,13.34-1.94h0A58,58,0,0,1,77.38,39.85Z"/></svg>