<?xml version="1.0" encoding="utf-8"?>
<!-- Generator: Adobe Illustrator 27.5.0, SVG Export Plug-In . SVG Version: 6.00 Build 0)  -->
<svg version="1.1" xmlns="http://www.w3.org/2000/svg" xmlns:xlink="http://www.w3.org/1999/xlink" x="0px" y="0px"
	 viewBox="0 0 499.92 499.92" style="enable-background:new 0 0 499.92 499.92;" xml:space="preserve">
<g id="BACKGROUND">
	<rect x="-0.04" y="-0.04" style="fill-rule:evenodd;clip-rule:evenodd;fill:#FFFFFF;" width="500" height="500"/>
</g>
<g id="OBJECTS">
	<g>
		<ellipse style="opacity:0.2;fill-rule:evenodd;clip-rule:evenodd;" cx="156.507" cy="159.395" rx="29.897" ry="8.893"/>
		<g>
			<path style="fill-rule:evenodd;clip-rule:evenodd;fill:#FFAE57;" d="M158.432,78.887c-6.221,0-10.7,0.269-13.314,0.806
				c-1.617,0.403-2.861,0.805-3.733,1.365c-5.225,3.222-11.322,7.651-18.29,13.289c-3.36,2.684-4.977,5.257-4.977,7.807
				c0,2.416,0.871,4.833,2.613,7.249c1.742,2.282,3.733,3.49,5.848,3.49c0.871,0,2.364-0.671,4.479-1.879
				c2.116-1.208,3.609-1.88,4.231-1.88c0.373,0,0.746,0.134,1.12,0.537c0.498,0.671,0.747,3.222,0.747,7.674v18.546
				c0,7.383,0.124,12.506,0.373,15.593c0.374,5.101,1.12,8.188,2.115,9.262c3.111,3.378,8.71,5.257,16.798,5.392
				c1.368,0,2.986,0,4.853-0.134c5.599-0.403,9.331-1.476,11.447-3.244c2.364-2.148,3.609-6.175,3.733-11.947l0.871-52.552
				c0-0.671,0-1.901,0.124-3.915c0.125-1.611,0.125-2.953,0.125-3.893c-0.125-7.651-3.857-11.566-11.198-11.566H158.432z"/>
			<path style="opacity:0.3;fill-rule:evenodd;clip-rule:evenodd;fill:#FFFFFF;" d="M142.48,84.976
				c-0.308,0.134-10.676,6.588-10.996,7.81c-1.347,5.14,8.574-1.222,9.86,0.777c2.789,4.334-0.23,56.494,1.657,59.157
				c3.02,4.261,18.627,3.223,20.641,0.795c2.744-3.31,2.214-68.136,1.527-68.79C162.964,82.629,147.391,82.832,142.48,84.976z"/>
			<path style="opacity:0.5;fill-rule:evenodd;clip-rule:evenodd;fill:#FFFFFF;" d="M147.462,85.94
				c-4.224,0.456-8.299,5.023-5.285,4.736c3.013-0.287,4.17,24.449,3.997,30.76c-0.062,2.241,1.769,2.847,2.195-0.307
				C149.021,116.293,150.387,85.624,147.462,85.94z"/>
			<path style="opacity:0.1;fill-rule:evenodd;clip-rule:evenodd;" d="M118.538,105.056c0.418,1.449,1.149,2.898,2.194,4.347
				c1.742,2.282,3.733,3.49,5.848,3.49c0.871,0,2.364-0.672,4.479-1.879c0.929-0.531,4.473-2.811,5.35-1.342
				c-0.032-1.987-1.907-6.356-4.798-6.513c-0.621-0.034-2.115,0.671-4.231,1.879c-2.115,1.208-3.608,1.879-4.479,1.879
				C121.366,106.916,119.895,106.279,118.538,105.056L118.538,105.056z M138.145,156.625c0.391,2.102,0.9,3.476,1.498,4.122
				c3.111,3.378,8.71,5.257,16.798,5.392c1.368,0,2.986,0,4.853-0.134c5.599-0.403,9.331-1.476,11.447-3.244
				c2.364-2.148,3.609-6.175,3.733-11.947l0.871-52.552c0-0.671,0-1.901,0.124-3.915c0.125-1.611,0.125-2.953,0.125-3.893
				c-0.074-4.567-1.435-7.802-4.08-9.669c0.246,1.115,0.38,2.345,0.402,3.693c0,0.939,0,2.282-0.125,3.893
				c-0.124,2.013-0.124,3.244-0.124,3.915l-0.871,52.552c-0.124,5.772-1.368,9.799-3.733,11.947
				c-2.115,1.767-5.848,2.841-11.447,3.244c-1.866,0.134-3.484,0.134-4.853,0.134C146.302,160.055,141.43,158.834,138.145,156.625z"
				/>
			<path style="opacity:0.3;fill-rule:evenodd;clip-rule:evenodd;fill:#FFFFFF;" d="M157.691,90.382
				c1.679-0.713,3.618,0.071,4.331,1.75c0.713,1.679-0.071,3.618-1.75,4.331c-1.679,0.713-3.618-0.071-4.331-1.75
				C155.229,93.034,156.012,91.095,157.691,90.382z"/>
			<path style="opacity:0.2;fill-rule:evenodd;clip-rule:evenodd;fill:#FFFFFF;" d="M154.966,98.349
				c1.073-0.455,2.312,0.045,2.768,1.118c0.456,1.073-0.045,2.312-1.118,2.768c-1.073,0.456-2.312-0.045-2.768-1.118
				C153.393,100.044,153.893,98.805,154.966,98.349z"/>
			<path style="opacity:0.2;fill-rule:evenodd;clip-rule:evenodd;fill:#FFFFFF;" d="M151.987,142.022
				c1.999-0.849,4.309,0.085,5.158,2.084c0.849,2-0.085,4.309-2.084,5.158c-1.999,0.849-4.309-0.085-5.158-2.084
				C149.054,145.18,149.987,142.87,151.987,142.022z"/>
		</g>
	</g>
	<g>
		<ellipse style="opacity:0.2;fill-rule:evenodd;clip-rule:evenodd;" cx="249.143" cy="159.395" rx="42.422" ry="8.893"/>
		<g>
			<path style="fill-rule:evenodd;clip-rule:evenodd;fill:#F05C38;" d="M259.062,166.138c9.331,0,15.553-0.805,18.912-2.282
				c5.474-2.55,8.336-7.92,8.461-16.242c0.124-7.651-0.871-12.215-3.235-13.692c-1.618-1.074-3.235-1.611-4.977-1.611
				c-1.991,0-3.982,0.671-6.097,2.014c-7.092,4.43-11.696,6.712-14.06,6.712c-1.369,0-1.991-0.805-1.991-2.282
				c-0.124-2.819,3.484-5.906,10.576-9.262c11.323-5.504,17.046-13.289,17.295-23.491c0.498-17.987-11.198-27.518-35.087-28.457
				c-7.839-0.403-15.677,1.074-23.392,4.161c-4.728,1.879-8.834,4.429-12.317,7.785c-1.369,1.208-1.991,3.087-1.991,5.369
				c0,1.208,0.124,2.551,0.498,4.027c1.866,5.504,4.106,8.323,6.47,8.457c1.866,0,3.982-0.806,6.097-2.416
				c3.608-2.819,6.345-4.161,8.46-4.161c2.364,0,3.609,1.611,3.609,4.698c0,2.148-5.475,9.531-16.548,22.283
				c-4.853,5.503-7.341,12.081-7.341,19.464c0,11.678,7.963,18.927,19.286,18.927H259.062z"/>
			<path style="opacity:0.3;fill-rule:evenodd;clip-rule:evenodd;fill:#FFFFFF;" d="M241.192,102.549
				c0,10.891-20.292,24.737-23.242,36.733c-1.409,5.731-0.217,11.641,4.829,14.524c4.285,2.448,21.64,3.173,34.093,0.476
				c4.466-0.967,9.088-4.284,8.592-6.206c-0.423-1.641-6.428-0.36-9.644-0.484c-6.249-0.241-11.517-2.928-11.643-11.569
				c-0.503-17.141,27.376-14.418,27.873-33.159c0.397-15.001-15.427-21.062-28.293-20.269c-2.892,0.178-18.298,3.68-17.768,5.811
				C226.519,90.541,241.192,87.401,241.192,102.549z"/>
			<path style="opacity:0.5;fill-rule:evenodd;clip-rule:evenodd;fill:#FFFFFF;" d="M237.403,89.488
				c4.362,1.77,6.053,7.327,5.561,11.755c-0.492,4.428,1.113,2.519,2.132-0.328c1.75-4.889,0.85-12.51-6.733-14.063
				C234.873,86.137,234.244,88.205,237.403,89.488z"/>
			<path style="opacity:0.5;fill-rule:evenodd;clip-rule:evenodd;fill:#FFFFFF;" d="M230.828,123.218
				c-5.775,3.969-10.428,14.162-11.344,18.046c-0.656,2.779,2.994,3.654,3.866,0.51c1.112-4.008,4.946-14.599,8.508-17.595
				C233.999,122.38,232.707,121.927,230.828,123.218z"/>
			<path style="opacity:0.1;fill-rule:evenodd;clip-rule:evenodd;" d="M259.062,166.138c9.331,0,15.553-0.805,18.912-2.282
				c5.474-2.55,8.336-7.92,8.461-16.242c0.124-7.651-0.871-12.215-3.235-13.692c-0.315-0.209-0.63-0.398-0.946-0.566
				c0.397,2.167,0.558,4.928,0.503,8.281c-0.124,8.322-2.986,13.692-8.461,16.242c-3.36,1.477-9.581,2.282-18.912,2.282H228.01
				c-5.94,0-10.954-1.996-14.381-5.579c2.646,7.277,9.36,11.555,18.059,11.555H259.062L259.062,166.138z M260.349,133.019
				c-2.69,1.354-5.127,4.804-4.092,6.908c-1.506-1.738-3.415-4.516-2.899-8.337c0.331-2.453,2.546-4.672,9.616-8.073
				c11.345-5.458,17.046-13.289,17.295-23.49c0.125-4.522-0.521-8.509-1.937-11.96c3.947,4.533,5.821,10.514,5.615,17.937
				c-0.213,8.718-4.424,15.67-12.71,20.943c-0.912,0.332-1.837,0.8-2.788,1.403c-0.715,0.446-1.404,0.871-2.069,1.274
				C263.944,130.787,261.93,131.919,260.349,133.019L260.349,133.019z M212.203,100.396c1.75,4.511,3.786,6.827,5.924,6.949
				c1.866,0,3.994-0.79,6.097-2.416c3.381-2.616,9.397-6.336,11.49-2.43c-2.339-6.717-5.232-7.707-6.707-7.707
				c-2.116,0-4.852,1.342-8.461,4.161c-2.115,1.611-4.23,2.416-6.097,2.416C213.684,101.325,212.932,101.001,212.203,100.396z"/>
			<path style="opacity:0.3;fill-rule:evenodd;clip-rule:evenodd;fill:#FFFFFF;" d="M248.477,107.372
				c1.679-0.713,3.618,0.071,4.331,1.75c0.713,1.679-0.071,3.618-1.75,4.331c-1.679,0.713-3.618-0.071-4.331-1.75
				C246.015,110.023,246.798,108.084,248.477,107.372z"/>
			<path style="opacity:0.2;fill-rule:evenodd;clip-rule:evenodd;fill:#FFFFFF;" d="M244.67,115.595
				c1.073-0.455,2.312,0.045,2.768,1.118c0.456,1.073-0.045,2.312-1.118,2.768c-1.073,0.455-2.312-0.045-2.767-1.118
				C243.096,117.289,243.597,116.05,244.67,115.595z"/>
			<path style="opacity:0.2;fill-rule:evenodd;clip-rule:evenodd;fill:#FFFFFF;" d="M230.704,142.545
				c2-0.849,4.309,0.085,5.158,2.084c0.849,1.999-0.084,4.309-2.084,5.158c-2,0.849-4.309-0.085-5.158-2.084
				C227.772,145.703,228.705,143.393,230.704,142.545z"/>
		</g>
	</g>
	<g>
		<ellipse style="opacity:0.2;fill-rule:evenodd;clip-rule:evenodd;" cx="360.888" cy="159.395" rx="38.116" ry="8.893"/>
		<g>
			<path style="fill-rule:evenodd;clip-rule:evenodd;fill:#66D9FF;" d="M324.211,145.466c-0.373,1.477-0.497,2.819-0.497,4.027
				c0,2.282,0.622,4.161,1.991,5.369c3.359,3.087,7.465,5.638,12.317,7.651c8.088,3.222,16.424,4.698,25.258,4.296
				c23.516-0.806,35.211-10.336,34.963-28.457c-0.125-6.846-2.986-12.215-8.834-16.242c5.848-4.027,8.71-9.396,8.834-16.242
				c0.248-18.121-11.447-27.652-34.963-28.457c-8.834-0.403-17.17,1.074-25.258,4.295c-4.852,2.013-8.958,4.564-12.317,7.651
				c-1.369,1.208-1.991,3.088-1.991,5.37c0,1.208,0.124,2.55,0.497,4.027c1.867,5.503,4.106,8.323,6.47,8.457
				c1.618,0,3.857-0.806,6.47-2.416c3.609-2.282,7.341-3.356,11.198-3.49c3.111,0.134,4.728,1.745,5.102,5.101
				c0.373,5.504-1.618,8.054-6.097,7.786c-4.355-0.269-7.714,0-9.954,0.805c-2.115,0.939-3.111,3.356-3.111,6.98
				c0,3.49,0.746,5.772,2.364,6.846c1.867,1.074,5.475,1.611,10.701,1.477c4.604-0.134,6.594,2.416,6.097,7.383
				c-0.249,3.624-2.115,5.369-5.475,5.235c-3.608-0.134-7.216-1.208-10.825-3.49c-2.613-1.611-4.852-2.416-6.47-2.416
				C328.317,137.144,326.077,139.963,324.211,145.466z"/>
			<path style="opacity:0.3;fill-rule:evenodd;clip-rule:evenodd;fill:#FFFFFF;" d="M345.717,88.579
				c13.884,0.914,16.376,20.879,7.292,28.417c-1.707,1.417-1.204,3.819,0.287,4.851c9.141,6.322,6.193,27.885-8.334,27.862
				c-6.021-0.01-3.192,3.597-0.44,4.324c4.832,1.277,9.818,1.657,14.945,1.466c13.946-0.521,27.025-3.65,26.878-19.938
				c-0.095-10.413-15.247-14.821-15.247-16.367c0-2.051,15.07-4.539,15.247-16.368c0.243-16.286-12.931-19.417-26.878-19.938
				c-5.128-0.191-10.885,0.576-14.85,1.771C342.219,85.382,342.73,88.382,345.717,88.579z"/>
			<path style="opacity:0.5;fill-rule:evenodd;clip-rule:evenodd;fill:#FFFFFF;" d="M359.984,112.219
				c-1.464,2.634-4.664,5.894-4.823,7.368c-0.227,2.098,9.331,7.979,4.184,22.101c-1.525,4.186,0.217,2.197,1.88-0.328
				c7.653-11.62-3.384-20.134-2.852-21.054C359.463,118.427,361.467,109.551,359.984,112.219z"/>
			<path style="opacity:0.5;fill-rule:evenodd;clip-rule:evenodd;fill:#FFFFFF;" d="M353.37,88.735
				c4.505,1.365,6.697,6.744,6.611,11.198c-0.086,4.454,1.338,2.407,2.093-0.521c1.296-5.028-0.295-12.536-7.988-13.389
				C350.544,85.629,350.106,87.746,353.37,88.735z"/>
			<path style="opacity:0.1;fill-rule:evenodd;clip-rule:evenodd;" d="M323.746,150.367c0.143,1.888,0.768,3.445,1.958,4.496
				c3.359,3.087,7.465,5.638,12.317,7.651c8.088,3.222,16.424,4.698,25.258,4.296c23.516-0.806,35.211-10.336,34.963-28.457
				c-0.092-5.087-1.697-9.357-4.913-12.868c0.782,2.106,1.19,4.401,1.236,6.892c0.248,18.121-11.447,27.651-34.963,28.457
				c-8.834,0.403-17.17-1.074-25.258-4.296C330.29,154.855,326.758,152.798,323.746,150.367L323.746,150.367z M390.894,121.007
				c4.848-3.888,7.235-8.9,7.349-15.138c0.102-7.448-1.815-13.444-5.74-17.98c1.436,3.46,2.125,7.462,2.062,12.004
				c-0.125,6.846-2.986,12.215-8.834,16.242C387.834,117.582,389.552,119.204,390.894,121.007L390.894,121.007z M324.757,100.261
				c1.751,4.511,3.786,6.828,5.924,6.95c1.618,0,3.857-0.806,6.47-2.416c3.609-2.282,7.34-3.392,11.198-3.49
				c0.532-0.013,3.33,0.206,4.443,2.585c-0.349-1.241-2.359-8.131-8.12-8.562c-3.849-0.287-7.59,1.208-11.198,3.49
				c-2.613,1.61-4.852,2.416-6.47,2.416C326.238,101.191,325.487,100.866,324.757,100.261L324.757,100.261z M334.338,123.436
				c2.047,0.675,5.181,1,9.338,0.886c4.232-0.116,9.038,3.985,8.952,8.19c-1.569-2.343-4.335-2.238-5.273-2.213
				c-5.225,0.136-8.834-0.403-10.701-1.477C335.273,127.906,334.528,126.11,334.338,123.436z"/>
			<path style="opacity:0.2;fill-rule:evenodd;clip-rule:evenodd;fill:#FFFFFF;" d="M374.89,98.679
				c1.679-0.713,3.618,0.071,4.331,1.75c0.713,1.679-0.071,3.618-1.75,4.331c-1.679,0.713-3.618-0.071-4.331-1.75
				C372.428,101.33,373.211,99.391,374.89,98.679z"/>
			<path style="opacity:0.3;fill-rule:evenodd;clip-rule:evenodd;fill:#FFFFFF;" d="M369.433,89.906
				c1.073-0.455,2.312,0.045,2.768,1.118c0.456,1.073-0.045,2.312-1.118,2.768c-1.073,0.455-2.312-0.045-2.768-1.118
				C367.86,91.6,368.36,90.361,369.433,89.906z"/>
			<path style="opacity:0.2;fill-rule:evenodd;clip-rule:evenodd;fill:#FFFFFF;" d="M371.106,135.272
				c2-0.849,4.309,0.085,5.158,2.084c0.849,1.999-0.085,4.309-2.084,5.158c-1.999,0.849-4.309-0.084-5.158-2.084
				C368.174,138.43,369.107,136.121,371.106,135.272z"/>
		</g>
	</g>
	<g>
		<ellipse style="opacity:0.2;fill-rule:evenodd;clip-rule:evenodd;" cx="85.626" cy="282.721" rx="41.36" ry="8.893"/>
		<g>
			<path style="fill-rule:evenodd;clip-rule:evenodd;fill:#D65E98;" d="M125.381,250.281c-2.613,0.134-4.728,0.268-6.594,0.268
				c-1.12,0-1.742-0.805-1.742-2.282c0.304-11.49,0.996-23.475,0.996-34.9c-0.125-7.652-3.982-11.544-11.323-11.544
				c-7.954,0-23.414-1.374-29.778,2.381c-6.217,3.669-28.439,32.335-32.096,40.636c-5.806,13.182-0.156,23.729,14.593,26.381
				c5.599,0.94,11.696,1.342,18.414,1.208c0.877,8.892,1.722,15.466,12.816,15.839c5.421,0.177,11.674,0.459,16.994-0.976
				c6.541-1.766,9.259-5.792,9.259-14.595c0-2.013,0.995-2.953,2.862-2.953c3.857,0,6.346-0.403,7.466-1.342
				C129.744,266.308,130.215,249.88,125.381,250.281L125.381,250.281z M63.17,251.623c0-3.446,10.666-19.329,13.438-19.329
				c2.648,0,2.006,18.777,0.249,20.672C75.079,255.156,63.17,256.081,63.17,251.623z"/>
			<path style="opacity:0.3;fill-rule:evenodd;clip-rule:evenodd;fill:#FFFFFF;" d="M82.737,207.38
				c-0.308,0.134-10.676,6.588-10.996,7.81c-1.347,5.139,8.574-1.222,9.86,0.776c2.788,4.335-0.23,56.494,1.657,59.157
				c3.02,4.261,18.627,3.223,20.641,0.795c2.744-3.31,2.214-68.136,1.527-68.79C103.221,205.033,87.648,205.237,82.737,207.38z"/>
			<path style="opacity:0.5;fill-rule:evenodd;clip-rule:evenodd;fill:#FFFFFF;" d="M87.719,208.345
				c-4.224,0.456-8.299,5.023-5.285,4.736c3.013-0.287,4.17,24.449,3.997,30.761c-0.062,2.241,1.769,2.847,2.195-0.307
				C89.279,238.698,90.644,208.029,87.719,208.345z"/>
			<path style="opacity:0.1;fill-rule:evenodd;clip-rule:evenodd;" d="M125.381,250.281l-0.165,0.009
				c0.579,4.795-0.187,10.912-1.646,12.136c-1.12,0.939-3.609,1.342-7.466,1.342c-1.867,0-2.862,0.94-2.862,2.953
				c0,8.802-2.718,12.829-9.259,14.595c-5.319,1.435-11.572,1.153-16.994,0.976c-3.652-0.123-6.193-0.918-7.99-2.247
				c1.289,4.812,4.082,7.967,11.668,8.223c5.421,0.177,11.674,0.459,16.994-0.976c6.541-1.766,9.259-5.792,9.259-14.595
				c0-2.013,0.995-2.953,2.862-2.953c3.857,0,6.346-0.403,7.466-1.342C129.744,266.308,130.215,249.88,125.381,250.281
				L125.381,250.281z M118.579,250.54c-0.719,0.027-3.688,0.412-4.228,0.053c-2.407-1.599,0.027-39.527,0.011-43.202
				c-0.006-1.317-0.154-2.524-0.395-3.617c2.624,1.87,4.05,5.076,4.073,9.594c0.05,9.756-0.505,19.92-0.841,29.836
				C117.185,243.645,116.236,251.024,118.579,250.54L118.579,250.54z M43.335,259.413c1.899,5.954,7.418,10.283,16.102,11.807
				c4.776,0.838,12.819,1.247,18.405,1.266c-0.355-1.827-0.567-3.846-0.779-6.001c-6.719,0.134-15.711-0.27-21.304-1.242
				C50.353,264.306,46.181,262.243,43.335,259.413L43.335,259.413z M63.82,253.201c-0.501-0.281-0.822-1.566-0.35-2.955
				c2.038-6.003,11.832-19.378,13.662-17.669c-0.122-3.914-3.105-6.259-4.203-6.259c-2.771,0-13.33,15.885-13.438,19.329
				C59.375,249.374,61.279,252.915,63.82,253.201z"/>
			<path style="opacity:0.3;fill-rule:evenodd;clip-rule:evenodd;fill:#FFFFFF;" d="M95.901,251.471
				c1.679-0.713,3.618,0.071,4.331,1.75c0.713,1.679-0.071,3.618-1.75,4.331c-1.679,0.713-3.618-0.071-4.331-1.75
				C93.439,254.123,94.222,252.184,95.901,251.471z"/>
			<path style="opacity:0.2;fill-rule:evenodd;clip-rule:evenodd;fill:#FFFFFF;" d="M92.813,262.439
				c1.073-0.456,2.312,0.045,2.768,1.118c0.455,1.073-0.045,2.312-1.118,2.768c-1.073,0.455-2.312-0.045-2.768-1.118
				C91.24,264.133,91.74,262.894,92.813,262.439z"/>
			<path style="opacity:0.2;fill-rule:evenodd;clip-rule:evenodd;fill:#FFFFFF;" d="M86.124,251.828
				c2-0.849,4.309,0.084,5.158,2.084c0.849,2-0.084,4.309-2.084,5.158c-1.999,0.849-4.309-0.084-5.158-2.084
				C83.192,254.986,84.125,252.676,86.124,251.828z"/>
		</g>
	</g>
	<g>
		<ellipse style="opacity:0.2;fill-rule:evenodd;clip-rule:evenodd;" cx="194.689" cy="282.721" rx="37.607" ry="8.893"/>
		<g>
			<path style="fill-rule:evenodd;clip-rule:evenodd;fill:#66D9FF;" d="M182.642,201.823c-7.839,0-12.318,3.759-13.687,11.141
				c-1.866,11.409-3.36,20.135-4.23,25.907c-0.124,1.074-0.249,1.879-0.249,2.416c0,6.577,5.475,10.068,16.548,10.604
				c5.35,0.268,7.963,2.551,7.963,6.98c0,0.805-0.124,1.611-0.249,2.551c-0.373,2.282-1.742,3.356-3.982,3.356
				c-2.488,0-6.097-1.342-10.701-4.161c-2.24-1.611-4.23-2.416-6.097-2.416c-2.364,0.134-4.604,2.953-6.47,8.456
				c-0.373,1.477-0.498,2.819-0.498,4.027c0,2.282,0.622,4.161,1.991,5.369c3.484,3.356,7.59,5.906,12.318,7.785
				c7.839,3.088,15.553,4.564,23.391,4.161c21.774-0.94,33.345-10.873,34.714-30.068c0.124-1.208,0.124-2.416,0.124-3.893
				c0-12.215-4.853-19.866-14.558-22.685c-3.111-0.94-6.097-1.342-8.958-1.342c-2.738,0-5.226,0.403-7.59,1.208l0.373-3.49
				c0.622-2.416,1.618-3.624,3.235-3.624c4.355,0,8.212-0.134,11.323-0.268c3.857-0.134,7.438-1.513,10.7-4.027
				c1.963-1.512,3.846-15.339,1.474-17.315C226.535,200,190.132,201.823,182.642,201.823z"/>
			<path style="opacity:0.3;fill-rule:evenodd;clip-rule:evenodd;fill:#FFFFFF;" d="M203.98,277.217
				c7.748-0.429,13.306-6.099,15.993-14.498c2.028-6.339,2.975-17.918-1.477-22.969c-4.497-5.102-22.998-4.252-26.12,0.933
				c-1.216,2.02,2.653,3.018,3.812,5.096c1.828,3.28,1.364,10.179,0.201,16.243c-2.524,13.167-21.03,0.256-21.903,6.715
				C173.954,272.685,189.584,278.014,203.98,277.217z"/>
			<path style="opacity:0.3;fill-rule:evenodd;clip-rule:evenodd;fill:#FFFFFF;" d="M189.973,239.915
				c0.569-0.597-1.098-2.42-0.961-4.494c0.249-3.762,0.075-9.335,0.516-14.464c0.233-2.712,0.764-5.287,1.233-7.449
				c0.668-3.083,13.644-4.208,12.193-6.828c-0.794-1.434-25.228-2.453-27.882,1.674c-1.275,1.984-5.071,24.541-4.309,30.773
				C171.07,241.626,187.759,242.239,189.973,239.915z"/>
			<path style="opacity:0.5;fill-rule:evenodd;clip-rule:evenodd;fill:#FFFFFF;" d="M183.998,207.163
				c-2.381,0.162-5.547,1.091-6.524,2.151c-1.727,1.875-2.921,9.21-3,11.841c-0.039,1.289,1.101,1.556,1.763-0.235
				c1.615-4.367,2.067-10.964,7.76-12.228C186.114,208.222,185.756,207.044,183.998,207.163z"/>
			<path style="opacity:0.5;fill-rule:evenodd;clip-rule:evenodd;fill:#FFFFFF;" d="M205.946,239.193
				c-4.612-0.945-10.592,1.692-8.512,4.367c2.589,3.33,1.752,9.846,1.708,12.212c-0.044,2.366,1.566,2.624,2.311,0.21
				c0.745-2.414,0.019-11.138,0.827-12.569C203.136,241.895,209.428,239.906,205.946,239.193z"/>
			<path style="opacity:0.1;fill-rule:evenodd;clip-rule:evenodd;" d="M164.559,242.637c0.721,5.707,6.175,8.754,16.465,9.255
				c1.704,0.083,6.118,0.465,7.627,4.174c-0.675-6.753-6.008-9.889-11.305-10.15C171.563,245.63,167.306,244.548,164.559,242.637
				L164.559,242.637z M161.03,271.63c3.093,2.603,6.624,4.654,10.593,6.232c7.839,3.087,15.553,4.564,23.391,4.161
				c21.774-0.94,33.345-10.873,34.714-30.068c0.124-1.208,0.124-2.416,0.124-3.893c0-4.378-0.623-8.17-1.87-11.363
				c3.698,3.999,5.549,9.799,5.549,17.34c0,1.477,0,2.685-0.124,3.893c-1.369,19.195-12.94,29.128-34.714,30.068
				c-7.839,0.402-15.553-1.074-23.391-4.161c-4.728-1.879-8.834-4.43-12.318-7.785C161.809,275.017,161.184,273.486,161.03,271.63
				L161.03,271.63z M208.229,224.094c3.461-0.035,6.551-0.146,9.128-0.257c3.857-0.134,7.438-1.513,10.7-4.027
				c1.963-1.512,3.846-15.339,1.474-17.315c-0.375-0.312-1.272-0.557-2.57-0.745c-0.071,9.805-2.326,15.716-13.281,16.112
				c-2.021,0.073-6.396,0.218-8.497,0.495c-2.232,0.295-2.08,5.872-2.165,8.513c0.602-1.482,0.583-2.834,3.321-2.834
				C206.962,224.035,207.593,224.054,208.229,224.094z"/>
			<path style="opacity:0.3;fill-rule:evenodd;clip-rule:evenodd;fill:#FFFFFF;" d="M180.228,224.624
				c1.679-0.713,3.618,0.071,4.331,1.75c0.713,1.679-0.071,3.618-1.75,4.331c-1.679,0.713-3.618-0.071-4.331-1.75
				C177.765,227.275,178.549,225.336,180.228,224.624z"/>
			<path style="opacity:0.2;fill-rule:evenodd;clip-rule:evenodd;fill:#FFFFFF;" d="M175.705,232.433
				c1.073-0.455,2.312,0.045,2.768,1.118c0.456,1.073-0.045,2.312-1.118,2.768c-1.073,0.455-2.312-0.045-2.768-1.118
				C174.131,234.128,174.632,232.888,175.705,232.433z"/>
			<path style="opacity:0.3;fill-rule:evenodd;clip-rule:evenodd;fill:#FFFFFF;" d="M203.127,266.474
				c1.679-0.713,3.618,0.071,4.331,1.75c0.713,1.679-0.071,3.618-1.75,4.331c-1.679,0.713-3.618-0.071-4.331-1.75
				C200.664,269.125,201.448,267.186,203.127,266.474z"/>
			<path style="opacity:0.2;fill-rule:evenodd;clip-rule:evenodd;fill:#FFFFFF;" d="M212.028,259.606
				c1.999-0.849,4.309,0.085,5.158,2.084c0.849,2-0.084,4.309-2.084,5.158c-2,0.849-4.309-0.085-5.158-2.084
				C209.095,262.765,210.028,260.455,212.028,259.606z"/>
		</g>
	</g>
	<g>
		<ellipse style="opacity:0.2;fill-rule:evenodd;clip-rule:evenodd;" cx="306.021" cy="282.721" rx="38.116" ry="8.893"/>
		<g>
			<path style="fill-rule:evenodd;clip-rule:evenodd;fill:#FFAE57;" d="M329.876,231.085c-4.355-1.745-8.211-2.282-11.82-1.611
				c1.867-5.772,4.479-10.738,7.59-15.168c2.613-3.893,1.991-7.114-1.991-9.53c-5.475-3.222-11.82-4.967-19.161-5.235
				c-4.853-0.134-8.834,0.671-11.696,2.416c-6.097,3.49-11.82,9.53-17.046,18.256c-5.35,8.993-8.212,17.852-8.336,26.712
				c-0.374,28.457,12.94,42.686,40.064,42.686c24.76,0,37.079-11.007,37.079-33.021
				C344.559,243.435,339.706,234.978,329.876,231.085L329.876,231.085z M316.065,267.865c-2.488,0.134-4.603-0.537-6.221-1.879
				c-1.866-1.477-2.862-3.49-2.986-6.041c-0.124-5.503,2.737-8.322,8.71-8.456c4.852-0.134,9.207,2.953,9.332,7.92
				c0.124,1.208-0.125,2.282-0.498,3.222C323.033,265.986,320.171,267.731,316.065,267.865z"/>
			<path style="opacity:0.3;fill-rule:evenodd;clip-rule:evenodd;fill:#FFFFFF;" d="M302.036,271.679
				c-8.47-4.802-7.486-17.808-5.489-25.854c3.134-12.625,10.89-28.804,14.969-33.266c4.972-5.439-6.089-7.383-10.799-7.539
				c-15.726-0.519-27.787,25.406-28.401,39.1c-0.953,21.276,7.186,32.163,26.975,33.931
				C306.3,278.678,309.303,275.799,302.036,271.679z"/>
			<path style="opacity:0.5;fill-rule:evenodd;clip-rule:evenodd;fill:#FFFFFF;" d="M305.925,208.041
				c-9.287-2.434-16.71,2.101-21.361,8.252c-0.967,1.28,0.035,2.973,1.788,1.373c3.56-3.248,9.914-7.208,18.404-7.429
				C307.451,210.169,308.045,208.597,305.925,208.041z"/>
			<path style="opacity:0.1;fill-rule:evenodd;clip-rule:evenodd;" d="M318.375,229.5c0.469-4.481,5.332-12.36,7.271-15.194
				c2.648-3.869,1.991-7.114-1.991-9.53l-0.16-0.093c-0.151,1.139-0.639,2.371-1.527,3.647c-3.09,4.444-7.739,15.443-9.605,21.215
				C314.284,229.188,316.275,229.173,318.375,229.5L318.375,229.5z M271.786,271.011c5.905,12.399,17.79,18.6,35.694,18.6
				c24.76,0,37.079-11.007,37.079-33.021c0-8.448-2.002-14.958-6.037-19.566c1.575,3.777,2.359,8.304,2.359,13.59
				c0,22.014-12.318,33.021-37.078,33.021C289.053,283.634,278.388,279.425,271.786,271.011L271.786,271.011z M307.668,263.307
				c-4.915-6.85-8.156-17.489,4.222-17.794c4.697-0.116,10.419,3.211,12.376,10.958c-1.871-4.624-8.191-6.079-12.976-4.238
				C305.331,254.525,306.824,261.849,307.668,263.307z"/>
			<path style="opacity:0.3;fill-rule:evenodd;clip-rule:evenodd;fill:#FFFFFF;" d="M287.941,231.73
				c1.679-0.713,3.618,0.071,4.331,1.75c0.713,1.679-0.071,3.618-1.75,4.331c-1.679,0.713-3.618-0.071-4.331-1.75
				C285.479,234.382,286.262,232.443,287.941,231.73z"/>
			<path style="opacity:0.2;fill-rule:evenodd;clip-rule:evenodd;fill:#FFFFFF;" d="M282.88,237.824
				c1.073-0.455,2.312,0.045,2.768,1.118c0.456,1.073-0.045,2.312-1.118,2.768c-1.073,0.456-2.312-0.045-2.767-1.118
				C281.306,239.518,281.806,238.279,282.88,237.824z"/>
			<path style="opacity:0.2;fill-rule:evenodd;clip-rule:evenodd;fill:#FFFFFF;" d="M281.59,223.314
				c2-0.849,4.309,0.084,5.158,2.084c0.849,1.999-0.085,4.309-2.084,5.158c-2,0.849-4.309-0.085-5.158-2.084
				C278.658,226.472,279.591,224.163,281.59,223.314z"/>
		</g>
	</g>
	<g>
		<ellipse style="opacity:0.2;fill-rule:evenodd;clip-rule:evenodd;" cx="410.946" cy="282.721" rx="30.877" ry="8.893"/>
		<g>
			<path style="fill-rule:evenodd;clip-rule:evenodd;fill:#28918A;" d="M403.289,246.254c-7.341,16.376-11.074,27.786-10.949,34.229
				c0.125,2.953,1.12,4.833,3.111,5.772c3.484,1.477,8.461,2.282,15.055,2.282c8.959,0,15.18-0.537,18.539-1.745
				c3.111-1.074,4.977-3.087,5.599-6.175c5.101-14.766,8.834-25.772,11.323-33.155c5.474-16.242,8.336-26.98,8.461-31.947
				c0.124-5.637-1.618-9.665-5.35-11.947c-2.488-1.476-7.59-2.282-15.179-2.282H420.46c-11.696,0-20.779,0.269-27.125,0.671
				c-4.106,0.269-6.968,2.014-8.461,5.369c-1.991,4.43-3.608,9.933-4.729,16.511c-0.124,0.939-0.248,1.879-0.248,2.684
				c0,3.356,1.368,5.235,4.106,5.369c4.728,0.268,8.585,0.402,11.571,0.537c3.359,0.134,5.599-1.342,6.719-4.161
				c1.493-3.624,3.235-5.235,5.225-4.698c1.866,0.537,2.613,2.013,2.488,4.564C409.884,230.683,407.644,236.723,403.289,246.254z"/>
			<path style="opacity:0.3;fill-rule:evenodd;clip-rule:evenodd;fill:#FFFFFF;" d="M401.989,208.75
				c-3.891,3.641,18.275,2.596,17.139,6.474c-2.138,7.296-4.629,18.057-8.02,25.421c-2.918,6.336-14.6,32.568-13.839,35.632
				c0.482,1.942,22.006,1.835,25.482-0.324c2.61-1.621,24.388-64.911,18.566-68.065C437.834,206.001,404.977,205.954,401.989,208.75
				z"/>
			<path style="opacity:0.5;fill-rule:evenodd;clip-rule:evenodd;fill:#FFFFFF;" d="M420.12,211.503
				c2.54,0.692-0.746,13.314-1.772,16.152c-1.026,2.839,0.389,3.108,1.735,0.4c1.346-2.707,5.318-16.499,4.228-17.859
				C422.764,208.266,410.632,208.921,420.12,211.503z"/>
			<path style="opacity:0.1;fill-rule:evenodd;clip-rule:evenodd;" d="M392.341,280.508c0.129,2.939,1.124,4.81,3.109,5.747
				c3.484,1.477,8.461,2.282,15.055,2.282c8.959,0,15.18-0.537,18.539-1.745c3.111-1.074,4.977-3.087,5.599-6.175
				c5.101-14.766,8.834-25.772,11.323-33.155c5.474-16.242,8.336-26.98,8.461-31.947c0.111-5.021-1.259-8.764-4.197-11.135
				c0.389,1.532,0.561,3.253,0.519,5.159c-0.124,4.967-2.986,15.705-8.461,31.947c-2.489,7.383-6.221,18.39-11.323,33.155
				c-0.622,3.088-2.488,5.101-5.599,6.175c-3.359,1.208-9.581,1.745-18.539,1.745C400.584,282.56,395.791,281.838,392.341,280.508
				L392.341,280.508z M379.92,225.881c0.132,0.016,0.267,0.027,0.406,0.034c4.728,0.268,8.585,0.403,11.571,0.537
				c3.359,0.134,5.599-1.342,6.719-4.161c3.709-9.004,9.55-3.155,10.915,2.845c-0.755-1.456-2.655-1.898-3.773-1.459
				c-1.591,0.626-2.809,2.969-3.464,4.59c-1.137,2.811-3.36,4.295-6.719,4.161c-2.986-0.134-6.843-0.268-11.571-0.537
				c-2.737-0.134-4.106-2.014-4.106-5.369C379.898,226.316,379.906,226.102,379.92,225.881z"/>
			<path style="opacity:0.3;fill-rule:evenodd;clip-rule:evenodd;fill:#FFFFFF;" d="M421.751,250.216
				c1.679-0.713,3.618,0.071,4.331,1.75c0.713,1.679-0.071,3.618-1.75,4.331c-1.679,0.713-3.618-0.071-4.331-1.75
				C419.288,252.868,420.072,250.928,421.751,250.216z"/>
			<path style="opacity:0.2;fill-rule:evenodd;clip-rule:evenodd;fill:#FFFFFF;" d="M412.267,249.655
				c1.073-0.455,2.312,0.045,2.768,1.118c0.455,1.073-0.045,2.313-1.118,2.768c-1.073,0.456-2.312-0.045-2.768-1.118
				C410.693,251.349,411.194,250.11,412.267,249.655z"/>
			<path style="opacity:0.2;fill-rule:evenodd;clip-rule:evenodd;fill:#FFFFFF;" d="M414.764,260.144
				c2-0.849,4.309,0.085,5.158,2.084c0.849,2-0.084,4.309-2.084,5.158c-1.999,0.849-4.309-0.085-5.158-2.084
				C411.831,263.302,412.764,260.993,414.764,260.144z"/>
		</g>
	</g>
	<g>
		<path style="opacity:0.2;fill-rule:evenodd;clip-rule:evenodd;" d="M145.326,396.969c21.051,0,38.116,3.981,38.116,8.893
			c0,4.912-17.065,8.893-38.116,8.893s-38.116-3.981-38.116-8.893C107.21,400.95,124.274,396.969,145.326,396.969z"/>
		<g>
			<path style="fill-rule:evenodd;clip-rule:evenodd;fill:#F05C38;" d="M145.325,411.607c23.516,0,35.212-9.53,34.963-28.457
				c-0.124-6.846-2.986-12.215-8.834-16.242c5.35-4.162,7.963-9.933,7.963-17.316c0-18.255-11.323-27.383-34.092-27.383
				c-22.769,0-34.092,9.128-34.092,27.383c0,7.383,2.613,13.154,7.963,17.316c-5.848,4.027-8.71,9.396-8.834,16.242
				C110.114,402.076,121.81,411.607,145.325,411.607L145.325,411.607z M155.901,343.551c4.106,0.134,6.968,1.879,8.337,5.235
				c0.373,0.94,0.622,2.014,0.497,3.222c-0.124,2.416-1.742,4.564-4.977,6.309c-2.489-1.879-5.599-4.161-9.207-6.711
				c-1.368-0.94-1.991-2.013-1.991-3.222c0-0.94,0.373-1.879,1.12-2.953C151.298,344.088,153.413,343.417,155.901,343.551
				L155.901,343.551z M134.75,390.264c-4.106-0.134-6.968-1.879-8.337-5.235c-0.373-0.939-0.622-2.014-0.497-3.222
				c0.124-2.416,1.244-4.832,3.484-7.383c5.102,3.759,8.71,6.309,10.701,7.785c1.368,0.94,1.991,2.014,1.991,3.222
				c0,0.94-0.373,1.879-1.12,2.953C139.353,389.727,137.238,390.398,134.75,390.264z"/>
			<path style="opacity:0.3;fill-rule:evenodd;clip-rule:evenodd;fill:#FFFFFF;" d="M164.976,392.977
				c4.799-5.926,5.727-11.805,2.257-17.741c-6.24-10.678-33.796-19.348-30.718-35.601c1.575-8.32,7.816-6.801,8.842-10.39
				c0.379-1.326-1.368-2.415-8.08-2.316c-6.782,0.1-14.071,3.381-17.799,7.851c-4.694,5.63-4.568,15.07-0.003,20.79
				c7.985,10.005,27.516,15.053,27.516,26.945c0,8.216-4.509,11.55-9.438,12.811c-5.913,1.513-3.693,4.044,1.167,4.611
				C147.971,401.017,159.518,399.716,164.976,392.977z"/>
			<path style="opacity:0.5;fill-rule:evenodd;clip-rule:evenodd;fill:#FFFFFF;" d="M135.639,329.001
				c-9.588-0.256-16.055,6.959-17.382,14.328c-0.284,1.577,1.285,3.173,2.051,0.93c1.58-4.624,6.484-10.711,14.693-12.855
				C137.607,330.723,137.828,329.059,135.639,329.001z"/>
			<path style="opacity:0.1;fill-rule:evenodd;clip-rule:evenodd;" d="M145.325,411.607c23.516,0,35.212-9.53,34.963-28.457
				c-0.092-5.086-1.697-9.357-4.914-12.868c0.782,2.106,1.19,4.401,1.236,6.892c0.249,18.926-11.447,28.457-34.963,28.457
				c-13.764,0-23.476-3.266-29.116-9.769C116.898,406.339,127.845,411.607,145.325,411.607L145.325,411.607z M171.454,366.908
				c5.029-3.695,7.963-10.616,7.963-17.316c0-7.533-1.93-13.509-5.794-17.934c1.411,3.418,2.116,7.403,2.116,11.957
				c0,7.382-4.028,14.351-9.378,18.512C168.511,363.783,170.123,365.143,171.454,366.908L171.454,366.908z M112.748,358.365
				c0.457,1.181,1.02,2.299,1.687,3.354c0.35-0.268,0.71-0.531,1.084-0.789C114.495,360.135,113.572,359.279,112.748,358.365
				L112.748,358.365z M155.901,343.551c2.036,0.17,6.275,0.726,8.022,4.545c-1.096-3.629-6.761-10.36-11.7-10.521
				c-2.859-0.154-6.741,0.691-6.938,4.126c-0.209,3.653,2.908,8.415,3.98,8.72c-1.312-2.184-0.572-3.409,0.091-4.497
				C150.533,343.992,153.9,343.384,155.901,343.551L155.901,343.551z M127.712,387.239c-6.001-5.028-7.087-12.986-1.991-18.791
				c6.696,4.933,12.103,7.375,15.793,15.125c-1.989-2.238-8.374-6.393-12.115-9.149c-2.239,2.551-3.343,4.968-3.484,7.383
				C125.894,382.183,125.901,385.467,127.712,387.239z"/>
			<path style="opacity:0.3;fill-rule:evenodd;clip-rule:evenodd;fill:#FFFFFF;" d="M153.458,369.399
				c1.679-0.713,3.618,0.071,4.331,1.75c0.713,1.679-0.071,3.618-1.75,4.331c-1.679,0.713-3.618-0.071-4.331-1.75
				C150.995,372.051,151.779,370.112,153.458,369.399z"/>
			<path style="opacity:0.3;fill-rule:evenodd;clip-rule:evenodd;fill:#FFFFFF;" d="M155.976,378.723
				c1.073-0.456,2.312,0.045,2.768,1.118c0.456,1.073-0.045,2.312-1.118,2.767c-1.073,0.456-2.312-0.045-2.768-1.118
				C154.402,380.418,154.903,379.178,155.976,378.723z"/>
			<path style="opacity:0.2;fill-rule:evenodd;clip-rule:evenodd;fill:#FFFFFF;" d="M141.883,363.874
				c1.073-0.455,2.312,0.045,2.768,1.118c0.456,1.073-0.045,2.312-1.118,2.768c-1.073,0.456-2.312-0.045-2.768-1.118
				C140.31,365.569,140.811,364.33,141.883,363.874z"/>
			<path style="opacity:0.2;fill-rule:evenodd;clip-rule:evenodd;fill:#FFFFFF;" d="M127.407,349.25
				c2-0.849,4.309,0.085,5.158,2.084c0.849,2-0.085,4.309-2.084,5.158c-1.999,0.849-4.309-0.085-5.158-2.084
				C124.475,352.408,125.408,350.098,127.407,349.25z"/>
		</g>
	</g>
	<g>
		<path style="opacity:0.2;fill-rule:evenodd;clip-rule:evenodd;" d="M246.69,396.969c19.706,0,35.681,3.981,35.681,8.893
			c0,4.912-15.975,8.893-35.681,8.893c-19.706,0-35.681-3.981-35.681-8.893C211.009,400.95,226.984,396.969,246.69,396.969z"/>
		<g>
			<path style="fill-rule:evenodd;clip-rule:evenodd;fill:#28918A;" d="M225.146,379.928c5.35,1.879,9.207,2.551,11.82,2.014
				c-1.867,5.772-4.355,10.739-7.466,15.034c-2.613,3.624-1.99,6.846,1.866,9.665c5.101,3.624,11.447,5.503,18.912,5.369
				c5.101,0.134,9.332-0.939,12.816-3.087c5.723-3.222,11.198-9.396,16.548-18.39c5.35-8.993,7.963-17.719,7.963-26.041
				c0-28.457-13.313-42.686-40.064-42.686c-23.267-0.134-35.585,9.531-36.954,28.725c-0.124,1.208-0.124,2.551-0.124,4.161
				C210.464,367.847,215.316,376.303,225.146,379.928L225.146,379.928z M238.957,343.551c4.977-0.134,9.083,2.685,9.208,7.92
				c0.124,5.504-2.737,8.323-8.71,8.457c-2.364,0.134-4.479-0.537-6.221-2.013c-1.991-1.477-2.987-3.356-3.111-5.906
				c-0.124-1.208,0.124-2.282,0.498-3.222C231.989,345.43,234.851,343.685,238.957,343.551z"/>
			<path style="opacity:0.3;fill-rule:evenodd;clip-rule:evenodd;fill:#FFFFFF;" d="M253.75,343.671
				c1.388,14.449-9.49,39.417-15.679,46.445c-6.431,7.302,1.375,11.746,11.034,10.378c15.325-2.171,26.602-27.768,26.602-38.918
				c0-13.816-4.415-24.865-13.261-29.966c-7.272-4.194-24.08-4.703-26.119-1.3C234.004,334.183,252.702,332.762,253.75,343.671z"/>
			<path style="opacity:0.5;fill-rule:evenodd;clip-rule:evenodd;fill:#FFFFFF;" d="M254.912,337.64
				c1.295,2.291,1.08,12.2,0.617,15.183c-0.464,2.982,0.977,2.976,1.78,0.061c0.803-2.915,3.634-14.651,0.917-18.062
				c-2.621-3.292-11.012-3.923-9.751-2.571C249.604,333.462,253.068,334.378,254.912,337.64z"/>
			<path style="opacity:0.1;fill-rule:evenodd;clip-rule:evenodd;" d="M225.146,379.928c2.246,0.817,8.408,2.557,11.82,2.014
				c0.792-1.806,0.863-3.354,1.329-5.261c-2.613,0.537-11.156-0.483-16.828-2.729c-3.506-1.388-6.432-3.236-8.686-5.786
				C215.12,373.816,219.223,377.772,225.146,379.928L225.146,379.928z M227.929,400.833c5.06,3.514,11.324,5.333,18.672,5.2
				c5.102,0.134,9.332-0.94,12.816-3.087c5.723-3.221,11.198-9.396,16.548-18.39c5.35-8.993,7.963-17.719,7.963-26.041
				c0-9.632-1.527-17.632-4.583-24.004c5.511,7.055,8.261,17.048,8.261,29.981c0,8.322-2.613,17.047-7.963,26.041
				c-5.35,8.993-10.825,15.168-16.548,18.39c-3.484,2.148-7.715,3.222-12.816,3.087c-7.465,0.134-13.811-1.745-18.912-5.369
				C228.937,404.864,227.791,402.928,227.929,400.833L227.929,400.833z M238.957,343.551c2.051-0.063,5.819,0.216,8.456,4.539
				c-1.241-6.616-7.364-10.656-12.133-10.515c-4.106,0.121-6.968,1.879-8.336,5.235c-1.622,4.083,1.275,10.784,4.448,13.236
				c-0.976-1.67-2.055-3.665-0.77-7.26C231.84,345.374,234.851,343.677,238.957,343.551z"/>
			<path style="opacity:0.3;fill-rule:evenodd;clip-rule:evenodd;fill:#FFFFFF;" d="M251.225,385.751
				c1.679-0.713,3.618,0.071,4.331,1.75c0.713,1.679-0.071,3.618-1.75,4.331c-1.679,0.713-3.618-0.071-4.331-1.75
				C248.762,388.403,249.546,386.463,251.225,385.751z"/>
			<path style="opacity:0.2;fill-rule:evenodd;clip-rule:evenodd;fill:#FFFFFF;" d="M257.04,380.349
				c1.073-0.455,2.312,0.045,2.768,1.118c0.455,1.073-0.045,2.312-1.119,2.768c-1.073,0.455-2.312-0.045-2.767-1.118
				C255.467,382.044,255.967,380.805,257.04,380.349z"/>
			<path style="opacity:0.3;fill-rule:evenodd;clip-rule:evenodd;fill:#FFFFFF;" d="M251.026,379.198
				c1.073-0.456,2.312,0.045,2.768,1.118c0.455,1.073-0.045,2.312-1.118,2.768c-1.073,0.455-2.312-0.045-2.767-1.118
				C249.453,380.892,249.953,379.653,251.026,379.198z"/>
			<path style="opacity:0.2;fill-rule:evenodd;clip-rule:evenodd;fill:#FFFFFF;" d="M256.969,366.622
				c2-0.849,4.309,0.085,5.158,2.084c0.849,2-0.084,4.309-2.084,5.158c-2,0.849-4.309-0.085-5.158-2.084
				C254.036,369.78,254.969,367.471,256.969,366.622z"/>
		</g>
	</g>
	<g>
		<path style="opacity:0.2;fill-rule:evenodd;clip-rule:evenodd;" d="M361.268,396.969c19.706,0,35.681,3.981,35.681,8.893
			c0,4.912-15.975,8.893-35.681,8.893s-35.681-3.981-35.681-8.893C325.587,400.95,341.562,396.969,361.268,396.969z"/>
		<g>
			<path style="fill-rule:evenodd;clip-rule:evenodd;fill:#D65E98;" d="M397.226,349.994c-5.226-18.792-17.419-28.189-36.581-28.189
				c-12.193,0-21.649,4.295-28.368,12.886c-6.221,8.054-9.332,18.792-9.332,32.216c0,13.557,3.11,24.43,9.332,32.35
				c6.594,8.457,16.051,12.752,28.368,12.752c12.318,0,22.023-4.161,28.991-12.618c6.595-8.054,9.954-18.792,9.954-32.215
				c0-5.772-0.622-11.141-1.991-15.839L397.226,349.994L397.226,349.994z M363.756,387.714c-1.617,0.268-3.235-0.268-4.853-1.745
				c-4.603-4.161-6.843-11.41-6.843-22.014c0-1.476,0-2.953,0.124-4.564c0.498-9.128,3.111-13.558,7.714-13.423
				c4.23,0.134,7.216,4.027,8.958,11.544c1.244,5.235,1.742,10.604,1.493,16.376C369.977,382.076,367.738,386.639,363.756,387.714z"
				/>
			<path style="opacity:0.3;fill-rule:evenodd;clip-rule:evenodd;fill:#FFFFFF;" d="M346.072,384.986
				c-7.548-12.141-11.853-42.581,0.485-53c4.437-3.747,2.809-8.126-5.328-2.014c-12.715,10.991-17.88,38.106-10.642,53.178
				C335.732,393.861,349.218,390.046,346.072,384.986z"/>
			<path style="opacity:0.3;fill-rule:evenodd;clip-rule:evenodd;fill:#FFFFFF;" d="M366.796,346.483
				c8.461,10.516,10.142,39.508-0.371,48.771c-4.738,4.175-0.909,7.225,4.807,2.305c14.083-12.122,19.947-40.708,6.966-54.851
				C373.947,338.075,363.076,338.969,366.796,346.483z"/>
			<path style="opacity:0.5;fill-rule:evenodd;clip-rule:evenodd;fill:#FFFFFF;" d="M343.124,330.7
				c-5.548,4.355-11.174,14.34-12.26,20.647c-0.518,3.008,3.084,3.96,3.675,0.828c0.893-4.736,2.804-14.249,9.173-19.866
				C344.977,331.191,343.945,330.056,343.124,330.7z"/>
			<path style="opacity:0.5;fill-rule:evenodd;clip-rule:evenodd;fill:#FFFFFF;" d="M376.304,368.056
				c1.344-6.924-0.938-18.156-4.244-23.635c-1.577-2.613-4.923-0.975-3.32,1.78c2.424,4.165,7.206,12.608,6.068,21.023
				C374.582,368.897,376.105,369.081,376.304,368.056z"/>
			<path style="opacity:0.1;fill-rule:evenodd;clip-rule:evenodd;" d="M397.226,349.994c-1.668-5.997-4.046-11.035-7.133-15.119
				c1.372,2.75,2.525,5.797,3.455,9.142l0.373,1.342c1.369,4.698,1.991,10.067,1.991,15.839c0,13.423-3.36,24.162-9.954,32.216
				c-6.968,8.457-16.673,12.618-28.991,12.618c-12.318,0-21.774-4.295-28.368-12.752c-0.143-0.182-0.284-0.366-0.424-0.552
				c1.17,2.36,2.538,4.537,4.102,6.528c6.594,8.457,16.051,12.752,28.368,12.752c12.318,0,22.023-4.161,28.991-12.618
				c6.595-8.054,9.954-18.792,9.954-32.215c0-5.772-0.622-11.141-1.991-15.839L397.226,349.994L397.226,349.994z M356.055,382.531
				c-6.262-6.98-8.259-19.9-7.548-29.117c0.498-9.128,3.111-13.562,7.714-13.423c3.421,0.103,7.49,3.621,9.622,9.726
				c-1.825-2.88-4.397-3.704-5.944-3.75c-7.657-0.228-7.839,12.371-7.839,17.987C352.06,370.155,353.067,378.141,356.055,382.531z"
				/>
			<path style="opacity:0.3;fill-rule:evenodd;clip-rule:evenodd;fill:#FFFFFF;" d="M333.921,374.569
				c1.679-0.713,3.618,0.071,4.331,1.75c0.713,1.679-0.071,3.618-1.75,4.331c-1.679,0.713-3.618-0.071-4.331-1.75
				C331.458,377.22,332.242,375.281,333.921,374.569z"/>
			<path style="opacity:0.2;fill-rule:evenodd;clip-rule:evenodd;fill:#FFFFFF;" d="M338.543,381.791
				c1.073-0.456,2.312,0.045,2.767,1.118c0.456,1.073-0.045,2.312-1.118,2.768c-1.073,0.455-2.312-0.045-2.767-1.118
				C336.969,383.486,337.47,382.247,338.543,381.791z"/>
			<path style="opacity:0.3;fill-rule:evenodd;clip-rule:evenodd;fill:#FFFFFF;" d="M376.875,375.473
				c1.073-0.455,2.312,0.045,2.768,1.118c0.456,1.073-0.045,2.312-1.118,2.768c-1.073,0.456-2.312-0.045-2.768-1.118
				C375.302,377.168,375.802,375.928,376.875,375.473z"/>
			<path style="opacity:0.2;fill-rule:evenodd;clip-rule:evenodd;fill:#FFFFFF;" d="M332.64,361.456
				c2-0.849,4.309,0.085,5.158,2.084c0.849,2-0.085,4.309-2.084,5.158c-2,0.849-4.309-0.085-5.158-2.084
				C329.707,364.614,330.64,362.304,332.64,361.456z"/>
		</g>
	</g>
</g>
<g id="DESIGNED_BY_FREEPIK">
	<g>
		<g>
			<path style="fill-rule:evenodd;clip-rule:evenodd;fill:#808080;" d="M181.047,466.567c-0.246,0-0.435,0.085-0.567,0.255
				c-0.133,0.17-0.199,0.421-0.199,0.753v2.392c-0.305-0.331-0.617-0.578-0.938-0.739c-0.321-0.159-0.715-0.24-1.181-0.24
				c-0.807,0-1.458,0.283-1.953,0.848c-0.494,0.565-0.742,1.356-0.742,2.369c0,0.478,0.063,0.923,0.187,1.335
				c0.124,0.412,0.307,0.77,0.549,1.074c0.241,0.305,0.526,0.54,0.857,0.704c0.33,0.164,0.69,0.246,1.078,0.246
				c0.293,0,0.563-0.04,0.809-0.122c0.247-0.081,0.477-0.2,0.689-0.356c0.212-0.156,0.427-0.359,0.644-0.608v0.16
				c0,0.297,0.072,0.525,0.216,0.685c0.145,0.16,0.328,0.24,0.549,0.24c0.226,0,0.409-0.078,0.552-0.231
				c0.143-0.154,0.213-0.386,0.213-0.694v-7.146c0-0.305-0.066-0.534-0.199-0.691C181.481,466.645,181.292,466.567,181.047,466.567
				L181.047,466.567z M179.981,473.408L179.981,473.408c-0.14,0.306-0.328,0.533-0.563,0.681c-0.236,0.149-0.496,0.223-0.781,0.223
				c-0.281,0-0.54-0.078-0.777-0.236c-0.238-0.155-0.424-0.387-0.561-0.696c-0.136-0.309-0.204-0.682-0.204-1.122
				c0-0.416,0.063-0.78,0.193-1.095c0.128-0.315,0.309-0.556,0.543-0.724c0.233-0.168,0.499-0.253,0.795-0.253
				c0.285,0,0.547,0.082,0.786,0.246c0.239,0.165,0.429,0.402,0.569,0.712c0.141,0.311,0.211,0.682,0.211,1.114
				C180.192,472.717,180.122,473.1,179.981,473.408z"/>
			<path style="fill-rule:evenodd;clip-rule:evenodd;fill:#808080;" d="M188.412,472.487c0.233-0.122,0.35-0.385,0.35-0.793
				c0-0.438-0.113-0.87-0.338-1.294c-0.225-0.423-0.565-0.769-1.019-1.035c-0.453-0.268-0.996-0.4-1.628-0.4
				c-0.487,0-0.93,0.077-1.33,0.234c-0.4,0.157-0.736,0.381-1.009,0.674c-0.273,0.293-0.48,0.644-0.623,1.054
				c-0.143,0.409-0.214,0.853-0.214,1.332c0,1.017,0.289,1.822,0.867,2.415c0.577,0.592,1.387,0.89,2.428,0.89
				c0.455,0,0.858-0.059,1.207-0.178c0.352-0.12,0.641-0.268,0.873-0.448c0.231-0.18,0.404-0.368,0.519-0.564
				c0.115-0.197,0.172-0.367,0.172-0.514c0-0.166-0.052-0.294-0.155-0.386c-0.103-0.09-0.237-0.136-0.403-0.136
				c-0.154,0-0.273,0.035-0.357,0.107c-0.202,0.19-0.366,0.34-0.492,0.452c-0.126,0.111-0.265,0.215-0.415,0.312
				c-0.15,0.098-0.305,0.167-0.466,0.214c-0.16,0.045-0.337,0.067-0.531,0.067c-0.289,0-0.553-0.07-0.792-0.213
				c-0.239-0.142-0.432-0.354-0.576-0.635c-0.145-0.281-0.218-0.605-0.222-0.973h3.169
				C187.85,472.668,188.179,472.608,188.412,472.487L188.412,472.487z M184.257,471.748L184.257,471.748
				c0.056-0.546,0.213-0.959,0.472-1.238c0.259-0.28,0.59-0.418,0.994-0.418c0.424,0,0.764,0.137,1.024,0.412
				c0.259,0.275,0.409,0.69,0.448,1.244H184.257z"/>
			<path style="fill-rule:evenodd;clip-rule:evenodd;fill:#808080;" d="M193.839,472.05c-0.319-0.17-0.729-0.316-1.231-0.439
				c-0.425-0.103-0.756-0.191-0.997-0.261c-0.242-0.07-0.434-0.161-0.577-0.27c-0.142-0.109-0.213-0.248-0.213-0.419
				c0-0.186,0.096-0.341,0.291-0.465c0.194-0.126,0.437-0.187,0.73-0.187c0.286,0,0.511,0.047,0.678,0.142
				c0.166,0.095,0.31,0.222,0.433,0.38c0.151,0.19,0.284,0.332,0.401,0.427c0.116,0.095,0.258,0.144,0.424,0.144
				c0.23,0,0.408-0.061,0.532-0.178c0.124-0.119,0.186-0.272,0.186-0.457c0-0.171-0.058-0.345-0.175-0.523
				c-0.116-0.178-0.286-0.34-0.51-0.486c-0.223-0.146-0.502-0.264-0.837-0.35c-0.333-0.088-0.71-0.131-1.13-0.131
				c-0.535,0-0.99,0.086-1.367,0.259c-0.378,0.172-0.665,0.403-0.859,0.691c-0.194,0.289-0.291,0.596-0.291,0.92
				c0,0.363,0.105,0.67,0.315,0.92c0.21,0.249,0.49,0.45,0.84,0.602c0.35,0.152,0.804,0.298,1.362,0.436
				c0.494,0.12,0.85,0.244,1.066,0.375c0.216,0.131,0.324,0.338,0.324,0.622c0,0.187-0.104,0.352-0.311,0.497
				c-0.208,0.144-0.473,0.216-0.798,0.216c-0.4,0-0.715-0.071-0.947-0.213c-0.231-0.143-0.431-0.357-0.597-0.647
				c-0.083-0.149-0.17-0.266-0.261-0.35c-0.091-0.082-0.221-0.124-0.39-0.124c-0.194,0-0.355,0.064-0.481,0.19
				c-0.128,0.126-0.19,0.278-0.19,0.456c0,0.27,0.099,0.537,0.297,0.805c0.198,0.266,0.505,0.49,0.92,0.667
				c0.415,0.178,0.914,0.267,1.495,0.267c0.61,0,1.127-0.082,1.553-0.246c0.426-0.164,0.747-0.406,0.964-0.724
				c0.219-0.319,0.327-0.702,0.327-1.149c0-0.297-0.082-0.56-0.246-0.791C194.398,472.422,194.157,472.22,193.839,472.05z"/>
			<path style="fill-rule:evenodd;clip-rule:evenodd;fill:#808080;" d="M196.446,468.976c-0.238,0-0.43,0.081-0.579,0.243
				c-0.149,0.162-0.222,0.404-0.222,0.724v4.635c0,0.317,0.073,0.56,0.222,0.73c0.148,0.17,0.341,0.255,0.579,0.255
				c0.238,0,0.433-0.083,0.588-0.249c0.154-0.166,0.231-0.412,0.231-0.737v-4.682c0-0.289-0.077-0.514-0.231-0.677
				C196.879,469.057,196.684,468.976,196.446,468.976z"/>
			<path style="fill-rule:evenodd;clip-rule:evenodd;fill:#808080;" d="M196.464,466.638c-0.217,0-0.409,0.073-0.573,0.223
				c-0.164,0.149-0.246,0.337-0.246,0.567c0,0.254,0.08,0.45,0.24,0.588c0.16,0.138,0.353,0.208,0.578,0.208
				c0.217,0,0.405-0.071,0.564-0.211c0.158-0.14,0.238-0.335,0.238-0.585c0-0.258-0.081-0.453-0.243-0.588
				C196.86,466.705,196.674,466.638,196.464,466.638z"/>
			<path style="fill-rule:evenodd;clip-rule:evenodd;fill:#808080;" d="M203.586,468.976c-0.217,0-0.395,0.078-0.534,0.231
				c-0.139,0.155-0.208,0.372-0.208,0.653v0.22c-0.289-0.376-0.602-0.652-0.937-0.829c-0.337-0.175-0.735-0.264-1.194-0.264
				c-0.384,0-0.736,0.068-1.056,0.204c-0.321,0.137-0.604,0.34-0.849,0.609c-0.245,0.269-0.433,0.599-0.566,0.992
				c-0.133,0.391-0.199,0.831-0.199,1.318c0,0.653,0.109,1.228,0.326,1.727c0.217,0.499,0.529,0.886,0.934,1.163
				c0.407,0.277,0.88,0.416,1.422,0.416c0.45,0,0.84-0.091,1.166-0.273c0.327-0.182,0.614-0.448,0.864-0.797
				c-0.008,0.531-0.02,0.915-0.035,1.155c-0.016,0.24-0.07,0.464-0.163,0.673c-0.093,0.21-0.255,0.373-0.486,0.49
				c-0.231,0.117-0.557,0.175-0.977,0.175c-0.205,0-0.387-0.02-0.545-0.056c-0.159-0.038-0.294-0.095-0.406-0.172
				c-0.112-0.078-0.216-0.17-0.309-0.279c-0.093-0.109-0.183-0.217-0.27-0.324c-0.178-0.209-0.386-0.314-0.624-0.314
				c-0.189,0-0.352,0.062-0.486,0.187c-0.135,0.124-0.202,0.285-0.202,0.483c0,0.262,0.119,0.516,0.356,0.763
				c0.238,0.247,0.576,0.449,1.014,0.605c0.439,0.156,0.939,0.234,1.496,0.234c0.609,0,1.119-0.061,1.528-0.184
				c0.409-0.122,0.741-0.31,0.994-0.563c0.253-0.254,0.437-0.574,0.552-0.961c0.115-0.389,0.173-0.851,0.173-1.389v-4.706
				c0-0.384-0.051-0.678-0.155-0.882C204.106,469.079,203.898,468.976,203.586,468.976L203.586,468.976z M202.56,473.342
				L202.56,473.342c-0.152,0.291-0.346,0.508-0.586,0.653c-0.239,0.144-0.493,0.217-0.762,0.217c-0.455,0-0.826-0.168-1.113-0.505
				c-0.287-0.336-0.43-0.834-0.43-1.49c0-0.649,0.139-1.15,0.418-1.502c0.279-0.352,0.649-0.528,1.113-0.528
				c0.475,0,0.857,0.184,1.149,0.553c0.291,0.367,0.436,0.882,0.436,1.543C202.785,472.698,202.709,473.051,202.56,473.342z"/>
			<path style="fill-rule:evenodd;clip-rule:evenodd;fill:#808080;" d="M210.938,470.044c-0.165-0.339-0.417-0.602-0.753-0.789
				c-0.337-0.186-0.718-0.279-1.146-0.279c-0.439,0-0.828,0.088-1.166,0.264c-0.339,0.176-0.651,0.452-0.935,0.828v-0.196
				c0-0.194-0.034-0.358-0.104-0.493c-0.07-0.134-0.162-0.234-0.276-0.302c-0.115-0.068-0.244-0.101-0.387-0.101
				c-0.233,0-0.417,0.076-0.552,0.228c-0.134,0.152-0.201,0.383-0.201,0.692v4.682c0,0.317,0.076,0.56,0.226,0.73
				c0.15,0.17,0.342,0.255,0.576,0.255c0.241,0,0.438-0.082,0.59-0.246c0.152-0.164,0.228-0.411,0.228-0.74v-2.03
				c0-0.661,0.04-1.111,0.119-1.353c0.11-0.3,0.284-0.537,0.522-0.71c0.237-0.173,0.501-0.258,0.789-0.258
				c0.444,0,0.739,0.142,0.888,0.425c0.148,0.283,0.223,0.692,0.223,1.225v2.7c0,0.317,0.074,0.56,0.226,0.73
				c0.15,0.17,0.345,0.255,0.587,0.255c0.238,0,0.431-0.083,0.578-0.249c0.149-0.166,0.223-0.412,0.223-0.737v-3.015
				c0-0.356-0.016-0.648-0.048-0.878C211.115,470.457,211.046,470.242,210.938,470.044z"/>
			<path style="fill-rule:evenodd;clip-rule:evenodd;fill:#808080;" d="M217.781,472.487c0.234-0.122,0.35-0.385,0.35-0.793
				c0-0.438-0.114-0.87-0.338-1.294c-0.226-0.423-0.565-0.769-1.019-1.035c-0.453-0.268-0.995-0.4-1.628-0.4
				c-0.487,0-0.93,0.077-1.33,0.234c-0.4,0.157-0.736,0.381-1.009,0.674c-0.273,0.293-0.481,0.644-0.624,1.054
				c-0.142,0.409-0.214,0.853-0.214,1.332c0,1.017,0.289,1.822,0.867,2.415c0.578,0.592,1.387,0.89,2.427,0.89
				c0.455,0,0.858-0.059,1.209-0.178c0.35-0.12,0.64-0.268,0.871-0.448c0.232-0.18,0.405-0.368,0.52-0.564
				c0.115-0.197,0.172-0.367,0.172-0.514c0-0.166-0.051-0.294-0.154-0.386c-0.103-0.09-0.238-0.136-0.404-0.136
				c-0.154,0-0.273,0.035-0.356,0.107c-0.201,0.19-0.366,0.34-0.492,0.452c-0.128,0.111-0.266,0.215-0.416,0.312
				c-0.151,0.098-0.306,0.167-0.465,0.214c-0.161,0.045-0.338,0.067-0.532,0.067c-0.288,0-0.553-0.07-0.792-0.213
				c-0.239-0.142-0.431-0.354-0.575-0.635c-0.145-0.281-0.219-0.605-0.223-0.973h3.169
				C217.22,472.668,217.548,472.608,217.781,472.487L217.781,472.487z M213.627,471.748L213.627,471.748
				c0.055-0.546,0.212-0.959,0.471-1.238c0.259-0.28,0.591-0.418,0.995-0.418c0.424,0,0.765,0.137,1.024,0.412
				c0.259,0.275,0.409,0.69,0.448,1.244H213.627z"/>
			<path style="fill-rule:evenodd;clip-rule:evenodd;fill:#808080;" d="M224.167,466.567c-0.245,0-0.435,0.085-0.567,0.255
				c-0.132,0.17-0.199,0.421-0.199,0.753v2.392c-0.304-0.331-0.616-0.578-0.938-0.739c-0.32-0.159-0.714-0.24-1.181-0.24
				c-0.808,0-1.458,0.283-1.953,0.848c-0.495,0.565-0.742,1.356-0.742,2.369c0,0.478,0.062,0.923,0.187,1.335
				c0.124,0.412,0.308,0.77,0.549,1.074c0.241,0.305,0.527,0.54,0.857,0.704c0.33,0.164,0.689,0.246,1.077,0.246
				c0.293,0,0.563-0.04,0.81-0.122c0.247-0.081,0.476-0.2,0.688-0.356c0.211-0.156,0.426-0.359,0.643-0.608v0.16
				c0,0.297,0.072,0.525,0.217,0.685c0.145,0.16,0.328,0.24,0.549,0.24c0.226,0,0.409-0.078,0.552-0.231
				c0.143-0.154,0.213-0.386,0.213-0.694v-7.146c0-0.305-0.066-0.534-0.199-0.691C224.601,466.645,224.412,466.567,224.167,466.567
				L224.167,466.567z M223.101,473.408L223.101,473.408c-0.14,0.306-0.328,0.533-0.564,0.681c-0.236,0.149-0.495,0.223-0.781,0.223
				c-0.281,0-0.54-0.078-0.776-0.236c-0.238-0.155-0.425-0.387-0.561-0.696c-0.137-0.309-0.205-0.682-0.205-1.122
				c0-0.416,0.064-0.78,0.193-1.095c0.129-0.315,0.31-0.556,0.543-0.724c0.233-0.168,0.499-0.253,0.795-0.253
				c0.285,0,0.547,0.082,0.787,0.246c0.239,0.165,0.43,0.402,0.57,0.712c0.14,0.311,0.211,0.682,0.211,1.114
				C223.312,472.717,223.242,473.1,223.101,473.408z"/>
			<path style="fill-rule:evenodd;clip-rule:evenodd;fill:#808080;" d="M233.546,469.37c-0.407-0.254-0.878-0.382-1.416-0.382
				c-0.467,0-0.859,0.084-1.175,0.252c-0.317,0.168-0.627,0.411-0.932,0.727v-2.475c0-0.297-0.068-0.524-0.202-0.685
				c-0.134-0.16-0.326-0.24-0.575-0.24c-0.238,0-0.423,0.084-0.556,0.252c-0.132,0.168-0.198,0.416-0.198,0.744v7.075
				c0,0.304,0.068,0.535,0.205,0.692c0.136,0.156,0.319,0.234,0.549,0.234c0.226,0,0.412-0.078,0.557-0.234
				c0.146-0.157,0.22-0.388,0.22-0.692v-0.16c0.178,0.205,0.322,0.361,0.43,0.463c0.109,0.103,0.241,0.203,0.395,0.3
				c0.154,0.097,0.341,0.175,0.561,0.234c0.22,0.06,0.454,0.089,0.703,0.089c0.407,0,0.78-0.082,1.119-0.246
				s0.626-0.397,0.864-0.698c0.237-0.3,0.418-0.656,0.543-1.065c0.125-0.41,0.187-0.859,0.187-1.35c0-0.665-0.112-1.241-0.336-1.725
				C234.265,469.996,233.951,469.626,233.546,469.37L233.546,469.37z M232.756,473.781L232.756,473.781
				c-0.294,0.355-0.646,0.531-1.053,0.531c-0.479,0-0.866-0.174-1.161-0.521c-0.295-0.346-0.442-0.841-0.442-1.486
				c0-0.439,0.069-0.818,0.208-1.136c0.139-0.319,0.328-0.562,0.57-0.73c0.24-0.168,0.516-0.253,0.825-0.253
				c0.3,0,0.564,0.085,0.789,0.253c0.225,0.168,0.399,0.406,0.522,0.715c0.123,0.308,0.184,0.677,0.184,1.104
				C233.198,472.919,233.05,473.427,232.756,473.781z"/>
			<path style="fill-rule:evenodd;clip-rule:evenodd;fill:#808080;" d="M240.489,469.074c-0.112-0.066-0.23-0.098-0.353-0.098
				c-0.171,0-0.303,0.03-0.396,0.09c-0.093,0.058-0.18,0.173-0.264,0.344c-0.083,0.17-0.176,0.406-0.279,0.706l-1.3,3.709
				l-1.371-3.988c-0.091-0.277-0.195-0.489-0.314-0.638c-0.119-0.148-0.295-0.223-0.528-0.223c-0.135,0-0.264,0.035-0.389,0.107
				c-0.124,0.071-0.222,0.166-0.294,0.285c-0.071,0.118-0.107,0.246-0.107,0.385c0,0.131,0.061,0.341,0.184,0.628l1.994,5.022
				l-0.148,0.362c-0.111,0.265-0.209,0.466-0.294,0.601c-0.085,0.138-0.181,0.234-0.287,0.289c-0.107,0.056-0.254,0.084-0.44,0.084
				c-0.074,0-0.164-0.012-0.266-0.035c-0.083-0.024-0.169-0.037-0.257-0.037c-0.221,0-0.388,0.051-0.5,0.152
				c-0.113,0.101-0.169,0.245-0.169,0.43c0,0.273,0.118,0.461,0.356,0.564c0.237,0.103,0.593,0.154,1.068,0.154
				c0.487,0,0.873-0.074,1.161-0.223c0.287-0.148,0.517-0.361,0.691-0.638c0.175-0.277,0.353-0.659,0.535-1.145l2.113-5.532
				c0.051-0.142,0.095-0.283,0.13-0.421c0.037-0.139,0.061-0.246,0.078-0.321c0-0.123-0.032-0.239-0.093-0.35
				C240.689,469.228,240.602,469.139,240.489,469.074z"/>
		</g>
		<g>
			<g>
				<path style="fill-rule:evenodd;clip-rule:evenodd;fill:#808080;" d="M262.89,466.562c-0.533,0-0.954,0.069-1.26,0.204
					c-0.307,0.137-0.527,0.354-0.654,0.653c-0.13,0.301-0.191,0.702-0.191,1.211v0.487h-0.387c-0.543,0-0.815,0.193-0.815,0.582
					c0,0.174,0.066,0.316,0.197,0.424c0.132,0.111,0.315,0.164,0.558,0.164h0.447v4.294c0,0.319,0.074,0.563,0.227,0.73
					c0.154,0.17,0.344,0.254,0.573,0.254c0.243,0,0.438-0.084,0.589-0.254c0.155-0.167,0.23-0.411,0.23-0.73v-4.294h0.396
					c0.29,0,0.517-0.035,0.681-0.108c0.166-0.07,0.245-0.24,0.245-0.502c0-0.374-0.307-0.56-0.926-0.56h-0.396v-0.385
					c0-0.322,0.043-0.568,0.122-0.74c0.087-0.172,0.273-0.259,0.566-0.259c0.107,0,0.241,0.014,0.389,0.034
					c0.156,0.026,0.267,0.038,0.33,0.038c0.134,0,0.252-0.054,0.348-0.16c0.101-0.107,0.15-0.236,0.15-0.384
					C264.31,466.792,263.839,466.562,262.89,466.562z"/>
				<path style="fill-rule:evenodd;clip-rule:evenodd;fill:#808080;" d="M268.049,469.228c-0.32-0.171-0.648-0.255-0.991-0.255
					c-0.341,0-0.611,0.084-0.818,0.255c-0.203,0.171-0.4,0.421-0.593,0.755c-0.014-0.334-0.08-0.584-0.198-0.755
					c-0.119-0.171-0.313-0.255-0.583-0.255c-0.526,0-0.788,0.365-0.788,1.093v4.513c0,0.323,0.078,0.569,0.225,0.734
					c0.149,0.168,0.341,0.25,0.579,0.25c0.237,0,0.432-0.081,0.586-0.247c0.151-0.163,0.234-0.41,0.234-0.737v-1.355
					c0-0.486,0.014-0.899,0.045-1.239c0.034-0.336,0.09-0.63,0.17-0.878c0.084-0.243,0.201-0.425,0.353-0.553
					c0.149-0.122,0.345-0.186,0.582-0.186c0.172,0,0.373,0.037,0.602,0.108c0.226,0.073,0.371,0.112,0.433,0.112
					c0.157,0,0.304-0.064,0.441-0.194c0.135-0.126,0.204-0.292,0.204-0.488C268.531,469.626,268.371,469.399,268.049,469.228z"/>
				<path style="fill-rule:evenodd;clip-rule:evenodd;fill:#808080;" d="M274.136,472.486c0.233-0.122,0.351-0.386,0.351-0.791
					c0-0.44-0.113-0.87-0.339-1.295c-0.222-0.424-0.565-0.77-1.018-1.034c-0.454-0.27-0.997-0.403-1.629-0.403
					c-0.488,0-0.931,0.078-1.33,0.233c-0.401,0.156-0.735,0.38-1.007,0.674c-0.276,0.295-0.484,0.643-0.624,1.055
					c-0.144,0.41-0.217,0.855-0.217,1.333c0,1.016,0.292,1.823,0.87,2.418c0.577,0.593,1.385,0.889,2.428,0.889
					c0.453,0,0.857-0.06,1.207-0.179c0.349-0.117,0.639-0.268,0.874-0.446c0.233-0.182,0.405-0.368,0.522-0.566
					c0.112-0.194,0.167-0.365,0.167-0.512c0-0.167-0.048-0.293-0.152-0.385c-0.105-0.092-0.238-0.139-0.406-0.139
					c-0.152,0-0.271,0.038-0.355,0.109c-0.202,0.189-0.368,0.34-0.494,0.449c-0.128,0.113-0.264,0.217-0.415,0.312
					c-0.15,0.097-0.307,0.169-0.466,0.213c-0.16,0.048-0.336,0.069-0.531,0.069c-0.29,0-0.552-0.069-0.792-0.212
					c-0.24-0.145-0.431-0.356-0.578-0.635c-0.144-0.281-0.216-0.606-0.222-0.974h3.171
					C273.575,472.667,273.903,472.606,274.136,472.486L274.136,472.486z M269.981,471.745L269.981,471.745
					c0.054-0.546,0.213-0.957,0.472-1.236c0.259-0.28,0.591-0.417,0.995-0.417c0.426,0,0.764,0.136,1.025,0.412
					c0.26,0.273,0.407,0.688,0.446,1.241H269.981z"/>
				<path style="fill-rule:evenodd;clip-rule:evenodd;fill:#808080;" d="M280.876,472.486c0.231-0.122,0.351-0.386,0.351-0.791
					c0-0.44-0.116-0.87-0.34-1.295c-0.222-0.424-0.564-0.77-1.013-1.034c-0.459-0.27-1.003-0.403-1.633-0.403
					c-0.486,0-0.932,0.078-1.33,0.233c-0.401,0.156-0.737,0.38-1.009,0.674c-0.273,0.295-0.481,0.643-0.622,1.055
					c-0.145,0.41-0.217,0.855-0.217,1.333c0,1.016,0.29,1.823,0.867,2.418c0.58,0.593,1.387,0.889,2.43,0.889
					c0.453,0,0.86-0.06,1.208-0.179c0.347-0.117,0.641-0.268,0.872-0.446c0.234-0.182,0.408-0.368,0.518-0.566
					c0.116-0.194,0.171-0.365,0.171-0.512c0-0.167-0.047-0.293-0.15-0.385c-0.104-0.092-0.238-0.139-0.406-0.139
					c-0.151,0-0.27,0.038-0.355,0.109c-0.203,0.189-0.368,0.34-0.492,0.449c-0.128,0.113-0.264,0.217-0.415,0.312
					c-0.153,0.097-0.307,0.169-0.469,0.213c-0.157,0.048-0.336,0.069-0.528,0.069c-0.291,0-0.555-0.069-0.794-0.212
					c-0.238-0.145-0.431-0.356-0.576-0.635c-0.143-0.281-0.218-0.606-0.221-0.974h3.17
					C280.314,472.667,280.642,472.606,280.876,472.486L280.876,472.486z M276.722,471.745L276.722,471.745
					c0.052-0.546,0.211-0.957,0.469-1.236c0.26-0.28,0.592-0.417,0.995-0.417c0.426,0,0.764,0.136,1.026,0.412
					c0.257,0.273,0.407,0.688,0.447,1.241H276.722z"/>
				<path style="fill-rule:evenodd;clip-rule:evenodd;fill:#808080;" d="M286.886,469.37c-0.419-0.256-0.882-0.385-1.379-0.385
					c-0.415,0-0.79,0.089-1.114,0.266c-0.331,0.177-0.648,0.452-0.952,0.828v-0.195c0-0.296-0.071-0.519-0.218-0.677
					c-0.143-0.156-0.329-0.234-0.56-0.234c-0.233,0-0.418,0.078-0.553,0.228c-0.134,0.155-0.2,0.382-0.2,0.692v6.995
					c0,0.355,0.051,0.62,0.146,0.807c0.102,0.183,0.301,0.275,0.607,0.275c0.518,0,0.778-0.359,0.778-1.069v-2.433
					c0.287,0.358,0.586,0.634,0.901,0.817c0.314,0.186,0.704,0.28,1.166,0.28c0.385,0,0.742-0.077,1.079-0.227
					c0.334-0.153,0.622-0.372,0.868-0.654c0.245-0.283,0.44-0.632,0.58-1.05c0.14-0.418,0.21-0.878,0.21-1.376
					c0-0.677-0.122-1.261-0.366-1.758C287.635,470.005,287.306,469.629,286.886,469.37L286.886,469.37z M286.41,473.373
					L286.41,473.373c-0.137,0.313-0.32,0.546-0.552,0.704c-0.229,0.154-0.48,0.232-0.748,0.232c-0.454,0-0.828-0.179-1.133-0.536
					c-0.306-0.358-0.459-0.862-0.459-1.504c0-0.686,0.154-1.204,0.462-1.558c0.306-0.349,0.684-0.527,1.13-0.527
					c0.281,0,0.541,0.084,0.77,0.248c0.23,0.163,0.411,0.397,0.541,0.705c0.13,0.306,0.197,0.673,0.197,1.101
					C286.618,472.681,286.548,473.06,286.41,473.373z"/>
				<path style="fill-rule:evenodd;clip-rule:evenodd;fill:#808080;" d="M289.86,468.973c-0.238,0-0.428,0.08-0.58,0.245
					c-0.146,0.162-0.222,0.403-0.222,0.721v4.642c0,0.313,0.076,0.555,0.222,0.729c0.152,0.17,0.342,0.254,0.58,0.254
					c0.238,0,0.432-0.082,0.588-0.25c0.154-0.165,0.231-0.41,0.231-0.732v-4.688c0-0.287-0.077-0.513-0.231-0.675
					C290.292,469.052,290.098,468.973,289.86,468.973z"/>
				<path style="fill-rule:evenodd;clip-rule:evenodd;fill:#808080;" d="M289.877,466.633c-0.217,0-0.408,0.076-0.571,0.223
					c-0.166,0.149-0.248,0.339-0.248,0.568c0,0.253,0.081,0.447,0.242,0.586c0.158,0.138,0.35,0.209,0.577,0.209
					c0.22,0,0.408-0.071,0.566-0.21c0.157-0.14,0.236-0.335,0.236-0.585c0-0.257-0.082-0.454-0.244-0.591
					C290.275,466.7,290.09,466.633,289.877,466.633z"/>
				<path style="fill-rule:evenodd;clip-rule:evenodd;fill:#808080;" d="M297.218,474.003l-1.662-2.613l0.86-0.789
					c0.438-0.395,0.659-0.714,0.659-0.951c0-0.192-0.068-0.355-0.2-0.483c-0.138-0.128-0.306-0.193-0.509-0.193
					c-0.169,0-0.313,0.044-0.431,0.13c-0.122,0.086-0.291,0.251-0.517,0.486l-1.822,1.914v-3.933c0-0.329-0.075-0.581-0.221-0.751
					c-0.148-0.172-0.344-0.257-0.593-0.257c-0.255,0-0.456,0.093-0.596,0.283c-0.135,0.189-0.207,0.463-0.207,0.821v6.913
					c0,0.323,0.073,0.569,0.215,0.734c0.141,0.168,0.339,0.25,0.588,0.25c0.213,0,0.406-0.084,0.566-0.254
					c0.165-0.167,0.248-0.407,0.248-0.718V473.3l0.88-0.83l1.427,2.353c0.181,0.278,0.329,0.471,0.436,0.58
					c0.106,0.109,0.26,0.16,0.458,0.16c0.226,0,0.413-0.073,0.553-0.221c0.142-0.151,0.213-0.352,0.213-0.61
					c0-0.089-0.029-0.19-0.082-0.289C297.43,474.342,297.339,474.198,297.218,474.003z"/>
				<path style="fill-rule:evenodd;clip-rule:evenodd;fill:#808080;" d="M299.41,473.776c-0.25,0-0.458,0.087-0.63,0.261
					c-0.17,0.173-0.256,0.381-0.256,0.622c0,0.287,0.09,0.51,0.268,0.665c0.179,0.159,0.389,0.238,0.634,0.238
					c0.237,0,0.444-0.079,0.623-0.241c0.175-0.157,0.264-0.38,0.264-0.662c0-0.243-0.089-0.454-0.264-0.626
					C299.869,473.863,299.658,473.776,299.41,473.776z"/>
				<path style="fill-rule:evenodd;clip-rule:evenodd;fill:#808080;" d="M306.796,472.85c-0.167,0-0.308,0.054-0.422,0.156
					c-0.114,0.104-0.219,0.245-0.318,0.427c-0.177,0.31-0.381,0.538-0.616,0.689c-0.231,0.15-0.51,0.225-0.835,0.225
					c-0.24,0-0.463-0.045-0.665-0.141c-0.202-0.094-0.372-0.23-0.516-0.409c-0.143-0.18-0.252-0.398-0.325-0.652
					c-0.075-0.256-0.114-0.537-0.114-0.842c0-0.646,0.147-1.161,0.439-1.534c0.294-0.374,0.682-0.561,1.158-0.561
					c0.333,0,0.607,0.075,0.821,0.227c0.218,0.147,0.424,0.375,0.622,0.673c0.108,0.158,0.209,0.269,0.299,0.339
					c0.09,0.068,0.202,0.104,0.338,0.104c0.202,0,0.377-0.068,0.524-0.203c0.143-0.135,0.214-0.3,0.214-0.492
					c0-0.192-0.063-0.397-0.192-0.617c-0.128-0.218-0.314-0.423-0.556-0.62c-0.245-0.192-0.54-0.352-0.89-0.474
					c-0.353-0.123-0.737-0.184-1.157-0.184c-0.674,0-1.259,0.139-1.746,0.419c-0.486,0.279-0.859,0.674-1.113,1.183
					c-0.259,0.511-0.387,1.098-0.387,1.765c0,0.981,0.281,1.764,0.841,2.349c0.562,0.582,1.344,0.876,2.348,0.876
					c0.469,0,0.893-0.065,1.268-0.192c0.377-0.126,0.688-0.295,0.934-0.502c0.249-0.208,0.434-0.425,0.554-0.656
					c0.121-0.229,0.182-0.446,0.182-0.646c0-0.169-0.067-0.331-0.198-0.481C307.158,472.927,306.993,472.85,306.796,472.85z"/>
				<path style="fill-rule:evenodd;clip-rule:evenodd;fill:#808080;" d="M313.607,469.886c-0.288-0.29-0.628-0.517-1.027-0.674
					c-0.4-0.161-0.846-0.239-1.336-0.239c-0.483,0-0.924,0.078-1.326,0.234c-0.399,0.158-0.737,0.38-1.019,0.669
					c-0.281,0.288-0.498,0.636-0.649,1.045c-0.146,0.408-0.224,0.858-0.224,1.349c0,0.485,0.076,0.93,0.219,1.332
					c0.152,0.402,0.369,0.75,0.657,1.048c0.285,0.292,0.627,0.521,1.016,0.676c0.392,0.159,0.835,0.239,1.326,0.239
					c0.492,0,0.937-0.08,1.336-0.234c0.393-0.157,0.735-0.382,1.02-0.675c0.286-0.291,0.502-0.641,0.656-1.05
					c0.146-0.408,0.222-0.855,0.222-1.336c0-0.489-0.075-0.932-0.221-1.339C314.108,470.529,313.893,470.183,313.607,469.886
					L313.607,469.886z M312.415,473.802L312.415,473.802c-0.29,0.372-0.682,0.557-1.171,0.557c-0.324,0-0.605-0.086-0.846-0.253
					c-0.24-0.168-0.424-0.41-0.554-0.729c-0.13-0.317-0.193-0.684-0.193-1.108c0-0.428,0.066-0.803,0.197-1.125
					c0.131-0.321,0.314-0.563,0.556-0.727c0.242-0.164,0.522-0.246,0.84-0.246c0.489,0,0.881,0.182,1.171,0.555
					c0.289,0.367,0.435,0.881,0.435,1.543C312.851,472.92,312.704,473.433,312.415,473.802z"/>
				<path style="fill-rule:evenodd;clip-rule:evenodd;fill:#808080;" d="M323.529,469.246c-0.32-0.173-0.705-0.262-1.146-0.262
					c-0.381,0-0.726,0.081-1.039,0.241c-0.313,0.161-0.607,0.408-0.881,0.738c-0.192-0.326-0.431-0.573-0.725-0.736
					c-0.292-0.162-0.641-0.243-1.048-0.243c-0.394,0-0.747,0.078-1.071,0.241c-0.318,0.156-0.619,0.403-0.902,0.738v-0.153
					c0-0.261-0.074-0.466-0.222-0.616c-0.15-0.145-0.335-0.222-0.557-0.222c-0.227,0-0.412,0.078-0.555,0.239
					c-0.141,0.157-0.21,0.389-0.21,0.694v4.636c0,0.336,0.077,0.591,0.235,0.764c0.156,0.171,0.357,0.258,0.604,0.258
					c0.248,0,0.447-0.087,0.603-0.258c0.149-0.173,0.226-0.428,0.226-0.764v-2.188c0-0.683,0.086-1.206,0.253-1.566
					c0.168-0.369,0.516-0.551,1.048-0.551c0.264,0,0.459,0.072,0.582,0.22c0.121,0.141,0.198,0.331,0.227,0.552
					c0.027,0.227,0.04,0.544,0.04,0.953v2.581c0,0.341,0.078,0.594,0.232,0.767c0.148,0.17,0.349,0.255,0.594,0.255
					c0.254,0,0.454-0.085,0.611-0.255c0.155-0.173,0.23-0.426,0.23-0.767v-2.154c0-0.695,0.062-1.178,0.178-1.453
					c0.109-0.209,0.259-0.383,0.45-0.508c0.192-0.125,0.396-0.192,0.609-0.192c0.264,0,0.463,0.072,0.596,0.215
					c0.128,0.141,0.209,0.319,0.239,0.529c0.029,0.21,0.043,0.487,0.043,0.836v2.726c0,0.336,0.079,0.591,0.235,0.764
					c0.157,0.171,0.357,0.258,0.603,0.258c0.252,0,0.458-0.085,0.612-0.255c0.154-0.173,0.229-0.426,0.229-0.767v-3.164
					c0-0.629-0.068-1.091-0.206-1.385C324.088,469.671,323.848,469.42,323.529,469.246z"/>
			</g>
			<g>
				<path style="fill-rule:evenodd;clip-rule:evenodd;fill:#808080;" d="M245.233,471.877c-0.001-0.004-0.001-0.006-0.001-0.011
					C245.232,471.871,245.232,471.874,245.233,471.877z"/>
				<path style="fill-rule:evenodd;clip-rule:evenodd;fill:#808080;" d="M245.315,472.395c0.001,0,0.001,0,0.001,0
					c-0.03-0.147-0.055-0.294-0.073-0.438C245.261,472.102,245.286,472.249,245.315,472.395z"/>
				<path style="fill-rule:evenodd;clip-rule:evenodd;fill:#808080;" d="M245.851,473.899c-0.004-0.006-0.007-0.013-0.01-0.021
					C245.845,473.886,245.848,473.893,245.851,473.899z"/>
				<path style="fill-rule:evenodd;clip-rule:evenodd;fill:#808080;" d="M245.8,473.799c-0.014-0.027-0.028-0.056-0.041-0.084
					C245.773,473.744,245.786,473.771,245.8,473.799z"/>
				<path style="fill-rule:evenodd;clip-rule:evenodd;fill:#808080;" d="M245.466,472.974c0.079,0.25,0.175,0.492,0.285,0.724
					c-0.113-0.236-0.206-0.479-0.284-0.724H245.466z"/>
				<path style="fill-rule:evenodd;clip-rule:evenodd;fill:#808080;" d="M250.696,465.115l-0.076-0.259
					c0.299-0.063,0.524-0.329,0.524-0.646c0-0.364-0.297-0.659-0.66-0.659c-0.365,0-0.66,0.295-0.66,0.659
					c0,0.318,0.225,0.583,0.522,0.646l0.084,0.289c-1.021,0.14-1.834,0.539-1.834,0.539l0.144,0.44
					c0.617-0.205,1.153-0.33,1.64-0.383c0.476-0.051,0.834-0.073,1.126-0.073c0.314,0,0.544,0.025,0.809,0.069l0.075-0.476
					C252.389,465.261,251.658,465.036,250.696,465.115z"/>
				<path style="fill-rule:evenodd;clip-rule:evenodd;fill:#808080;" d="M245.413,467.621c-0.017,0.024-0.497,0.465-0.876,1.28
					c-0.016-0.026-0.035-0.051-0.056-0.074c-0.114-0.124-0.272-0.187-0.474-0.184c-0.003,0-0.006,0-0.01,0
					c-0.124,0-0.21-0.041-0.266-0.092c0.056-0.071,0.089-0.161,0.089-0.258c0-0.231-0.187-0.419-0.419-0.419
					c-0.23,0-0.417,0.188-0.417,0.419c0,0.231,0.187,0.417,0.417,0.417c0.037,0,0.071-0.006,0.105-0.012
					c0.103,0.113,0.265,0.213,0.504,0.209c0.123-0.001,0.214,0.03,0.274,0.097c0.069,0.076,0.093,0.185,0.1,0.267
					c-0.001,0.002-0.001,0.004-0.002,0.004c-0.272,0.743-0.195,1.669-0.195,1.669l0.661,0.025c0.013-0.336,0.062-0.926,0.232-1.393
					c0.328-0.906,0.741-1.472,0.757-1.495l0.003-0.005c0.024-0.031,0.047-0.06,0.071-0.089l-0.196-0.141L245.413,467.621z"/>
				<path style="fill-rule:evenodd;clip-rule:evenodd;fill:#808080;" d="M257.254,466.22c-0.23,0-0.418,0.186-0.418,0.417
					c0,0.036,0.006,0.071,0.015,0.104c-0.115,0.104-0.214,0.267-0.211,0.507c0.002,0.123-0.03,0.212-0.096,0.273
					c-0.053,0.047-0.12,0.072-0.185,0.088c-0.492-0.689-1.097-1.109-1.097-1.109l-0.474,0.508c0.358,0.326,0.725,0.734,1.08,1.243
					c0.246,0.352,0.499,0.806,0.71,1.259l0.64-0.304c0,0-0.292-0.722-0.704-1.369c0.071-0.025,0.143-0.064,0.207-0.12
					c0.125-0.113,0.187-0.273,0.183-0.473c-0.001-0.13,0.041-0.218,0.093-0.276c0.071,0.054,0.16,0.089,0.257,0.089
					c0.232,0,0.419-0.187,0.419-0.419C257.672,466.407,257.486,466.22,257.254,466.22z"/>
				<path style="fill-rule:evenodd;clip-rule:evenodd;fill:#808080;" d="M255.593,471.97c-0.88,0.429-2.33,0.996-4.237,1.262
					c-0.749,0.104-1.474,0.142-2.142,0.142c-0.869,0-1.637-0.065-2.226-0.139c-0.672-0.085-1.198-0.189-1.52-0.261
					c0.078,0.245,0.171,0.487,0.284,0.724c0.002,0.006,0.005,0.013,0.008,0.017c0.013,0.027,0.027,0.056,0.041,0.084
					c0.013,0.027,0.027,0.054,0.041,0.079c0.004,0.007,0.007,0.014,0.01,0.021c0.189,0.356,0.417,0.684,0.675,0.968
					c0.9,0.984,1.816,1.139,1.825,1.141l0.014,0.002l0.014,0.005c0.008,0.003,0.821,0.265,2.056,0.265
					c1.215,0,2.409-0.245,3.546-0.728c0.842-0.431,1.638-1.085,2.033-1.668c0.305-0.452,0.526-0.934,0.656-1.434
					c0.069-0.266,0.124-0.693,0.092-1.141C256.515,471.475,256.123,471.712,255.593,471.97z"/>
				<path style="fill-rule:evenodd;clip-rule:evenodd;fill:#808080;" d="M252.282,466.089c-0.264-0.043-0.477-0.068-0.777-0.068
					c-0.279,0-0.626,0.022-1.089,0.071c-0.465,0.049-0.982,0.171-1.583,0.373c-0.842,0.282-1.604,0.724-2.204,1.28l-0.02,0.019
					c-0.089,0.081-0.275,0.254-0.488,0.525c-0.026,0.037-0.408,0.578-0.709,1.408c-0.226,0.622-0.216,1.527-0.216,1.537v0.002
					c0,0.212,0.012,0.423,0.036,0.632c0,0.005,0,0.007,0.001,0.011c0.002,0.027,0.007,0.052,0.01,0.079
					c0.018,0.144,0.043,0.291,0.074,0.438c0.437,0.112,3.048,0.721,5.966,0.314c1.829-0.254,3.218-0.795,4.061-1.204
					c0.7-0.34,1.151-0.647,1.325-0.774c-0.173-0.643-0.651-1.65-1.089-2.279C254.327,466.662,252.976,466.203,252.282,466.089
					L252.282,466.089z M248.639,471.347L248.639,471.347c-0.971,0-1.759-0.787-1.759-1.759c0-0.972,0.788-1.761,1.759-1.761
					c0.973,0,1.761,0.788,1.761,1.761C250.399,470.56,249.612,471.347,248.639,471.347L248.639,471.347z M253.788,470.05
					L253.788,470.05c-0.601,0-1.089-0.489-1.089-1.09c0-0.602,0.488-1.089,1.089-1.089c0.601,0,1.089,0.488,1.089,1.089
					C254.878,469.561,254.389,470.05,253.788,470.05z"/>
			</g>
		</g>
	</g>
</g>
</svg>
